<?xml version="1.0" encoding="utf-8"?>
<!-- Generator: Adobe Illustrator 24.1.0, SVG Export Plug-In . SVG Version: 6.00 Build 0)  -->
<svg version="1.1" id="Capa_1" xmlns="http://www.w3.org/2000/svg" xmlns:xlink="http://www.w3.org/1999/xlink" x="0px" y="0px"
	 viewBox="0 0 32 32" style="enable-background:new 0 0 32 32;" xml:space="preserve">
<style type="text/css">
	.st0{fill:#D8CABC;}
	.st1{fill:#EFEFE4;}
	.st2{fill:#FA8A21;}
	.st3{fill:#FDE38D;}
	.st4{fill:#C4C1BB;}
	.st5{fill:#CC7229;}
	.st6{fill:#3A2320;}
</style>
<g id="Background">
	<circle class="st0" cx="16" cy="15.9" r="11.4"/>
</g>
<g id="Logo">
	<g id="Logo-2">
		<g id="Fill">
			<path class="st1" d="M16.7,15.5C16.7,15.5,16.7,15.5,16.7,15.5c0,0.1,0,0.1,0,0.2c0,0,0.1,0.1,0.1,0.1c0,0,0.1,0,0.1,0v0
				c0,0,0-0.1-0.1-0.1C16.8,15.6,16.7,15.5,16.7,15.5z"/>
			<path class="st1" d="M17,15.3C17,15.3,17,15.3,17,15.3c-0.1,0-0.1,0.1-0.1,0.1c0,0,0,0.1,0.1,0.1c0.1,0,0.1,0.1,0.2,0.1
				c0,0,0,0,0,0l0,0c0,0,0,0,0,0c0-0.1,0.1-0.2,0-0.2C17.2,15.3,17.1,15.3,17,15.3z"/>
			<path class="st1" d="M17.6,13.8c0.1,0,0.1-0.1,0.1-0.1c0-0.1,0-0.2,0-0.2c0,0,0,0,0,0c-0.2-0.1-0.5-0.1-0.7-0.1
				c-0.1,0-0.3,0-0.4,0.1c-0.1,0.1-0.1,0.2-0.1,0.3c0,0,0,0.1,0.1,0.1c0.1,0.1,0.3,0.1,0.4,0.1c0.2,0,0.3,0,0.5-0.1
				C17.5,13.8,17.5,13.8,17.6,13.8z"/>
			<path class="st1" d="M19.3,16c-0.1,0-0.4,0.1-0.4,0.2c0,0.1,0,0.1,0.1,0.1c0.1,0,0.1,0,0.2,0c0,0,0.1,0,0.1,0c0,0,0,0,0,0
				c0,0,0-0.1,0-0.2C19.4,16,19.4,16,19.3,16z"/>
			<path class="st1" d="M20.1,12.4c-0.2-0.5-0.5-1-0.7-1.5c0.1,0.5,0.2,1,0.3,1.4c0.2,0.6,0.9,1.3,0.8,2.2l0,0c0,0,0,0.1,0,0.1
				c0,0.2-0.1,0.4-0.2,0.6c-0.1,0.3-0.2,0.6-0.4,0.8l0,0.1c-0.2,0.4-0.7,0.6-1.1,0.8l0,0c-0.1,0-0.3,0.1-0.4,0.1c-0.2,0-0.3,0-0.5,0
				L17.7,18c0.1,0.3,0.3,0.6,0.5,0.9l0,0c0.2,0.2,0.4,0.3,0.6,0.5l0,0c0.1,0.1,0.3,0.1,0.5,0.2c0.5,0.1,0.9-0.4,1.2-0.7
				c0.7-0.8,0.7-1.9,0.6-2.9C21,14.7,20.7,13.5,20.1,12.4z M19.3,18.6c-0.2,0.2-0.5,0-0.5-0.2c0-0.1,0.2-0.3,0.3-0.3
				c0.2,0,0.3,0.1,0.3,0.3c0,0,0,0,0,0C19.4,18.5,19.4,18.6,19.3,18.6z M20.4,18.4c-0.1,0-0.2,0.1-0.2,0c-0.2,0-0.3-0.4-0.1-0.5
				c0.1-0.1,0.3,0,0.4,0.1C20.5,18.1,20.5,18.2,20.4,18.4C20.4,18.4,20.4,18.4,20.4,18.4L20.4,18.4z M20.5,17.2
				c-0.2,0.2-0.5,0-0.5-0.2c0-0.1,0.2-0.3,0.3-0.3c0.2,0,0.3,0.1,0.3,0.3l0,0C20.6,17.1,20.5,17.2,20.5,17.2L20.5,17.2z"/>
			<path class="st1" d="M17.4,18.6c-0.3,0-0.6,0.1-0.9,0.2c-0.3,0.1-0.6,0.2-1,0.3c-0.8,0.2-1.1,0.2-1.3,0.1c0,0,0.1,0.1,0.1,0.1
				c0.1,0.1,0.2,0.1,0.4,0.2c0.1,0,0.1,0.1,0.2,0.1c0.1,0.1,0.3,0.1,0.4,0.2c0.7,0.3,1.4,0.4,2.1,0.3c0.1,0,0.2,0,0.4-0.1
				c0.1,0,0.2-0.1,0.3-0.1l0,0c0,0,0.1,0,0.1,0l0.4-0.1l0,0C18.1,19.5,17.7,19.1,17.4,18.6z"/>
			<path class="st1" d="M15.8,7c0-0.1-0.1-0.2-0.1-0.4c0,0,0,0,0,0C15.6,6.4,15.4,6,15.1,6c0,0-0.1,0-0.1-0.1
				c-0.4-0.1-0.8-0.2-1.2-0.1c-0.6,0.1-1.1,0.4-1.7,0.6l-0.3,0.1l0,0l0,0c-0.2,0.1-0.5,0.2-0.7,0.2c-0.1,0-0.2,0.1-0.3,0.1l0,0
				C10.3,7,10,7.3,9.9,7.6c-0.1,0.4-0.3,1.1,0,1.1c0.3,0,1.1-0.4,1.3-0.5c0.1,0,0.1-0.1,0.1-0.2l0,0h0c0.1-0.2,0.2-0.5,0.5-0.7
				c0.1-0.1,0.1-0.1,0.2-0.1c-0.2,0.1-0.2,0.3-0.4,0.7c0,0,0,0,0,0.1l0,0c0,0,0.1-0.1,0.1-0.1c0.1,0,0.1-0.1,0.2-0.1
				c0.3-0.3,0.7-0.5,1.1-0.6c0.1,0,0.3,0,0.4,0c0.1,0,0.1,0,0.2,0c0.1,0,0.1,0,0.2,0c-0.3-0.2-0.6-0.3-0.9-0.3
				c0.3-0.1,0.6-0.1,0.8-0.1c0.3,0,0.6,0.2,0.8,0.4c0.2,0.3,0.3,0.6,0.4,1c0,0.1,0,0.2,0,0.4c0,0.1,0,0.2-0.1,0.3
				c0.1,0,0.1-0.1,0.2-0.2c0,0,0.1-0.2,0.1-0.2c0,0.1,0,0.3,0,0.4c0.1-0.1,0.2-0.1,0.2-0.3c0,0.1,0,0.2,0,0.3c0-0.2,0.1-0.3,0.2-0.5
				c0-0.1,0.1-0.2,0.1-0.2c0,0,0,0,0.1-0.1c0,0,0.1-0.1,0.1-0.1c-0.1,0.4-0.1,0.8-0.3,1.2c0.1-0.1,0.2-0.2,0.3-0.4
				c0.1-0.5,0.3-1,0.2-1.6c0-0.6-0.2-1.2-0.5-1.5l0,0l0,0l0,0l0,0c0,0-0.1-0.1-0.2-0.1c-0.1,0-0.2,0-0.3,0c0,0.1,0.1,0.1,0.1,0.1
				c0.2,0.1,0.3,0.2,0.4,0.4l0,0l0.1,0c0.2,0.3,0.3,0.6,0.3,1c0,0.2,0,0.3,0,0.5c0-0.1,0-0.2,0-0.3C15.9,7.3,15.9,7.2,15.8,7z
				 M15.5,8.1C15.5,8.1,15.5,8.1,15.5,8.1C15.5,8,15.5,8,15.5,8.1L15.5,8.1z"/>
			<path class="st1" d="M13.3,8.6c0.4-0.2,0.1-0.9-0.4-0.7C12.5,8,12.9,8.7,13.3,8.6z"/>
			<path class="st1" d="M19,13.3c-0.7-0.3-1.4-0.5-2.1-0.2c1.1,0.1,2.4,0.4,3.2,1.2C19.9,13.8,19.4,13.5,19,13.3z"/>
			<path class="st1" d="M20,10.5c0.1,0.5,0.6,0.7,1.1,0.8c0.4,0,0.8-0.2,1-0.6c0.2-0.4,0.4-0.8,0.3-1.3c0,0.3-0.1,0.7-0.2,1
				c-0.3,0.6-1.1,0.8-1.7,0.5C20.3,10.9,20.2,10.7,20,10.5z"/>
			<path class="st1" d="M12,8.4c0,0.5,0.2,0.9,0.6,1.2s1,0.5,1.4,0.2c0.3-0.1,0.5-0.5,0.7-0.7c0.2-0.4,0.1-0.9-0.1-1.3
				c0.2,0.7-0.1,1.5-0.8,1.8c-0.5,0.2-0.9,0-1.3-0.3C12.2,9.1,12.1,8.8,12,8.4z"/>
			<path class="st1" d="M11.2,13.1c0.7-0.6,1.6-1,2.4-1.6c-0.1,0-0.2,0-0.3,0c-0.5-0.2-0.9-0.4-1.2-0.8c0,0,0,0,0.1,0
				c0.3,0.2,0.7,0.3,1.1,0.4c0.2,0,0.4,0,0.6,0c0.3,0,0.6-0.1,0.9-0.3c0,0,0.3-0.3,0.3-0.5c0-0.2,0-0.7-0.3-0.8
				c-0.1,0.1-0.2,0.2-0.3,0.3c-0.2,0.2-0.5,0.2-0.8,0.2c-0.7,0-1.5-0.3-1.9-0.9c-0.1-0.1-0.2-0.2-0.2-0.4c0-0.1-0.1-0.2-0.1-0.2
				c-0.6,0-1.2,0.2-1.5,0.7c-0.7,1-0.7,2.3-0.6,3.4c0,0.3,0.1,0.7,0.2,1c0.1,0.2,0.3,0.5,0.4,0.7c0,0,0.3,0.3,0.3,0.3
				c0.1-0.2,0.2-0.5,0.3-0.7c0.1-0.1,0.2-0.3,0.3-0.4C10.9,13.4,11.1,13.3,11.2,13.1z"/>
			<path class="st1" d="M16.2,18.4c0.2-0.1,0.4-0.1,0.6-0.2c0.2-0.1,0.4-0.1,0.5-0.3c0.1-0.1,0.1-0.2,0.1-0.4c0,0,0-0.4,0-0.4
				c-1.4-0.7-1.6-1.3-1.8-2.2c-0.1-0.3-0.1-0.6-0.1-0.9l0,0l0,0c0-0.2,0.1-0.5,0.2-0.7c0.1-0.1,0.2-0.2,0.3-0.4l0,0
				c0.2-0.2,0.4-0.3,0.6-0.3c0.9-0.2,1.8,0,2.7,0.3l0,0c0.3,0,0.2-0.2,0.1-0.7c-0.1-0.4-0.3-1.7-0.4-2.8c0-0.4,0-0.7,0-1.1v0
				c0,0,0,0,0,0c0,0,0,0,0-0.1c0-0.1,0-0.2,0-0.2v0c0,0,0,0,0,0c0-0.2,0.1-0.4,0.2-0.6c0.1-0.5,0.2-1,0.3-1.5c0-0.5,0-1-0.1-1.5
				c0,0.1,0.1,0.1,0.1,0.2c0,0.1,0,0.1,0.1,0.2c0,0.1,0.1,0.3,0.1,0.4c0,0.3,0.1,0.6,0.1,0.9c0,0.2,0,0.4,0,0.5
				c0,0.1-0.1,0.5-0.1,0.5l0.1,0c0.2-0.3,0.4-0.5,0.7-0.7c1-0.3,1.7,0.6,2.5,0.9c0.1,0,0.1,0,0.2,0c0-0.1,0-0.1-0.1-0.2
				c0,0,0-0.1,0-0.1c-0.3-0.3-0.6-0.5-0.9-0.8c0.2,0.1,0.5,0.2,0.7,0.3c0-0.2,0-0.4,0-0.6c0-0.7-0.6-1.3-2.1-1.8
				c-0.3-0.1-0.6-0.2-0.9-0.3c-1-0.4-2.1-0.7-3.2-0.8c-0.3,0-0.6-0.1-0.9,0c0.3,0.1,0.5,0.2,0.7,0.4c0.5,0.4,0.8,1.1,1,1.7
				c0,0.1,0,0.2,0,0.3c-0.2-0.5-0.3-1.1-0.7-1.5c-0.2-0.2-0.4-0.3-0.6-0.5c0.1,0.2,0.3,0.3,0.5,0.5c0.3,0.4,0.5,0.8,0.5,1.3
				c-0.1-0.2-0.2-0.5-0.3-0.7c-0.2-0.3-0.4-0.5-0.6-0.8c-0.1-0.2-0.2-0.3-0.4-0.3c-0.6-0.3-1.2-0.5-1.8-0.6c-0.5-0.1-0.7-0.6-1-0.6
				s-0.5,1.1-0.5,1.1c0.1,0,0.1,0.1,0.2,0.2c0,0,0,0,0,0c0,0,0,0.1,0,0.1c0,0.1,0,0.2-0.1,0.3c-0.1,0.2-0.5,0.6-0.8,1.1
				c0,0-0.1,0-0.1,0c0,0,0,0.1,0,0.1c-0.4,0.5-0.7,1-0.7,1c0.5-0.1,0.9-0.3,1.3-0.5c0,0,0.2-0.1,0.7-0.4c0.5-0.1,0.9-0.3,1.4-0.3
				c0.3,0,0.6-0.1,0.9,0c0.4,0.1,0.8,0.3,1,0.7c0.2,0.3,0.2,0.7,0.3,1.1c0,0.4,0,0.7-0.1,1.1c0,0.1-0.1,0.3-0.1,0.4
				c0,0.2-0.1,0.3-0.2,0.5c-0.1,0.2-0.2,0.4-0.4,0.5c0.3,0,0.5-0.1,0.7-0.2c0.3-0.2,0.4-0.5,0.6-0.8c0.2-0.5,0.5-0.9,0.5-1.5
				c0-0.4,0-0.9,0-1.3c0.1,0.1,0.1,0.3,0.1,0.5c0,0.5,0,1.1-0.1,1.6c-0.1,0.6-0.4,1.2-0.8,1.7c-0.1,0.1-0.2,0.3-0.4,0.4
				c-0.1,0.1-0.2,0.2-0.4,0.2c-0.1,0.1-0.3,0.1-0.4,0.2c0.1,0,0.3,0.1,0.4,0.2c-0.2,0-0.4,0-0.5,0.1c-0.1,0-0.1,0.1-0.2,0.1
				c-0.1,0.1-0.1,0.1-0.2,0.2c0.1,0,0.2-0.1,0.3-0.1c0.1-0.1,0.2-0.1,0.3-0.1c0,0-0.1,0.1-0.1,0.1c0,0-0.1,0.1-0.1,0.1
				c-0.1,0.1-0.2,0.1-0.2,0.2c-0.2,0.1-0.3,0.2-0.5,0.4c-0.4,0.2-0.7,0.5-1.1,0.7c-0.3,0.2-0.6,0.4-1,0.6c-0.5,0.2-0.9,0.5-1.3,0.9
				c-0.2,0.2-0.4,0.5-0.6,0.8c-0.1,0.2-0.1,0.3-0.1,0.5c0,0.1,0,0.1,0,0.2c0.1,0.1,0.1,0,0.2-0.1c0.1-0.2,0.2-0.4,0.4-0.6
				c0.4-0.6,1.1-1.1,1.8-1.3c-0.1,0.1-0.2,0.1-0.3,0.2c-0.1,0.1-0.2,0.1-0.4,0.2c-0.2,0.2-0.5,0.4-0.7,0.6c-0.5,0.7-0.4,1.2-0.4,1.2
				s-0.1-0.1-0.1-0.4c0-0.1,0-0.1,0-0.2c0,0.1-0.1,0.1-0.1,0.2C11,15.2,11,15.3,11,15.4c0,0.1,0,0.1,0.1,0.2c0,0,0.1,0.1,0.1,0.1
				c0.1,0,0.1,0.1,0.2,0.1c0-0.9,0.3-1.3,0.5-1.7h0c0,0,0,0.1,0,0.2c0,0-0.3,0.9-0.1,1.7c0.1,0.8,0.6,1.9,1.4,2.4
				c0.4,0.3,1,0.2,1.5,0.2C15.2,18.7,15.7,18.5,16.2,18.4z M17.3,7.4C17.3,7.4,17.2,7.5,17.3,7.4c0-0.3,0-0.7,0.1-1
				C17.4,6.7,17.4,7.1,17.3,7.4z M13.3,16.3c-0.1,0.1-0.4,0.1-0.5-0.1c0-0.1,0.1-0.2,0.2-0.3C13.2,15.7,13.5,16.1,13.3,16.3
				L13.3,16.3z M13.3,15.3c0-0.1,0-0.2,0-0.3c0.1-0.1,0.1-0.1,0.2-0.1c0.1,0,0.3,0.1,0.3,0.3c0,0.1-0.2,0.2-0.3,0.2
				C13.5,15.5,13.3,15.4,13.3,15.3L13.3,15.3z M14.2,17.2c-0.1,0.2-0.5,0.2-0.6-0.1c0-0.1,0-0.1,0-0.2c0-0.2,0.3-0.2,0.4-0.2
				C14.2,16.8,14.4,17,14.2,17.2L14.2,17.2z M14.4,16.1c-0.2,0.2-0.5,0-0.5-0.2c0-0.1,0.2-0.3,0.3-0.3c0.2,0,0.3,0.1,0.3,0.3
				c0,0,0,0,0,0C14.6,16,14.5,16.1,14.4,16.1L14.4,16.1z"/>
			<path class="st1" d="M9.7,4.8c0.1-0.3,0.2-0.7,0.3-1c0.2-0.5,0.5-1,0.8-1.4c0.1-0.2,0.2-0.3,0.4-0.5c0.1-0.1,0.2-0.3,0.4-0.4
				c0.1,0,0.1,0,0.2,0.1c0.1,0.2,0,0.5,0,0.7c0,0.2,0,0.5,0,0.7c0,0.1,0,0.1,0.1,0.2c0.1,0,0.1,0,0.1-0.1c0.2-0.3,0.2-0.6,0.2-1
				c0-0.4-0.1-0.9-0.4-1.1c-0.5-0.1-1,0.2-1.4,0.6C9.7,2.3,9.5,3.2,9.2,4c0,0.1-0.1,0.2-0.1,0.3c0,0,0,0,0,0c0,0-0.1,0-0.1,0
				c0,0,0-0.1,0-0.1C9,3.8,8.9,3.3,8.7,3c-0.2-0.4-0.6-0.7-1-0.8l0,0C7.1,2.1,6.5,2.4,6.1,2.6C5.5,2.8,4.9,3,4.3,3.1
				c-1.1,0.3-0.9,1-0.7,1.9c0.2,0.8,0.9,1.7,1.5,2.4c0.4,0.6,0.7,1.3,1.1,1.9c0.1,0.2,0.3,0.5,0.5,0.7c0.1,0.2,0.3,0.4,0.5,0.5
				c0.1,0,0.3,0,0.4,0c0.2-0.1,0.2-0.3,0.3-0.5c0.2-0.3,0.3-0.6,0.5-1c0-0.1,0.1-0.1,0.1-0.2c0.3-0.6,0.5-1.3,0.7-2
				C9.5,6.2,9.6,5.5,9.7,4.8z"/>
			<path class="st1" d="M24.3,6.2c0.3,0.6,0.5,1.3,0.5,1.3c-0.1-1-0.5-1.8-0.7-2.2C24.1,5.4,24,5.6,24.3,6.2z"/>
			<path class="st1" d="M22.9,8.1c-0.2-0.2-0.4-0.4-0.7-0.5c-0.1,0-0.2-0.1-0.2-0.1c-0.2-0.1-0.3-0.1-0.5-0.2c-0.1,0-0.3,0-0.4,0
				c-0.2,0-0.3,0-0.5,0.1c-0.1,0.1-0.2,0.1-0.3,0.2c-0.5,0.4-0.6,0.6-0.7,1.2c0,0.2,0,0.3,0,0.5c0-0.1,0.1-0.1,0.1-0.2
				C19.7,9,19.8,8.8,20,8.8c-0.3,0.2-0.4,0.6-0.5,0.9c0,0.1,0,0.1,0,0.2c0.1-0.1,0.3-0.3,0.4-0.4c-0.2,0.2-0.3,0.4-0.4,0.6
				c0,0.1,0,0.2,0,0.2s0.7-1.7,2-1.7c0.4,0,0.8,0.3,1.1,0.7c0,0.1,0.1,0.1,0.1,0.2c0,0,0,0,0,0c0,0.1,0.1,0.1,0.1,0.2
				c0.1,0.2,0.1,0.4,0.1,0.5c-0.1,0.1-0.3,0-0.7,0.6c-0.3,0.6-1.2,0.8-1.9,0.6c0,0-0.1,0-0.1,0l0,0.1c0,0.1,0.1,0.2,0.1,0.4
				c0.1-0.1,0.2-0.1,0.3-0.2c-0.1,0.1-0.2,0.3-0.2,0.4c0,0.1,0.1,0.2,0.2,0.3c0.1,0.3,0.3,0.7,0.4,1c0,0.1,0,0.1,0.1,0.2v0
				c0,0.1,0.1,0.3,0.2,0.6v0h0c0.1,0.6,0.3,1.3,0.3,1.3c0.3-0.4,0.6-0.9,0.8-1.3c0.3-0.6,0.5-1.4,0.5-1.8c0-0.1,0-0.3-0.1-0.3
				c0,0-0.1,0-0.2,0c-0.3,0-0.6,0.2-1,0.2c0.1,0,0.1,0,0.2-0.1c0.1,0,0.1-0.1,0.2-0.1c0.1-0.1,0.2-0.1,0.3-0.2l0,0l0,0
				c0.3-0.2,0.7-0.5,0.8-0.8c0.1-0.3,0.2-0.9,0-1.3l0,0c-0.1-0.4-0.7-0.9-0.9-1.1c-0.1-0.1-0.3-0.2-0.5-0.2l0,0
				c-0.2,0-0.4-0.1-0.5-0.2c0,0,0.3-0.1,0.6,0c0.2,0.1,0.4,0.2,0.6,0.3c0.2,0.1,0.3,0.3,0.4,0.5c0,0,0,0,0,0.1l0,0
				c0.1,0.2,0.4,0.3,0.4,0c0-0.2,0-0.4-0.1-0.6C23.2,8.4,23.1,8.3,22.9,8.1z M21.4,8.5c0,0-0.1,0-0.1,0c-0.3,0-0.6,0.1-0.8,0.2
				c-0.2,0-0.3,0.1-0.5,0.3c0.1-0.2,0.3-0.3,0.5-0.4c0,0,0,0,0.1,0c0,0,0,0,0.1,0C20.9,8.4,21.2,8.4,21.4,8.5z"/>
			<path class="st1" d="M22,9.7c0,0,0.1-0.1,0.1-0.1c0-0.1,0-0.1,0-0.2c0-0.1-0.2-0.1-0.3-0.1c0,0-0.2,0-0.2,0.1l0,0
				C21.5,9.6,21.8,9.8,22,9.7z"/>
			<path class="st1" d="M25.1,6.7c-0.1-0.5-0.3-1.1-0.6-1.5c-0.2-0.3-0.5-0.7-0.8-0.7c-0.2,0-0.3,0.1-0.4,0.3
				c-0.1,0.2-0.2,0.4-0.2,0.6C23.1,5.2,23.4,5,23.6,5c-0.1-0.1-0.2-0.1-0.3-0.1c0.1,0,0.1-0.1,0.2-0.1c0.1,0,0.3,0,0.4,0.1
				c0.3,0.2,0.4,0.5,0.5,0.8c0.2,0.3,0.3,0.7,0.4,1.1C24.9,7.2,25,7.6,25,8c0.1,0.6,0.1,1.1,0.1,1.7c0,0.1,0,0.2,0,0.3
				c0.1-0.2,0.1-0.5,0.1-0.7c0-0.2,0-0.5,0-0.7c0-0.4,0-0.9-0.1-1.3C25.1,7.1,25.1,6.9,25.1,6.7z"/>
			<path class="st1" d="M27.8,8.6c-0.1,0.1-0.2,0.2-0.4,0.2c0,0,0,0-0.1,0c0,0,0,0-0.1-0.1l-0.3-0.3c-0.1-0.1-0.2-0.2-0.3-0.2
				c-0.1,0-0.2,0-0.3,0c-0.3,0.1-0.7,0.3-0.8,0.5c-0.1,0.2-0.2,0.5-0.2,0.8c-0.1,0.6-0.2,1.2-0.1,1.8c0,1.7,0.6,2,0.8,1.8
				s1-1.3,1.3-2c0.3-0.8,0.9-1.2,1.2-1.9C28.7,8.9,28.3,8.2,27.8,8.6z"/>
			<path class="st1" d="M20.7,10c0.1,0,0.1-0.1,0.2-0.1c0,0,0-0.1,0-0.1c-0.1-0.1-0.2-0.1-0.3,0C20.6,9.9,20.6,9.9,20.7,10
				C20.6,10,20.7,10,20.7,10z"/>
			<path class="st1" d="M10.2,15.4c-0.5,0.7-0.6,1.6-0.8,2.1c-0.2,0.5-1.1,2.2-1,4.1c0.1,1.8,1.2,3.6,1.8,4.1c0.6,0.6,1.2,0.7,2,1.3
				c0.8,0.6,1.9,1.6,2,2.3c0.1,0.7,0.3,0,0.3,0s0.2,0.8,0,1.5c0.7-0.9,1.4-1.8,2.3-2.5c1.4-1.1,3.2-2.9,3.2-2.9s0.9,0,1.4-1.2
				c0.5-1.2,0.5-3.2,0.4-3.9c-0.1-0.7-0.9-1.9-0.9-1.9s-0.6,1.1-1.5,1.3c-0.9,0.2-1.5,0.4-1.9,0.5c-0.4,0.1-1.9,0.2-2.7-0.3
				c-0.8-0.5-1.2-1.1-1.5-1.2c-0.3-0.1-1.3-0.7-1.6-1.5c-0.3-0.7,0-1.1-0.4-1.2C11.1,16,10.2,15.4,10.2,15.4z"/>
			<path class="st2" d="M10.3,15.1c0.1-0.8,0.8-2.1,2.2-2.7c0.8-0.4,1.6-0.9,2.3-1.5c0,0,0.2-0.6,0.5-0.8c0.2-0.2,1-0.3,1.3-0.6
				c0.3-0.3,0.7-1,0.9-1.7c0.1-0.6,0.2-1.2,0.1-1.8h0c-0.1-0.2-0.2-0.4-0.3-0.6C17.2,5,16.8,4,15.9,3.6s-1.7-0.6-2-0.7
				c-0.3-0.1-1-0.5-1.2-0.8c-0.2-0.3-0.6-1.3-1-1.3c-0.5,0-5.3,1.4-6,1.6S3.6,3.1,3.3,3.6s0.2,1.9,0.4,2.3c0.2,0.4,1.9,3,2.1,3.8
				c0.2,0.8,0.6,1.8,1.6,1.4c1-0.4,1.3-1.3,1.4-1C9,10.4,8.5,12.2,9,13.3C9.4,14,9.8,14.6,10.3,15.1z"/>
			<path class="st3" d="M12,8.3c0.3,0.4,0.9,1.3,1.1,1.3c0.2,0,1-0.1,1.2-0.4c0.2-0.3,0.1-1.3,0.3-1.4c0.2,0,0.2,0.4,0.3,0.6
				s-0.2,0.9-0.3,1.1c-0.2,0.2-0.4,0.6-0.9,0.6C13.1,10,12.3,9.8,12,9.4C11.7,9.1,12,8.3,12,8.3z"/>
			<circle class="st1" cx="13.1" cy="8.2" r="0.5"/>
			<path class="st2" d="M19.6,4.8c0-0.1,0.4,0,0.5,0c0.1,0-0.1-0.2,0.2-0.2c0.3,0,1.3,0.5,2.1,0.4c0.8-0.1,0.9-0.8,1.6-0.7
				c0.7,0.2,1.9,2.5,2.8,3c0.9,0.5,1.5,0.9,2,1.4c0.5,0.5-0.4,1.8-0.8,2.3c-0.4,0.4-1.4,2.2-1.7,2.6c-0.3,0.4-1.1-0.7-1.1-0.7
				s-0.3-2.7-0.4-3.1c0-0.4-0.3-1.1-0.6-0.9c-0.3,0.2-0.7,1.2-0.8,2.2c0,1-0.7,3.1-1,3.7c-0.2,0.4-0.5,0.7-0.8,0.9
				c0,0-0.5-1.7-0.8-2.6c-0.3-0.9-1.2-2.3-1.4-3.1c-0.2-0.9,0.3-2.2,0.3-3.1c0-0.9,0.1-1.5,0-1.6C19.7,5.1,19.6,5,19.6,4.8z"/>
			<path class="st1" d="M20.6,9.7c-0.1,0.2-0.2,0.6,0.2,0.5c0.4-0.1,0.1-0.3,0.6-0.4c0.5-0.1,0.9,0.1,0.9-0.1c0-0.2,0.2-0.5-0.1-0.5
				c-0.2,0-0.8,0-0.9,0.1C21.2,9.3,20.6,9.7,20.6,9.7z"/>
			<path class="st3" d="M20,10.4c0.1,0.1,0.7,0.6,1,0.6c0.7,0,1.2-0.5,1.3-1.1c0-0.2,0-0.5,0.1-0.5c0.1,0,0.2,0.3,0.2,0.5
				c0,0.2-0.3,1-0.5,1.1c-0.1,0.1-0.5,0.4-0.8,0.4c-0.3,0-0.8,0.1-0.9-0.2c-0.2-0.2-0.4-0.5-0.4-0.6C19.9,10.5,20,10.5,20,10.4z"/>
			<path class="st4" d="M9.9,16.2c0.8,0.2,1.4,1.4,1.8,2.1c0.4,0.6,1.5,4,4.5,4.1s2.9-2.4,2.9-2.4s-2.8,0.7-3.6,0.4
				c-0.9-0.3-1.7-1.3-1.7-1.3s-0.9-0.2-1.4-0.7c-0.5-0.6-0.8-2.1-0.8-2.1l-1.4-0.8L9.9,16.2z"/>
			<path class="st4" d="M15,19.1c0.8,0.3,2.4,0.6,3.1,0.3l-0.7-1L15,19.1z"/>
			<path class="st4" d="M11.7,16.3c0.6,1.1,1.3,2,2.6,2s2.4-0.2,2.5-0.7c0.1-0.5-1.7-1.6-1.9-2.9c0,0,0.2-1.2,1.7-1.8
				c0,0-0.7,2.6-0.2,3c0.5,0.4,1.6,0.7,1.4,1.1c-0.2,0.4-0.3,1.4-0.3,1.4s-2.1,0.8-2.9,0.8c-0.8,0-1.6-0.4-1.9-0.8
				c-0.3-0.4-0.8-1-0.8-1.3C11.7,16.8,11.7,16.6,11.7,16.3z"/>
			<path class="st4" d="M20.5,14.8c0.4,0.4,0.3,1,0.3,1s-0.8,0.9-1.4,1.3c-0.6,0.4-1.3,0.5-1.4,0.7s0.5,1.3,1.1,1.4
				c0.6,0.2,1.4-0.2,1.4-0.2s-0.4,0.7-1,0.7c-0.7,0-1.4-0.7-1.8-1.1c-0.3-0.4-0.1-1.2-0.1-1.5c0.1-0.3,0.5-0.6,1-0.5
				c0.5,0,0.4,0.3,0.9-0.2c0.5-0.5,0.6-1.1,0.7-1.5C20.4,14.6,20.5,14.8,20.5,14.8z"/>
			<path class="st5" d="M7.5,11.1c0.4-0.5-1.1-2.6-1.8-3.7S4.2,4.9,4.3,4c0.1-0.9,0.2-1.1,0.2-1.1S3.3,2.6,3.2,3.6
				C3.1,4.5,3.5,5.9,3.8,6.4c0.4,0.5,1.8,2.6,2,3.5C6.1,10.8,7.5,11.1,7.5,11.1z"/>
			<path class="st5" d="M11.7,9.2c0.4,0.7,0.8,1.2,1.5,1.3c0.5,0.1,0.9,0,1.4-0.1c0,0-0.8,1.1-2.4,0.4c0,0,1.1,0.6,1.3,0.6
				c0,0-0.1,0-0.2,0.1c-0.2,0.1-0.4,0.1-0.6,0.2c-0.8,0.3-1.5,0.5-2.2,0.9c-0.1,0.1-0.2,0.1-0.4,0.2c-0.1,0-0.2,0.1-0.2,0
				c0-0.1,0-0.1,0-0.2c0-0.1,0-0.2,0.1-0.3c0,0,0-0.1,0.1-0.1c0,0,0-0.1,0.1-0.1c0,0-0.3,0.2-0.4,0.4c0,0-0.5-0.9-0.3-2.3
				s-0.6,0.1-0.5,1c0,0.8,0.2,2,0.4,2.6c0.2,0.5,0.5,1,0.9,1.4c0.2,0.2,0.3-0.6,0.7-1.1c0.4-0.6,1.6-1.5,2.6-1.9
				c0.9-0.4,1.4-1,1.4-1s0.5-0.4,0.5-0.7c0-0.3-0.3-0.8-0.5-0.8c-0.2,0-0.3,0.2-0.5,0.3c-0.2,0.1-0.6,0.3-0.9,0.2
				c-0.3,0-1-0.4-1.1-0.6C12,9.2,11.7,9.2,11.7,9.2z"/>
			<path class="st5" d="M20.8,13.2c0.5,0.6,1.2,1.4,2.1,0.6c0,0-0.6,1.4-1.3,2L20.8,13.2z"/>
			<path class="st5" d="M22.8,10.1c0,0.5-0.3,1.1-0.6,1.4c-0.4,0.3-1.3,0.1-1.7,0.9c0,0-0.2-0.6-0.2-0.9c0-0.3-0.3-0.6,0.2-0.4
				c0.5,0.2,1.1,0.3,1.5,0c0.3-0.3,0.5-0.7,0.6-0.9C22.6,10.2,22.7,10.2,22.8,10.1z"/>
			<path class="st5" d="M28.3,8.5c0.2,0.7-0.3,1.2-0.7,1.9c-0.4,0.7-0.9,1.8-1.4,2.1c-0.6,0.4-1,0.2-1,0.2s0.7,1,0.8,1.2
				c0.1,0.1,0.7-0.9,1-1.3c0.4-0.8,0.9-1.6,1.5-2.3c0.4-0.4,0.6-1.2,0.4-1.5C28.7,8.6,28.5,8.5,28.3,8.5z"/>
		</g>
		<g id="Outline">
			<path class="st6" d="M18.8,22c-0.2,0.2-0.3,0.4-0.5,0.6c-0.2,0.2-0.5,0.4-0.7,0.6c-0.1,0.1-0.2,0.2-0.4,0.3c0,0-0.1,0.1-0.1,0.1
				c0,0-0.1,0.1-0.1,0.1c0.3,0,0.6-0.2,0.8-0.4C18.2,23,18.6,22.6,18.8,22z"/>
			<path class="st6" d="M28.8,8.3c-0.4-0.4-1-0.6-1.4-1c-0.8-0.5-1.5-1.2-2-2C25.3,5.2,25.1,5,25,4.9l0,0c-0.2-0.2-0.4-0.4-0.6-0.5
				c0.3,0.1,0.6,0.2,0.8,0.3c-0.1-0.3-0.4-0.5-0.7-0.6c-0.4-0.2-0.9-0.2-1.4,0c0-0.2-0.2-0.4-0.5-0.4c-0.5,0.1-0.9,0.7-1.5,0.5
				c-1-0.4-2-0.9-3.1-1.1c-1.4-0.3-2.9-0.3-4.4-0.3c-0.2-0.3-0.5-0.6-0.8-0.9c-0.3-0.5-0.5-1.1-1.1-1.2c-0.6-0.1-1.1,0.1-1.7,0.3
				C9.4,1.1,8.6,1.4,7.8,1.6C6.7,1.9,5.6,2.2,4.5,2.5c-0.5,0.1-1,0.3-1.4,0.6c-0.3,0.3-0.3,0.7-0.3,1c0,1.1,0.6,2.1,1.1,3
				c0.4,0.6,0.9,1.2,1.1,2c0.2,0.7,0.1,1.4,0.4,2.1c0.2,0.5,0.8,0.8,1.3,0.7c0.7-0.1,1.1-0.6,1.6-1.1c-0.1,0.7,0,1.4,0.2,2.1
				c0.3,0.9,0.8,1.7,1.4,2.5c-0.2,0.5-0.5,1.1-0.6,1.6c-0.2,0.6-0.5,1.1-0.8,1.6C8.2,19.3,8,20.1,8,21c0,1.3,0.3,2.6,1.1,3.7
				c0.7,1.1,1.5,2.1,2.3,3.1c0.4,0.5,0.9,1,1.4,1.4c-0.2-0.6-0.5-1.1-1-1.8c-0.2-0.3-0.5-0.6-0.7-0.9c0.9,0.7,1.9,1.3,2.6,2.3
				c0.4,0.6,0.5,1.3,0.6,1.9c0.2-0.9,0.6-1.8,0.9-2.7c-0.3,0.2-0.5,0.5-0.7,0.8c-0.2-1-0.1-2-0.6-2.9c-0.4-0.8-1-1.6-1.8-1.9
				c1,0.6,1.7,1.8,1.8,3c0,0.3,0,0.7,0,1c0,0-0.1-0.1-0.1-0.1c-0.6-0.7-1.4-1.2-2-1.7c-0.6-0.5-1.2-0.8-1.7-1.4
				c-0.7-0.7-1.1-1.7-1.2-2.7c-0.2-0.9-0.2-1.8,0.1-2.7c0.1-0.5,0.3-1,0.5-1.5c0,0.8,0.2,1.5,0.4,2.3c0,0.1,0,0.2,0.1,0.3
				c-0.3-1.1-0.2-3.4,0.1-4.2l0,0c0.1-0.2,0.2-0.4,0.3-0.5l0.1,0c0.3,0.2,0.6,0.4,1,0.6c0.2,0.6,0.8,2.5,2.5,2.9
				c0.5,0.7,1.2,1.1,2,1.3c-0.1,0-0.3,0.1-0.4,0.1c-0.5,0-0.8,0-0.8,0c0.6,0.1,1.2,0.1,1.8,0c0.1,0,0.1,0,0.2,0c0.2,0,0.5,0,0.7,0
				c-0.5,0.5-1.1,0.8-1.8,0.9c1.8,0,2-0.4,2.6-1.1c0.3-0.1,0.6-0.2,0.9-0.4c-0.1,0.5-0.5,1.2-0.8,1.5c0,0,0.8-0.3,1.6-1.8
				c0.2,0,0.3-0.1,0.5-0.2c0.3,0.2,0.3,0.7,0.3,0.7c0.1-0.3,0.1-0.6-0.1-0.9c0,0,0.1-0.1,0.1-0.1c0.5,0.5,0.6,1.4,0.6,1.4
				c0-0.6-0.1-1.3-0.4-1.7c0-0.1,0.1-0.1,0.1-0.2c0.2,0.3,0.4,0.7,0.5,1c0,0,0,0,0,0c0.2,0.8,0.2,1.6,0.1,2.4
				c-0.1,0.7-0.3,1.3-0.6,1.9c-0.1,0.3-0.3,0.5-0.6,0.7c0.5-1,0.8-2.1,0.8-3.3c-0.2,0.3-0.1,0.6-0.2,1c0,0.1,0,0.1,0,0.2
				c-0.1,0.4-0.2,0.8-0.4,1.3c-0.1,0.2-0.2,0.4-0.2,0.6c-0.2,0.5-0.6,1-1,1.4c-0.1,0.1-0.3,0.3-0.5,0.4c-0.2,0.1-0.3,0.2-0.3,0.3
				c-0.8,0.7-1.7,1.3-2.5,2.1c-0.7,0.7-1.3,1.4-1.7,2.2c0,0.1-0.1,0.2-0.1,0.3c1.4-1.9,2.5-2.4,3.4-3.2l0,0c0.4-0.3,0.7-0.6,1.1-0.9
				c0.4-0.3,0.8-0.7,1.3-1c-0.3,0.7-0.8,1.2-1.2,1.8c-0.1,0.2-0.3,0.4-0.4,0.6c0.7-0.7,2-2.1,2.9-3.3c0.4-0.7,0.7-1.4,0.9-2.1
				c0.3-1.2,0.1-2.4-0.4-3.6c-0.2-0.5-0.4-0.9-0.6-1.3c0.1-0.3,0.2-0.7,0.3-1.1c0-0.1,0-0.3,0-0.5c0-0.1,0-0.4,0.1-0.5
				c0.3-0.4,0.7-0.9,1-1.4c0.4-0.8,0.7-1.6,0.9-2.5c0.1-0.7,0.1-1.5,0.2-2.2c0.1-0.3,0.4-0.4,0.7-0.6c0.2,1,0.2,2.1,0.3,3.1
				c0.1,0.5,0.3,1,0.5,1.4c0.1,0.2,0.2,0.4,0.4,0.5c0.4,0,0.5-0.4,0.7-0.7c0.4-0.7,0.7-1.4,1.1-2c0.6-0.8,1.2-1.7,1.5-2.7
				C29.1,8.9,29.1,8.5,28.8,8.3z M8.5,9.1c-0.2,0.3-0.3,0.6-0.5,1c-0.1,0.2-0.2,0.3-0.3,0.5c-0.1,0.1-0.3,0.1-0.4,0
				c-0.2-0.1-0.4-0.3-0.5-0.5C6.6,9.9,6.5,9.6,6.3,9.4C5.9,8.8,5.6,8.1,5.2,7.5C4.6,6.8,3.9,5.9,3.7,5.1C3.4,4.2,3.3,3.5,4.3,3.1
				C4.9,3,5.5,2.8,6.1,2.6c0.5-0.2,1.1-0.4,1.6-0.4l0,0c0.4,0.1,0.8,0.4,1,0.8C8.9,3.3,9,3.8,9,4.2c0,0,0,0.1,0,0.1s0,0,0.1,0
				c0,0,0,0,0,0c0-0.1,0.1-0.2,0.1-0.3c0.3-0.8,0.5-1.7,1.1-2.4c0.3-0.4,0.8-0.7,1.4-0.6c0.3,0.3,0.4,0.7,0.4,1.1c0,0.4,0,0.7-0.2,1
				c0,0-0.1,0.1-0.1,0.1c-0.1,0-0.1-0.1-0.1-0.2c0-0.2,0-0.5,0-0.7c0-0.2,0.1-0.5,0-0.7c0-0.1-0.1-0.1-0.2-0.1
				c-0.2,0-0.3,0.2-0.4,0.4c-0.1,0.2-0.3,0.3-0.4,0.5c-0.3,0.5-0.5,0.9-0.8,1.4c-0.1,0.3-0.3,0.7-0.3,1C9.5,5.5,9.4,6.2,9.3,6.9
				c-0.2,0.7-0.4,1.4-0.7,2C8.5,9,8.5,9.1,8.5,9.1z M15.9,7.8c0-0.2,0-0.3,0-0.5c0-0.2,0-0.4-0.1-0.5c-0.1-0.3-0.2-0.5-0.4-0.7
				c-0.1-0.1-0.1-0.1-0.2-0.2c-0.1,0-0.1-0.1-0.1-0.1c0,0,0.1,0,0.2,0c0.1,0,0.3,0.1,0.4,0.2c0.1,0.1,0.2,0.2,0.2,0.3
				C16,6.4,16,6.7,16.1,6.9c0,0.1,0,0.3,0,0.4c0,0.5-0.1,1-0.2,1.6c0,0.2-0.1,0.3-0.3,0.4l0,0c0,0,0,0,0,0l0,0l0,0c0,0,0-0.1,0-0.1
				c0-0.1,0.1-0.2,0.1-0.2c0-0.1,0-0.2,0.1-0.2c0-0.1,0-0.2,0-0.2l0-0.1c0,0,0-0.1,0-0.1l-0.1,0.1l0,0c0,0,0,0,0,0c0,0,0,0,0,0.1
				c0,0.1-0.1,0.1-0.1,0.2c-0.1,0.2-0.1,0.3-0.2,0.5c0-0.1,0-0.2,0-0.3c0,0.1-0.1,0.2-0.2,0.3c0.1-0.1,0.1-0.3,0-0.4
				c0,0-0.1,0.2-0.1,0.2c0,0.1-0.1,0.1-0.2,0.2c0-0.1,0-0.2,0.1-0.3c0-0.1,0-0.2,0-0.4c0-0.4-0.1-0.7-0.4-1
				c-0.2-0.3-0.5-0.4-0.8-0.4c-0.3,0-0.6,0-0.8,0.1c0.3,0,0.6,0.1,0.9,0.3c-0.1,0-0.1,0-0.2,0c-0.1,0-0.1,0-0.2,0
				c-0.1,0-0.3,0-0.4,0c-0.5,0.1-0.9,0.4-1.2,0.7c-0.1,0-0.1,0.1-0.2,0.1l0,0c0,0,0,0,0-0.1c0.2-0.4,0.3-0.6,0.4-0.7
				c-0.1,0-0.1,0.1-0.2,0.1c-0.2,0.1-0.3,0.3-0.4,0.5c0,0.1-0.1,0.1-0.1,0.2l0,0l0,0c0,0.1-0.1,0.1-0.1,0.2c-0.2,0.1-1,0.5-1.3,0.5
				c-0.3,0-0.1-0.7,0-1.1C10,7.3,10.3,7,10.7,6.8l0,0c0.5-0.2,1-0.4,1.6-0.6c0.5-0.2,0.9-0.4,1.5-0.5c0.4-0.1,0.8,0,1.1,0.1
				c0.4,0.1,0.7,0.4,0.8,0.8c0,0,0,0,0,0c0,0.1,0,0.2,0.1,0.4c0.1,0.2,0.1,0.3,0.1,0.5C15.9,7.6,15.9,7.7,15.9,7.8L15.9,7.8z
				 M13.8,9.7c0.7-0.3,0.9-1.1,0.8-1.8c0.2,0.4,0.3,0.9,0.1,1.3c-0.2,0.3-0.4,0.6-0.7,0.7c-0.5,0.2-1,0-1.4-0.2
				C12.2,9.3,12,8.9,12,8.4c0.1,0.4,0.3,0.7,0.6,1C12.9,9.7,13.4,9.9,13.8,9.7z M13,7.8c0.4-0.2,0.7,0.5,0.4,0.7
				C12.9,8.7,12.6,8.1,13,7.8L13,7.8z M10.2,14.7c0,0-0.3-0.3-0.3-0.3c-0.2-0.2-0.3-0.4-0.4-0.7c-0.1-0.3-0.1-0.6-0.2-1
				c-0.1-1.1-0.1-2.4,0.6-3.4c0.3-0.5,0.9-0.7,1.5-0.7c0,0.1,0.1,0.1,0.1,0.2c0.1,0.1,0.1,0.3,0.2,0.4c0.4,0.6,1.2,0.9,1.9,0.9
				c0.3,0,0.6-0.1,0.8-0.2c0.1-0.1,0.2-0.2,0.3-0.3c0.2,0,0.2,0.2,0.3,0.4c0,0.1,0,0.2,0,0.3c0,0.1,0,0.2,0,0.3
				c-0.1,0.1-0.2,0.2-0.3,0.3c-0.3,0.3-0.8,0.3-1.2,0.3c-0.5,0-0.9-0.2-1.3-0.4c0,0,0,0-0.1,0c0,0,0,0.1,0.1,0.1
				c0,0,0.1,0.1,0.1,0.1c0.1,0.1,0.1,0.1,0.2,0.2c0.2,0.2,0.4,0.3,0.7,0.4c0.1,0,0.2,0,0.2,0.1c0.1,0,0.2,0,0.2,0
				c-0.7,0.6-1.6,0.9-2.4,1.6c-0.2,0.1-0.3,0.3-0.5,0.5c-0.1,0.1-0.2,0.2-0.3,0.4C10.4,14.2,10.3,14.4,10.2,14.7L10.2,14.7z
				 M13.2,18.5c-0.8-0.5-1.3-1.6-1.4-2.4c-0.1-0.8,0.1-1.7,0.1-1.7c0,0,0-0.1,0-0.2h0c-0.2,0.4-0.5,0.7-0.5,1.7
				c-0.1,0-0.1-0.1-0.2-0.1c-0.1,0-0.1-0.1-0.1-0.1c0-0.1-0.1-0.1-0.1-0.2c0-0.1,0-0.3,0.1-0.4c0-0.1,0.1-0.2,0.1-0.2
				c0,0.1,0,0.1,0,0.2c0,0.3,0.1,0.4,0.1,0.4s0-0.4,0.4-1.2c0.2-0.2,0.4-0.4,0.7-0.6c0.1-0.1,0.2-0.1,0.4-0.2
				c0.1-0.1,0.2-0.1,0.3-0.2c-0.7,0.2-1.4,0.7-1.8,1.3c-0.1,0.2-0.2,0.4-0.4,0.6c0,0.1-0.1,0.1-0.2,0.1c0,0,0-0.1,0-0.2
				c0-0.2,0-0.3,0.1-0.5c0.1-0.3,0.3-0.6,0.6-0.8c0.4-0.4,0.8-0.7,1.3-0.9c0.3-0.2,0.7-0.4,1-0.6c0.3-0.3,0.7-0.5,1.1-0.7
				c0.2-0.1,0.4-0.2,0.5-0.4c0.1-0.1,0.2-0.1,0.2-0.2c0,0,0.1-0.1,0.1-0.1c0,0,0.1-0.1,0.1-0.1c-0.1,0-0.2,0.1-0.3,0.1
				c-0.1,0-0.2,0.1-0.3,0.1c0.1-0.1,0.1-0.1,0.2-0.2c0.1,0,0.1-0.1,0.2-0.1c0.2-0.1,0.3-0.1,0.5-0.1c-0.1-0.1-0.2-0.2-0.4-0.2
				c0.1-0.1,0.3-0.2,0.4-0.2c0.1,0,0.3-0.1,0.4-0.2c0.1-0.1,0.3-0.2,0.4-0.4c0.4-0.5,0.7-1.1,0.8-1.7c0.1-0.5,0.2-1.1,0.1-1.6
				c0-0.2,0-0.3-0.1-0.5c0,0.4,0,0.9,0,1.3c0,0.6-0.2,1-0.5,1.5c-0.1,0.3-0.3,0.6-0.6,0.8c-0.2,0.1-0.5,0.2-0.7,0.2
				c0.2-0.1,0.3-0.3,0.4-0.5c0.1-0.2,0.1-0.3,0.2-0.5c0-0.1,0.1-0.3,0.1-0.4c0.1-0.4,0.1-0.7,0.1-1.1c0-0.4-0.1-0.8-0.3-1.1
				c-0.3-0.3-0.6-0.6-1-0.7c-0.2,0-0.4,0-0.6,0c-0.2,0-0.4,0-0.6,0.1c-0.4,0.1-0.8,0.2-1.2,0.3c-0.2,0.1-0.3,0.2-0.5,0.3
				c-0.3,0.2-0.7,0.3-1.1,0.5c-0.1,0-0.2,0-0.3,0.1c0,0,0.1-0.1,0.1-0.1l0.2-0.3c0.4-0.5,0.7-1.1,1.1-1.6c0.1-0.1,0.2-0.3,0.3-0.5
				c0-0.1,0-0.3-0.1-0.4c0,0,0,0-0.1-0.1c0,0,0.3-1.1,0.5-1.1s0.5,0.5,1,0.6c0.6,0.1,1.3,0.3,1.8,0.6C15.8,3.8,16,3.9,16.1,4
				c0.2,0.3,0.4,0.5,0.6,0.8C16.8,5,16.9,5.3,17,5.5c-0.1-0.5-0.3-0.9-0.5-1.3C16.3,4,16.1,3.9,16,3.7c0.2,0.1,0.4,0.3,0.6,0.5
				c0.4,0.4,0.6,1,0.7,1.5c0-0.1,0-0.2,0-0.3c-0.2-0.6-0.5-1.3-1-1.7c-0.2-0.2-0.5-0.3-0.7-0.4c0.3-0.1,0.6,0,0.9,0
				c0.9,0,1.7,0.3,2.5,0.5c0.8,0.3,1.6,0.5,2.4,0.8c0.6,0.3,1.4,0.8,1.4,1.5c0,0.2,0,0.4,0,0.6c-0.2-0.1-0.5-0.2-0.7-0.3
				c0.3,0.2,0.6,0.5,0.9,0.8c0,0,0,0.1,0,0.1c0,0.1,0,0.1,0.1,0.2c-0.1,0-0.1,0-0.2,0c-0.8-0.3-1.6-1.2-2.5-0.9
				c-0.3,0.1-0.5,0.4-0.7,0.7l-0.1,0c0,0,0.1-0.5,0.1-0.5c0-0.2,0-0.4,0-0.5c0-0.3,0-0.6-0.1-0.9c0-0.1-0.1-0.3-0.1-0.4
				c0-0.1,0-0.1-0.1-0.2c0,0-0.1-0.1-0.1-0.2c0.1,0.5,0.2,1,0.1,1.5c0,0.5-0.1,1-0.3,1.5c-0.1,0.4-0.2,0.8-0.2,1.2
				c0,0.4,0,0.8,0,1.3c0,0.7,0.2,1.4,0.3,2.1c0,0,0,0.1,0,0.1c0.1,0.4,0.2,0.7-0.1,0.7l0,0c-0.8-0.4-1.8-0.6-2.7-0.3
				c-0.2,0.1-0.4,0.2-0.6,0.3l0,0c-0.1,0.1-0.2,0.2-0.3,0.4c-0.1,0.2-0.2,0.4-0.2,0.7l0,0l0,0c0,0.3,0,0.6,0.1,0.9
				c0.2,0.9,0.5,1.4,1.8,2.2c0,0,0,0.4,0,0.4c0,0.1,0,0.3-0.1,0.4c-0.1,0.1-0.3,0.2-0.5,0.3c-0.2,0.1-0.4,0.1-0.6,0.2
				c-0.5,0.2-1.1,0.3-1.6,0.3C14.2,18.8,13.6,18.8,13.2,18.5z M16.9,13.1c0.7-0.3,1.5-0.1,2.1,0.2c0.4,0.2,0.9,0.5,1,1
				C19.2,13.4,18,13.2,16.9,13.1L16.9,13.1z M19.4,16.2C19.4,16.3,19.4,16.3,19.4,16.2c-0.1,0.1-0.1,0.1-0.2,0.1c-0.1,0-0.1,0-0.2,0
				c-0.1,0-0.1-0.1-0.1-0.1c0-0.2,0.2-0.2,0.4-0.2c0.1,0,0.1,0,0.1,0.1C19.4,16.1,19.4,16.2,19.4,16.2L19.4,16.2z M17,13.9
				c-0.1,0-0.3,0-0.4-0.1c0,0-0.1-0.1-0.1-0.1c0-0.1,0-0.2,0.1-0.3c0.1-0.1,0.3-0.1,0.4-0.1c0.2,0,0.5,0,0.7,0.1
				c0.1,0,0.1,0.1,0.1,0.2c0,0,0,0,0,0c0,0-0.1,0.1-0.1,0.1s-0.1,0-0.2,0.1C17.3,13.9,17.1,13.9,17,13.9L17,13.9z M17.3,15.5
				C17.3,15.6,17.3,15.6,17.3,15.5L17.3,15.5C17.3,15.6,17.3,15.6,17.3,15.5c-0.1,0-0.2,0-0.3,0c0,0-0.1-0.1-0.1-0.1
				c0,0,0-0.1,0-0.1c0,0,0,0,0,0c0.1,0,0.2,0,0.3,0C17.4,15.3,17.4,15.5,17.3,15.5L17.3,15.5z M16.9,15.8L16.9,15.8
				C16.9,15.8,16.8,15.8,16.9,15.8c-0.1,0-0.2,0-0.2-0.1c0,0,0-0.1,0-0.1c0,0,0,0,0,0c0,0,0.1,0.1,0.2,0.1
				C16.8,15.6,16.9,15.7,16.9,15.8z M18.3,19.9c0,0-0.1,0-0.1,0l0,0c-0.1,0-0.2,0.1-0.3,0.1c-0.1,0-0.2,0-0.4,0.1
				c-0.7,0.1-1.5,0-2.1-0.3c-0.1-0.1-0.3-0.1-0.4-0.2c-0.1,0-0.1-0.1-0.2-0.1c-0.1-0.1-0.2-0.1-0.4-0.2c0,0-0.1-0.1-0.1-0.1
				c0.3,0.1,0.6,0.1,1.3-0.1c0.3-0.1,0.6-0.2,1-0.3c0.3-0.1,0.6-0.2,0.9-0.2c0.3,0.5,0.7,0.9,1.2,1.2l0,0L18.3,19.9z M20.6,18.8
				c-0.3,0.4-0.7,0.8-1.2,0.7c-0.2,0-0.3-0.1-0.5-0.2l0,0c-0.2-0.1-0.5-0.3-0.6-0.5l0,0c-0.2-0.3-0.4-0.6-0.5-0.9l0.2-0.9
				c0.2,0,0.3,0,0.5,0c0.1,0,0.3-0.1,0.4-0.1l0,0c0.4-0.1,0.9-0.4,1.1-0.8l0-0.1c0.1-0.3,0.3-0.6,0.4-0.8c0.1-0.2,0.2-0.4,0.2-0.6
				c0,0,0-0.1,0-0.1l0,0c0.1-0.9-0.6-1.6-0.8-2.2c-0.1-0.5-0.3-1-0.3-1.4c0.2,0.5,0.4,1,0.7,1.5c0.6,1.1,1,2.3,1.1,3.5
				C21.3,16.9,21.2,18,20.6,18.8L20.6,18.8z M22.2,10.5c0.1-0.3,0.2-0.6,0.2-1c0.1,0.4-0.1,0.9-0.3,1.3c-0.1,0.2-0.4,0.4-0.7,0.5
				c0,0-0.1,0-0.1,0c-0.2,0-0.4,0-0.6-0.1c-0.2-0.1-0.4-0.2-0.6-0.4c0,0,0-0.1-0.1-0.1c0,0,0,0,0-0.1c0,0,0-0.1,0-0.1
				c0.2,0.2,0.3,0.4,0.5,0.5C21.1,11.3,21.9,11.1,22.2,10.5L22.2,10.5z M20.6,9.8c0.1-0.1,0.2-0.1,0.3,0c0,0,0,0.1,0,0.1
				c0,0.1-0.1,0.1-0.2,0.1c0,0-0.1,0-0.1,0C20.6,9.9,20.6,9.9,20.6,9.8L20.6,9.8z M21.5,9.4L21.5,9.4c0-0.1,0.2-0.1,0.2-0.1
				c0.1,0,0.3,0,0.3,0.1c0,0.1,0,0.1,0,0.2c0,0,0,0.1-0.1,0.1C21.8,9.8,21.5,9.6,21.5,9.4L21.5,9.4z M23,9.3L23,9.3
				C22.9,9.3,22.9,9.3,23,9.3c-0.2-0.2-0.3-0.4-0.5-0.5c-0.2-0.1-0.4-0.2-0.6-0.3c-0.3-0.1-0.6,0-0.6,0c0.2,0.1,0.3,0.1,0.5,0.2l0,0
				c0.2,0,0.3,0.1,0.5,0.2c0.2,0.2,0.8,0.8,0.9,1.1l0,0c0.2,0.4,0.1,1,0,1.3c-0.1,0.3-0.5,0.6-0.8,0.8l0,0l0,0
				c-0.1,0.1-0.2,0.1-0.3,0.2c-0.1,0-0.1,0.1-0.2,0.1c0,0-0.1,0.1-0.2,0.1c0.3,0,0.6-0.2,1-0.2c0.1,0,0.1,0,0.2,0
				c0.1,0.1,0.1,0.2,0.1,0.3c0,0.4-0.2,1.2-0.5,1.8c-0.2,0.5-0.5,0.9-0.8,1.3c0,0-0.1-0.7-0.3-1.3h0v0c-0.1-0.2-0.1-0.4-0.2-0.6v0
				c0-0.1-0.1-0.1-0.1-0.2c-0.1-0.3-0.3-0.7-0.4-1c-0.1-0.1-0.1-0.2-0.2-0.3c0-0.2,0.1-0.3,0.2-0.4c-0.1,0-0.2,0.1-0.3,0.2
				c0-0.1-0.1-0.2-0.1-0.4l0-0.1c0,0,0.1,0,0.1,0c0.7,0.2,1.6,0,1.9-0.6c0.3-0.6,0.6-0.5,0.7-0.6c0.1-0.1,0-0.3-0.1-0.5
				c0-0.1-0.1-0.1-0.1-0.2c0,0,0,0,0,0c0-0.1-0.1-0.1-0.1-0.2c-0.3-0.4-0.7-0.7-1.1-0.7c-1.3,0.1-2,1.7-2,1.7s0-0.1,0-0.2
				c0.1-0.2,0.2-0.4,0.4-0.6c-0.2,0.1-0.3,0.2-0.4,0.4c0-0.1,0-0.1,0-0.2C19.6,9.4,19.7,9,20,8.8c-0.2,0.1-0.3,0.2-0.4,0.3
				c0,0.1-0.1,0.1-0.1,0.2c0-0.2,0-0.3,0-0.5c0.1-0.6,0.2-0.9,0.7-1.2c0.1-0.1,0.2-0.2,0.3-0.2c0.2-0.1,0.3-0.1,0.5-0.1
				c0.1,0,0.3,0,0.4,0c0.2,0,0.4,0.1,0.5,0.2c0.1,0,0.2,0.1,0.2,0.1c0.2,0.1,0.4,0.4,0.7,0.5c0.2,0.2,0.4,0.3,0.4,0.6
				c0.1,0.2,0.1,0.4,0.1,0.6C23.4,9.6,23.1,9.5,23,9.3L23,9.3z M24.3,6.2c-0.3-0.6-0.2-0.9-0.2-0.9c0.2,0.3,0.6,1.2,0.7,2.2
				C24.8,7.5,24.5,6.8,24.3,6.2z M25.2,9.2c0,0.2,0,0.5-0.1,0.7c0-0.1,0-0.2,0-0.3c0-0.6,0-1.1-0.1-1.7c0-0.4-0.1-0.8-0.2-1.2
				c-0.1-0.4-0.2-0.7-0.4-1.1c-0.1-0.3-0.3-0.6-0.5-0.8c-0.1-0.1-0.2-0.1-0.4-0.1c-0.1,0-0.1,0.1-0.2,0.1c0.1,0,0.2,0,0.3,0.1
				c-0.2,0-0.5,0.1-0.6,0.3c0-0.2,0.1-0.4,0.2-0.6c0.1-0.2,0.2-0.3,0.4-0.3c0.4,0,0.7,0.4,0.8,0.7c0.3,0.5,0.5,1,0.6,1.5
				c0,0.2,0.1,0.4,0.1,0.6c0.1,0.4,0.1,0.9,0.1,1.3C25.2,8.8,25.2,9,25.2,9.2z M28.5,9.3c-0.2,0.6-0.8,1.1-1.2,1.9
				c-0.3,0.8-1.1,1.9-1.3,2c-0.2,0.2-0.7-0.2-0.8-1.8c0-0.6,0-1.2,0.1-1.8c0-0.3,0.1-0.6,0.2-0.8c0.1-0.3,0.6-0.4,0.8-0.5
				c0.1,0,0.2,0,0.3,0c0.1,0,0.2,0.1,0.3,0.2l0.3,0.3c0,0,0,0,0.1,0.1c0,0,0,0,0.1,0c0.1,0,0.2-0.1,0.4-0.2
				C28.3,8.2,28.7,8.9,28.5,9.3L28.5,9.3z"/>
			<path class="st6" d="M17.3,7.4c0.1-0.3,0.1-0.7,0.1-1C17.3,6.7,17.3,7.1,17.3,7.4C17.2,7.5,17.3,7.4,17.3,7.4z"/>
			<path class="st6" d="M13.9,15.2c0-0.1-0.2-0.3-0.3-0.3c-0.1,0-0.2,0-0.2,0.1c-0.1,0.1-0.1,0.2,0,0.3c0.1,0.1,0.2,0.2,0.3,0.1
				C13.7,15.4,13.9,15.3,13.9,15.2z"/>
			<path class="st6" d="M14.3,15.6c-0.1,0-0.3,0.1-0.3,0.3c0,0.2,0.3,0.4,0.5,0.2c0.1,0,0.1-0.1,0.1-0.2
				C14.6,15.8,14.4,15.6,14.3,15.6C14.3,15.6,14.3,15.6,14.3,15.6z"/>
			<path class="st6" d="M20.3,16.7c-0.1,0-0.3,0.1-0.3,0.3c0,0.2,0.3,0.4,0.5,0.2c0.1,0,0.1-0.1,0.1-0.2
				C20.6,16.9,20.5,16.7,20.3,16.7C20.3,16.7,20.3,16.7,20.3,16.7z"/>
			<path class="st6" d="M19.1,18.1c-0.1,0-0.3,0.1-0.3,0.3c0,0.2,0.3,0.4,0.5,0.2c0.1,0,0.1-0.1,0.1-0.2
				C19.4,18.2,19.3,18.1,19.1,18.1C19.1,18.1,19.1,18.1,19.1,18.1z"/>
			<path class="st6" d="M20,17.9c-0.2,0.1-0.1,0.5,0.1,0.5c0.1,0,0.2,0,0.2,0c0.1-0.1,0.1-0.3,0-0.4l0,0
				C20.3,17.8,20.1,17.8,20,17.9z"/>
			<path class="st6" d="M13,15.9c-0.1,0.1-0.2,0.2-0.2,0.3c0,0.2,0.3,0.3,0.5,0.1C13.5,16.1,13.2,15.7,13,15.9z"/>
			<path class="st6" d="M14,16.8c-0.1,0-0.4,0-0.4,0.2c0,0.1,0,0.1,0,0.2c0.1,0.3,0.5,0.3,0.6,0.1C14.4,17,14.2,16.8,14,16.8z"/>
			<path class="st6" d="M12.3,21.5c0.2,0.4,0.5,0.7,0.8,1c0.3,0.3,0.7,0.5,1.1,0.5c0,0-0.1-0.1-0.1-0.1c0,0-0.1-0.1-0.1-0.1
				c-0.1-0.1-0.2-0.2-0.3-0.2c-0.2-0.2-0.4-0.5-0.6-0.8c-0.2-0.4-0.4-0.7-0.5-1.1c-0.1-0.3-0.2-0.6-0.3-1c0,0.5,0,1,0.2,1.5
				c-0.1-0.2-0.2-0.4-0.3-0.6c-0.1-0.2-0.2-0.4-0.2-0.6c-0.1-0.4-0.3-0.7-0.3-1.1c0-0.1,0-0.3-0.1-0.4c0,0.2,0,0.5,0,0.7
				c0,0.1,0,0.2,0,0.3C11.7,20.2,12,20.8,12.3,21.5L12.3,21.5z"/>
			<path class="st6" d="M16.5,25.1c0-0.3,0-0.6-0.2-0.8c0.1,0.7,0,1.4-0.1,2.1C16.5,26,16.5,25.6,16.5,25.1z"/>
			<path class="st6" d="M16.2,27.4c-0.3,0.4-0.6,0.7-0.9,1.1c-0.2,0.2-0.4,0.5-0.3,0.9c0.2-0.1,0.4-0.3,0.6-0.5
				c0.2-0.2,0.5-0.4,0.6-0.7c0.1-0.3,0.2-0.6,0.2-0.9C16.3,27.3,16.2,27.3,16.2,27.4z"/>
			<path class="st6" d="M16.2,21c-0.9,0.3-1.9,0.2-2.3-0.2c0.3,0.4,0.8,0.6,1.2,0.6C15.9,21.4,16.2,21,16.2,21z"/>
			<path class="st6" d="M9.6,22.9c0,0,0.4,1.1,1.1,1.8c0.6,0.7,1.9,1.2,2.6,2.2c-0.1-0.4-0.3-0.8-0.6-1.1c-0.4-0.5-0.9-0.6-1.5-1.1
				C10.5,24.1,9.6,22.9,9.6,22.9z"/>
			<path class="st6" d="M20.6,8.5C20.6,8.5,20.6,8.5,20.6,8.5c-0.1,0-0.1,0-0.2,0.1C20.3,8.6,20.1,8.8,20,9c0.1-0.1,0.3-0.2,0.5-0.3
				c0.3-0.1,0.5-0.1,0.8-0.2c0,0,0.1,0,0.1,0C21.2,8.4,20.9,8.4,20.6,8.5z"/>
		</g>
	</g>
</g>
</svg>
