<svg id="Capa_1" data-name="Capa 1" xmlns="http://www.w3.org/2000/svg" viewBox="0 0 201.69 310.72"><defs><style>.cls-1{fill:#c0c952;}.cls-2{fill:#e0ea6f;}.cls-3{opacity:0.4;}.cls-4{fill:#758017;}.cls-5{fill:#934d35;}.cls-6{fill:#5e3321;}.cls-7{fill:#fffcea;}.cls-8{fill:#ede9cc;}.cls-9{fill:#fff;}.cls-10{fill:#f4958c;}.cls-11,.cls-12{fill:#f5f4f0;}.cls-12{isolation:isolate;font-size:5.75px;font-family:Vanilla;}.cls-13{fill:#d86666;}.cls-14{fill:#a3523d;}.cls-15{fill:#381d14;}.cls-16{fill:#ba5e45;}</style></defs><g id="OBJECTS"><path class="cls-1" d="M488.4,393.1c.1,7.2-42.3,13.3-94.5,13.7s-94.7-5-94.8-12.2,42.3-13.3,94.5-13.7S488.4,385.9,488.4,393.1Z" transform="translate(-297.09 -96.1)"/><path class="cls-1" d="M464.5,379.5c2.2-1.4,6.3-3.7,6.2-6.8-.1-3.9-5.9-1.9-7.6-1a23.35,23.35,0,0,0-8.6,7.3c1-3,2-6,3.1-9a1.42,1.42,0,0,0,.2-.6c4-1.1,8.2-1.5,11.5-4.2,1.2-.9,4-4.4,1.4-5.5-2.3-.9-5.5,1-7.5,2.1a19.92,19.92,0,0,0-3.3,2.4c.7-1.7,1.5-3.4,2.2-5h.3c1.3-.4,2.7.3,4.1-.1a14.4,14.4,0,0,0,3.9-2c1.1-.8,3-3.3,1.1-4.3-1.5-.9-3.9.9-5.1,1.6a19.1,19.1,0,0,0-3.2,2.4c.6-1.3,1.2-2.5,1.8-3.8h.3c1.6-.8,2.6-3.1,3.8-4.4s2.4-2.6,2.7-4.5a.62.62,0,0,0-.5-.8h-.1c-4.5,0-5.8,5.4-6.5,9v.1h0c-1,1.8-2,3.5-2.9,5.3a.55.55,0,0,0-.3.5l-.8,1.4a7.85,7.85,0,0,0-.9-5.6c-.9-1.5-2.8-2-3.6-.1-.7,1.6,0,3.6.7,5,.4.9,1.5,2.7,2.7,2.9-.7,1.3-1.3,2.7-2,4a8.81,8.81,0,0,0-1.5-4.9c-.7-.9-2.7-3.1-4-1.9-2.7,2.5,2.4,7.3,4.6,8.6-.3.6-.5,1.1-.8,1.7-.8,1.8-1.5,3.6-2.2,5.5a15,15,0,0,0-2.5-8.7c-1.1-1.7-4.4-4.3-6.4-2.3s-1,5.6.1,8c1.5,3.1,4.3,5.6,7.8,5.5l-.5,1.4c-1.2,3.4-2.5,7.5-2.3,11.1,0,.5.8.8,1,.3a61.36,61.36,0,0,0,2.2-7.3C457.5,383.3,460.8,381.7,464.5,379.5Z" transform="translate(-297.09 -96.1)"/><path class="cls-1" d="M498,386.5c-4.2.3-9.9,2.2-13.5,5.4a55.08,55.08,0,0,1,4.1-4.3c2.8-2.6,6.2-4,9.4-6a.65.65,0,0,0,.2-.9.61.61,0,0,0-.7-.3c-5.5,1.1-10.1,5.4-13.3,10.1,1.3-2.6,2.9-5,4.3-7.5a20.85,20.85,0,0,1,8.8-8.6.54.54,0,0,0-.4-1c-3.8,1.1-6.5,4.1-8.5,7.4a56.92,56.92,0,0,0-6.2,13.2,10.91,10.91,0,0,1-.6,1.1c-.1.1,0,.2.1.3h.2c0,.1.1.2.2.1a.1.1,0,0,0,.1-.1,23.83,23.83,0,0,1,8.2-5c2.7-1,5.6-1.4,8.1-2.7a.78.78,0,0,0,.1-1.1C498.4,386.7,498.2,386.5,498,386.5Z" transform="translate(-297.09 -96.1)"/><path class="cls-1" d="M479.1,377.9a.49.49,0,0,0,.1-.7.48.48,0,0,0-.6-.2,39.62,39.62,0,0,0-13.9,10.8,77.65,77.65,0,0,1,17-17.8c.7-.6-.2-1.5-.9-1.2-9.2,4.3-15,13.8-19,22.8L461,393c-.1.2.2.4.3.2l.2-.2a.1.1,0,0,0,.1-.1c0-.1.1-.1.1-.2A91.48,91.48,0,0,1,479.1,377.9Z" transform="translate(-297.09 -96.1)"/><path class="cls-1" d="M323.3,375.9a16.94,16.94,0,0,0-6.8,7.7,34.67,34.67,0,0,0,1-8.5,20.85,20.85,0,0,0,9.9-6.3c1.4-1.7,2.8-5,.5-6.5-1.7-1.2-4.8.8-6.2,1.8a12.52,12.52,0,0,0-4.5,5.9c-.2-1.5-.4-3-.7-4.5,3.2-2,6.6-3.9,7.8-7.7.6-1.8,1.4-4.4-.4-5.7-2-1.5-4.5,2-5.4,3.2a16.47,16.47,0,0,0-2.9,6.3c-.3-1.2-.8-2.4-1.2-3.6,1-1.4,2.3-2.4,3.2-3.9a11.15,11.15,0,0,0,1.4-4.7c.1-1.4-.3-4.5-2.3-4.2-1.5.2-2.4,3.2-2.8,4.4a15.81,15.81,0,0,0-1,4.8,19.23,19.23,0,0,0-1.8-3.1c.9-2.7,2.1-5.4,1.5-8.3-.2-1-1.5-3.3-2.8-1.9s-1,3.5-.8,5.2a10.9,10.9,0,0,0,.3,2.6,22.18,22.18,0,0,0-3.8-3.7v-.1c.1-2-1.9-3.2-3.4-4.2-1.1-.7-3.1-2.2-4.4-1.2-1.5,1.1.1,3,1.2,3.7,1.8,1.2,3.9,1.5,5.8,2.3h.3a29.07,29.07,0,0,1,3.3,3.7,7.79,7.79,0,0,0-3.7-.3c-1.3.2-3.9.7-3.4,2.6.7,2.5,6.5,1.2,8.8.3a50.43,50.43,0,0,1,2.6,5.2,9.31,9.31,0,0,0-4-1.2c-1.8-.2-4.4-.2-5.1,1.9s2.1,3.9,3.7,4.5c2.1.8,5.1,1.5,7.1.1l.3.9a51.3,51.3,0,0,1,1.3,6.6,8.93,8.93,0,0,0-5.2-4.7c-2.3-.7-6.5-.1-6.1,3.2.3,2.6,3.5,4.4,5.4,5.6,1.7,1,4.3,2.4,6.3,1.7a26.2,26.2,0,0,1-.1,2.8,20.75,20.75,0,0,1-1.1,5.4,18.61,18.61,0,0,0-6.9-9c-2-1.5-7.5-4.5-9.3-1.1-1.6,3,1.1,6.3,3.1,8.5,2.4,2.6,7.4,6.4,11.5,6-.7,1.6-1.4,3.2-2,4.8-.2.5.6.8.8.4a25.67,25.67,0,0,0,2.7-5.2,29.65,29.65,0,0,0,6.5-1.7,26.33,26.33,0,0,0,5.6-3.8c1.7-1.3,6.2-5.3,3.8-7.9C328.8,372.9,325.3,374.8,323.3,375.9Z" transform="translate(-297.09 -96.1)"/><path class="cls-1" d="M345.9,353.2a133.72,133.72,0,0,1-1.5,18.9c-.1.8-.2,1.5-.3,2.3-.4-2.5-1-5-1.5-7.3a94.94,94.94,0,0,0-8.4-23.8c-.1-.2-.4,0-.3.1a94.14,94.14,0,0,1,6.1,22.1c.6,3.5.9,7.1,1.2,10.7-.2-1-.4-1.9-.5-2.8a103,103,0,0,0-6.4-21.8m-.2,0a117.81,117.81,0,0,1,3.6,20.4c-.3-1.1-.7-2.2-1.1-3.4-2.4-7.3-4.5-16.9-10.3-22.4h0c5,5.5,6.5,14.7,8.1,21.8a112.24,112.24,0,0,1,2.5,12.6c.4,3.6-.1,7,0,10.5a1.17,1.17,0,0,0,1.1.9.76.76,0,0,0,.5-.2l.4-.4a.83.83,0,0,0,1,.5,1.38,1.38,0,0,0,.4-.3c.2-.4.4-.8.6-1.3a.81.81,0,0,0,1.1.5.76.76,0,0,0,.4-.2.91.91,0,0,0,.8-.4c3.4-4.3,3.7-10.2,3.8-15.5a154,154,0,0,0-.6-21.5.32.32,0,0,0-.3-.3.45.45,0,0,0-.3.3h0Z" transform="translate(-297.09 -96.1)"/><path class="cls-1" d="M492.3,381.5c-3-.8-5.9-.1-8.7,1a9.82,9.82,0,0,0,3.9-5.6c.5-2.6-3.8-.8-4.6-.4-4.5,2-8.3,6-11.5,9.6a22.85,22.85,0,0,0-5.9,12.4l-.1.1a.21.21,0,1,0,.3.3c2-1.7,4.4-2.7,6.6-4a46.57,46.57,0,0,1,8.5-4.6c3.8-1.4,8.3-2.3,11.6-4.8C493.8,384.1,494.8,382.1,492.3,381.5Z" transform="translate(-297.09 -96.1)"/><path class="cls-2" d="M420.8,402.5c-40-.5-79.4-4.6-118.8-11.1-1.9,1-2.8,2.1-2.8,3.2.1,7.2,42.5,12.6,94.8,12.2,45.1-.4,82.8-5,92.2-10.9C466.2,402.8,442.4,402.9,420.8,402.5Z" transform="translate(-297.09 -96.1)"/><g class="cls-3"><path class="cls-4" d="M314.4,386.8c-4.2,7.2,4,9.3,9.6,9.8a42.51,42.51,0,0,0,13.3-.6,13.77,13.77,0,0,0,5.8-3.2c2.5-2,2.4-3.9,2.7-6.8l-4,.5c1.2,4.7,7,2.4,10.4,2.2-.5-1.3-1.1-2.5-1.6-3.8-4.5,4.2,1,7.4,5,8.4a34.69,34.69,0,0,0,23.9-2.6h-4.9c4.3,2.2,8.7,2.6,13.5,2.5,6.2-.1,12.5,0,18.7-.3l-4.6-4.6c.5,6.3,7.8,7.3,13.1,7.9s40.2-1.5,45.3-3.6c5.4-2.2-25.2-7.3-30.6-4.9-2.3,1-7.6.8-10.7.7a36,36,0,0,1-6.6-.6c-.8-.2-1.5-.4-2.2-.6-.5-.2.8,2.3.9,1.2.3-2.6-2.3-4.5-4.6-4.6-5.7-.3-11.5-.3-17.2-.2a44.14,44.14,0,0,1-7.3-.3c-2.3-.4-3.9-2.1-6.4-1.5-2.7.8-5.2,2.3-8,3a45.17,45.17,0,0,1-6.4,1.2c-1.3.2-2.6.3-3.9.4-.9,0-1.8.1-2.7.1-2.6,0,.1-.5-.6,1.1.6-1.4-.1-3.6-1.9-3.4a18.43,18.43,0,0,0-2.5.5l-1.8.4c-1.6.4-1.6,0-2.2,1.4.7-1.9-2-3.4-3.4-2-1.8,1.9-2.5,3.9-4.9,5.3-2.9,1.7-7.1,1.3-10.3,1.3-3.8,0-12.8,2.6-11.7-4a.5.5,0,0,0-.5-.6c-.4-.1-.6,0-.7.3Z" transform="translate(-297.09 -96.1)"/></g><g class="cls-3"><path class="cls-4" d="M417.7,392.1c-4.4,8.1,17.2,7.7,20.8,7.8a221.1,221.1,0,0,0,30.4-1.5c5.5-.8,5.9-6.2.5-9.4a1.54,1.54,0,0,0-2.2.5c-.1.1-.1.2-.2.3-1.2,3.3-9.5,2.2-12.3,2.4-5.6.3-11.2.6-16.9.8-3.5.1-7.1.1-10.6.1-2.5,0-6.8.6-8.9-1-.2-.2-.5-.2-.6,0Z" transform="translate(-297.09 -96.1)"/></g><path class="cls-5" d="M428.3,352.9s8.7.6,15.8-8.6,1.2-19-5-21c-1.6-.5,3.2,3.8,1.4,10.1s-9.4,11.4-15.3,12.3Z" transform="translate(-297.09 -96.1)"/><path class="cls-6" d="M442.9,325.6a11.18,11.18,0,0,1,1.8,6.6c-.2,4.1-2.1,7.4-4.6,10.8-1.1-.9-2.3-2.3-3.7-3.4a21.52,21.52,0,0,1-11.3,6l3.2,7.2s8.7.6,15.8-8.6C449.5,337.1,447.2,329.5,442.9,325.6Z" transform="translate(-297.09 -96.1)"/><path class="cls-7" d="M343.3,318.3s-10,53.8-17.2,58.1-9.2,3.7-11.8,9,1.7,7.5,5.4,7.1c0,0,1.5,2.6,7.7,1.4a18.74,18.74,0,0,0,14.4-2.4c7.1-4.6,8-35.1,8-35.1Z" transform="translate(-297.09 -96.1)"/><path class="cls-6" d="M334.7,381.9c-3.5,1.5-6.3,5.3-7.8,8.6a22.85,22.85,0,0,0-1.2,3.7,10,10,0,0,0,1.6-.2l1.2.3a20.54,20.54,0,0,1,6.4-12.1C335.1,382,334.9,381.8,334.7,381.9Z" transform="translate(-297.09 -96.1)"/><path class="cls-6" d="M326.1,381.9c-3.9,2.1-7.9,5.9-8.8,10.5a6.47,6.47,0,0,0,2.4.1c.1.1.1.2.2.3a15.48,15.48,0,0,1,6.5-10.3c.1-.1.2-.3.1-.4S326.2,381.8,326.1,381.9Z" transform="translate(-297.09 -96.1)"/><path class="cls-8" d="M343.3,318.3s-1.1,5.9-2.8,14a16.72,16.72,0,0,1,2.2,6.5c.3,3.3-2.2,21.2,4.4,34.4.3.7.6,1.5.9,2.3a152.39,152.39,0,0,0,1.8-19.1Z" transform="translate(-297.09 -96.1)"/><path class="cls-6" d="M334.4,372.3c3.7-1.6,5-6.6,4.8-10.1-.2-2.8-1.5-6.3-3.9-7.9-2.1,7.6-4.3,14.6-6.4,18.6A8.13,8.13,0,0,0,334.4,372.3Z" transform="translate(-297.09 -96.1)"/><path class="cls-7" d="M358.1,377.5s-8.4,4.5-9.2,7.9,2.7,2.8,2.7,2.8,3.5,4.5,9.5,1.5c0,0,12.2,2.2,19.4-5.1Z" transform="translate(-297.09 -96.1)"/><path class="cls-8" d="M358.1,377.5a43.88,43.88,0,0,0-5.1,3.2c2.4,2.5,7.2,3.4,10,4.5,3,1.1,5.9,2.1,7.8,4.2a18.38,18.38,0,0,0,9.7-4.9Z" transform="translate(-297.09 -96.1)"/><path class="cls-6" d="M357.8,382.2c-3,.4-6.6,2.8-7.5,5.9a2.44,2.44,0,0,0,1.2,0l.6.6a8,8,0,0,1,1.1-2.5,8.49,8.49,0,0,1,4.7-3.6C358,382.5,358,382.2,357.8,382.2Z" transform="translate(-297.09 -96.1)"/><path class="cls-6" d="M364,384c-1.8.7-2.5,2.5-3.3,4.1a14.58,14.58,0,0,0-.7,1.9,4.67,4.67,0,0,0,1-.5l.8.1c.2-2.1.9-4.4,2.3-5.3C364.3,384.3,364.2,383.9,364,384Z" transform="translate(-297.09 -96.1)"/><path class="cls-8" d="M367.5,383.4c-4.2-1-8-2.9-12-4.5l-.8.5c6.5,4.9,14,6.9,21.9,7.9A18.5,18.5,0,0,0,380,385,75,75,0,0,1,367.5,383.4Z" transform="translate(-297.09 -96.1)"/><path class="cls-7" d="M379,281.9s18.3,47.9,30.4,64.3c0,0,17.1-17,27.2-1.9s-9,38.7-9,38.7,8.3,5.1.8,7.3c0,0,3,4.7-9.6,2.1,0,0-17.2,1.8-15.1-5,0,0-38.1,3.2-51.5-10.9s-5.3-32-7.8-50.8-4.6-45.6-4.6-45.6Z" transform="translate(-297.09 -96.1)"/><path class="cls-8" d="M431.6,367.2c-8,5.5-17.1,8.7-26.4,11.6-16,5-34.1,5.5-50.2.3,15.3,11.2,48.6,8.4,48.6,8.4C422.5,382.9,427.5,373.3,431.6,367.2Z" transform="translate(-297.09 -96.1)"/><path class="cls-6" d="M414.3,384h0a10.38,10.38,0,0,1,2.5,4.3,12.42,12.42,0,0,1,.4,3.3,2.92,2.92,0,0,1-.2.9c1.1-.1,1.8-.1,1.8-.1h0C419.2,389.4,416.4,385.5,414.3,384Z" transform="translate(-297.09 -96.1)"/><path class="cls-6" d="M429.5,389.9a8.56,8.56,0,0,0-2.3-3.3c-1.9-1.8-4.5-2.4-7-2.7-.1,0-.1.1,0,.2a13.27,13.27,0,0,1,5.9,3,6.38,6.38,0,0,1,1.6,2.9,10.55,10.55,0,0,0,.6,2.4,1.66,1.66,0,0,0,.1-2.1A7.6,7.6,0,0,1,429.5,389.9Z" transform="translate(-297.09 -96.1)"/><path class="cls-8" d="M358.7,328.3c2.5-4.2,1.7-9.2,3.4-13.2,2-4.5,8.7-8.1,12.9-10.4a57.31,57.31,0,0,1,11.4-4.8c-4.3-10.4-7.3-18.1-7.3-18.1L339.8,280s2,26.8,4.6,45.6a70.74,70.74,0,0,1,.5,11.3C350.4,335.9,355.5,333.4,358.7,328.3Z" transform="translate(-297.09 -96.1)"/><path class="cls-8" d="M374.8,332c-5.8,4.3-12.8,18.3-19,22.8s-8,9.7-5.4,12.9c0,0-2.5,6.5,6.8,6.5,0,0,2.6,4.5,10.1,0s12.4-24,18-25.6c0,0,13.3,8.7,19.1,4.9,2.2-1.5,3.5-4.9,3.6-9.1a187,187,0,0,1-10.8-19.6l.6,10.6C397.9,335.3,380.6,327.7,374.8,332Z" transform="translate(-297.09 -96.1)"/><path class="cls-6" d="M417.5,346.5c2.3,1.4,5.6,1.3,8.1.5a17.19,17.19,0,0,0,5.3-2.5,9.57,9.57,0,0,0,2.9-3.4c-6.4-5.8-14.5-2.3-19.5,1.1A7,7,0,0,0,417.5,346.5Z" transform="translate(-297.09 -96.1)"/><path class="cls-6" d="M379.7,302.6c-3.5,2.8-4.2,7-3.4,11.2s5.4,7.9,9.3,9.3a13.91,13.91,0,0,0,10.6-.6c-3.8-8-7.5-16.5-10.4-23.5a8.49,8.49,0,0,0-2.2.9A45.63,45.63,0,0,0,379.7,302.6Z" transform="translate(-297.09 -96.1)"/><path class="cls-7" d="M396.2,332.8s-17.4-7.5-23.1-3.3-12.8,18.3-19,22.8-8,9.7-5.4,12.9c0,0-2.5,6.5,6.8,6.5,0,0,2.6,4.5,10.1,0s12.4-24,18-25.6c0,0,13.3,8.7,19.1,4.9s5.5-21.8-7.2-30.1Z" transform="translate(-297.09 -96.1)"/><path class="cls-6" d="M359.4,364.7a17.47,17.47,0,0,0-4.6,7h.7a2,2,0,0,0,.9.9,25.75,25.75,0,0,1,3.2-7.9C359.7,364.7,359.5,364.6,359.4,364.7Z" transform="translate(-297.09 -96.1)"/><path class="cls-6" d="M355,360c-2.4-.1-5.2,1.8-6.9,4.2a3.59,3.59,0,0,0,.7,1,5,5,0,0,0-.3,2.4,32.39,32.39,0,0,1,1.7-3.2c1.1-1.6,2.8-3.6,4.8-3.9C355.3,360.4,355.2,360,355,360Z" transform="translate(-297.09 -96.1)"/><path class="cls-9" d="M368.8,339.2c4.2-6.6,10.1-8.1,17.8-7.2,3.3.4,6.5,1.1,9.8,1.7a3.55,3.55,0,0,0-.2-1c-1.2-.5-17.5-7.4-23.1-3.2-5.8,4.3-12.8,18.3-19,22.8a18.88,18.88,0,0,0-5.6,6,56.84,56.84,0,0,0,12.1-8.4C364,346.8,366.2,343,368.8,339.2Z" transform="translate(-297.09 -96.1)"/><path class="cls-6" d="M365.4,344.6c3.5,1.2,7.4-1.6,9.1-4.4,2-3.3,1.7-8.2-1.7-10.4-3.2,2.5-6.7,7.9-10.3,12.8A7.22,7.22,0,0,0,365.4,344.6Z" transform="translate(-297.09 -96.1)"/><path class="cls-5" d="M372.8,329.8c-3.2,2.5-6.7,7.9-10.3,12.8a8.3,8.3,0,0,0,2.7,1.9c1.2-1.7,2.3-3.5,3.5-5.3a15.32,15.32,0,0,1,6.6-6A6.12,6.12,0,0,0,372.8,329.8Z" transform="translate(-297.09 -96.1)"/><path class="cls-10" d="M424.9,96.1h31.6a14.4,14.4,0,0,1,14.4,14.4V383.9a14.4,14.4,0,0,1-14.4,14.4H424.9a14.4,14.4,0,0,1-14.4-14.4V110.5A14.4,14.4,0,0,1,424.9,96.1Z" transform="translate(-297.09 -96.1)"/><path class="cls-11" d="M447.7,130H436.5a1.46,1.46,0,0,1-1.3-1.6,1.4,1.4,0,0,1,1.3-1.3h11.2a1.46,1.46,0,0,1,.3,2.9Z" transform="translate(-297.09 -96.1)"/><path class="cls-11" d="M444.7,141.4h-8.1a1.1,1.1,0,0,1,0-2.2h8.1a1.1,1.1,0,1,1,0,2.2Z" transform="translate(-297.09 -96.1)"/><path class="cls-11" d="M447.7,154.8H436.5a1.46,1.46,0,0,1-1.3-1.6,1.4,1.4,0,0,1,1.3-1.3h11.2a1.46,1.46,0,0,1,.3,2.9Z" transform="translate(-297.09 -96.1)"/><path class="cls-11" d="M444.7,166.2h-8.1a1.1,1.1,0,1,1-.2-2.2h8.3a1.1,1.1,0,0,1,.2,2.2Z" transform="translate(-297.09 -96.1)"/><path class="cls-11" d="M447.7,179.6H436.5a1.46,1.46,0,0,1-1.3-1.6,1.4,1.4,0,0,1,1.3-1.3h11.2a1.46,1.46,0,0,1,.3,2.9Z" transform="translate(-297.09 -96.1)"/><path class="cls-11" d="M444.7,191h-8.1a1.1,1.1,0,1,1-.2-2.2h8.3a1.1,1.1,0,0,1,.2,2.2Z" transform="translate(-297.09 -96.1)"/><path class="cls-11" d="M447.7,204.4H436.5a1.46,1.46,0,0,1-1.3-1.6,1.4,1.4,0,0,1,1.3-1.3h11.2a1.46,1.46,0,0,1,.3,2.9A.19.19,0,0,1,447.7,204.4Z" transform="translate(-297.09 -96.1)"/><path class="cls-11" d="M444.7,215.8h-8.1a1.1,1.1,0,1,1,0-2.2h8.1a1.1,1.1,0,1,1,0,2.2Z" transform="translate(-297.09 -96.1)"/><path class="cls-11" d="M447.7,229.3H436.5a1.4,1.4,0,1,1,0-2.8h11.2a1.4,1.4,0,1,1,0,2.8Z" transform="translate(-297.09 -96.1)"/><path class="cls-11" d="M444.7,240.7h-8.1a1.1,1.1,0,0,1,0-2.2h8.1a1.1,1.1,0,1,1,0,2.2Z" transform="translate(-297.09 -96.1)"/><path class="cls-11" d="M447.7,254.1H436.5a1.4,1.4,0,1,1,0-2.8h11.2a1.4,1.4,0,1,1,0,2.8Z" transform="translate(-297.09 -96.1)"/><path class="cls-11" d="M444.7,265.5h-8.1a1.1,1.1,0,1,1,0-2.2h8.1a1.1,1.1,0,1,1,0,2.2Z" transform="translate(-297.09 -96.1)"/><path class="cls-11" d="M447.7,278.9H436.5a1.4,1.4,0,0,1,0-2.8h11.2a1.4,1.4,0,1,1,0,2.8Z" transform="translate(-297.09 -96.1)"/><path class="cls-11" d="M444.7,290.3h-8.1a1.1,1.1,0,1,1,0-2.2h8.1a1.1,1.1,0,1,1,0,2.2Z" transform="translate(-297.09 -96.1)"/><path class="cls-11" d="M447.7,303.7H436.5a1.46,1.46,0,0,1-1.3-1.6,1.4,1.4,0,0,1,1.3-1.3h11.2a1.46,1.46,0,0,1,.3,2.9Z" transform="translate(-297.09 -96.1)"/><path class="cls-11" d="M444.7,315.1h-8.1a1.1,1.1,0,0,1-.2-2.2h8.3a1.1,1.1,0,1,1,.2,2.2Z" transform="translate(-297.09 -96.1)"/><path class="cls-11" d="M447.7,328.6H436.5a1.46,1.46,0,0,1-1.3-1.6,1.4,1.4,0,0,1,1.3-1.3h11.2a1.46,1.46,0,0,1,.3,2.9Z" transform="translate(-297.09 -96.1)"/><path class="cls-11" d="M444.7,339.9h-8.1a1.1,1.1,0,1,1-.2-2.2h8.3a1.1,1.1,0,0,1,.2,2.2Z" transform="translate(-297.09 -96.1)"/><path class="cls-11" d="M447.7,353.4H436.5a1.46,1.46,0,0,1-1.3-1.6,1.4,1.4,0,0,1,1.3-1.3h11.2a1.46,1.46,0,0,1,.3,2.9Z" transform="translate(-297.09 -96.1)"/><path class="cls-11" d="M444.7,364.8h-8.1a1.1,1.1,0,1,1-.2-2.2h8.3a1.1,1.1,0,1,1,.2,2.2Z" transform="translate(-297.09 -96.1)"/><path class="cls-11" d="M447.7,378.2H436.5a1.4,1.4,0,0,1,0-2.8h11.2a1.4,1.4,0,0,1,0,2.8Z" transform="translate(-297.09 -96.1)"/><text class="cls-12" transform="translate(119.19 33.35)">150</text><text class="cls-12" transform="translate(118.93 57.27)">140</text><text class="cls-12" transform="translate(119.8 82.1)">130</text><text class="cls-12" transform="translate(119.66 106.92)">120</text><text class="cls-12" transform="translate(120.55 131.74)">110</text><text class="cls-12" transform="translate(119.92 156.56)">100</text><text class="cls-12" transform="translate(122.85 181.38)">90</text><text class="cls-12" transform="translate(122.91 206.2)">80</text><text class="cls-12" transform="translate(122.38 231.03)">70</text><text class="cls-12" transform="translate(122.57 255.85)">60</text><text class="cls-12" transform="translate(122.17 280.67)">50</text><path class="cls-13" d="M462.3,97.3a14.23,14.23,0,0,1,2.9,8.7V379.4a14.4,14.4,0,0,1-14.4,14.4H419.2a14.35,14.35,0,0,1-5.8-1.2,14.4,14.4,0,0,0,11.5,5.7h31.6a14.4,14.4,0,0,0,14.4-14.4h0V110.5A14.48,14.48,0,0,0,462.3,97.3Z" transform="translate(-297.09 -96.1)"/><path class="cls-5" d="M380.7,228.6c-2.8,2.5,17.1,55.6,24.5,59.8s10.8-6,10-20.3-.8-15.8-5.9-21.7-4-12-8.7-12.5C389.1,232.9,382.5,227,380.7,228.6Z" transform="translate(-297.09 -96.1)"/><path class="cls-6" d="M414.9,262.8c-6.8.5-14.2-1.7-17.9-6.5-3.3-4.4-5.3-10-8.1-14.8-2.6-4.3-4.5-11-7.1-13.1a1.13,1.13,0,0,0-1.1.3c-2.8,2.5,17.1,55.6,24.5,59.8s10.8-6,10-20.3Q415.05,265.05,414.9,262.8Z" transform="translate(-297.09 -96.1)"/><path class="cls-5" d="M339.7,228.2c-10.5,8.5-15.4,26.8-12.9,37.7s16.9,27.2,35.4,25,33.2-21.8,31.7-29.2-7.3-33-17.2-35.7S348.3,221.3,339.7,228.2Z" transform="translate(-297.09 -96.1)"/><path class="cls-14" d="M332.4,249.5c4.4-21.1,27.2-25.2,29.5-25.9-8.3-.5-17.1.4-22.3,4.7-10.5,8.5-15.4,26.8-12.9,37.7,1,4.3,3.8,9.4,8,13.9C333,270.5,330.5,258.7,332.4,249.5Z" transform="translate(-297.09 -96.1)"/><path class="cls-7" d="M345.8,231c-2.2,2.4,17.3,24.1,18.7,30.2s-3.9,23.4-1.9,29.9,16.8,8.8,23.2,5.4a15,15,0,0,0,7.3-10.3s11.5-1.6,12-7.8-.6-16.8-10.3-18.8-18.2.2-22.6-3.2S350,226.3,345.8,231Z" transform="translate(-297.09 -96.1)"/><path class="cls-9" d="M371.2,288.6c-3.3-2.8-3.3-6.2-2.3-10.1,1.2-5,1.9-9.3-.1-14.3-2.5-5.4-6.7-10-11-14.2,3.4,4.6,6.2,8.9,6.8,11.1,1.4,6.1-3.9,23.4-1.9,29.9s16.8,8.8,23.2,5.4a13.12,13.12,0,0,0,5.4-5.3,14.78,14.78,0,0,1-6.8,1.6A20.26,20.26,0,0,1,371.2,288.6Z" transform="translate(-297.09 -96.1)"/><path class="cls-8" d="M388.2,264.5c3.8.8,4.9,4.8,4.9,8.2a12.8,12.8,0,0,1-.9,4.8c-1,2.4-2.9,3.2-5,4.5a.75.75,0,0,0-.2,1c.1.2.2.3.4.3,14.1,4.8,12.5-24,.8-19.4a.3.3,0,0,0,0,.6Z" transform="translate(-297.09 -96.1)"/><path class="cls-5" d="M324.5,255.9c-2.9.2,5.1,16.1,1.6,24.6s-11.4,24.9-8.8,29.5,17.8,12.6,20.5,15.7,6.1,12,12.6,5.5,7-23.9,0-40S329.8,255.6,324.5,255.9Z" transform="translate(-297.09 -96.1)"/><path class="cls-6" d="M350.5,291.1c-7-16.1-20.7-35.5-26-35.2-.8,0-.8,1.3-.4,3.3,9.4,9.4,18.1,19.5,22.5,32.3,3.3,9.6,4.8,24.3-6.2,29.7a23.2,23.2,0,0,1-5.8,1.9,21.58,21.58,0,0,1,3.3,2.7c2.8,3.1,6.1,12,12.6,5.5S357.5,307.2,350.5,291.1Z" transform="translate(-297.09 -96.1)"/><path class="cls-14" d="M330.9,285.5c.9-6.1-1.6-12.2-4.8-17.8.9,4.4,1.4,9.2,0,12.7-3.5,8.5-11.4,24.9-8.8,29.5a9.56,9.56,0,0,0,2.3,2.6c1.2-4.8,2-9.2,4.5-13.7S330.2,290.6,330.9,285.5Z" transform="translate(-297.09 -96.1)"/><path class="cls-15" d="M347.4,264.6c-2.5,2-1.8,7.4.6,9.2.5.4,1-.3.8-.8a18.25,18.25,0,0,1-1.4-3.2,4.88,4.88,0,0,1,.5-3.9c2-3.5,5.3,1.1,6.8,2.5.2.2.4,0,.3-.3C353.8,265.4,350.4,262.3,347.4,264.6Z" transform="translate(-297.09 -96.1)"/><path class="cls-15" d="M385.2,247.1c-1.4-1.8-4-5-6.5-3s-2.9,6.3-.2,8.3c.7.5,1.4-.4,1.1-1.1a8.62,8.62,0,0,1-1.1-2.8,3.77,3.77,0,0,1,1.4-3.3c1.6-1.1,3.8,1.3,4.8,2.3C385.1,247.8,385.5,247.4,385.2,247.1Z" transform="translate(-297.09 -96.1)"/><path class="cls-15" d="M382.8,287.7c-2.1,2.2-4.8,4.4-7.9,2.6-2.2-1.2-2.8-4.6-3-6.9a.2.2,0,1,0-.4,0c-.1,3.1.4,6.4,3.1,8.4,3.4,2.5,7.4-.6,9-3.5a.49.49,0,0,0-.1-.7A.62.62,0,0,0,382.8,287.7Z" transform="translate(-297.09 -96.1)"/><path class="cls-6" d="M376,269.6a1.6,1.6,0,1,0,1.6,1.6h0A1.58,1.58,0,0,0,376,269.6Z" transform="translate(-297.09 -96.1)"/><path class="cls-6" d="M378.3,265.7a.86.86,0,0,0-1.2-.3l-.3.3h0a.78.78,0,0,0-.2.8.63.63,0,0,0,.6.5h.4a.9.9,0,0,0,.9-.9C378.4,266,378.4,265.9,378.3,265.7Z" transform="translate(-297.09 -96.1)"/><path class="cls-6" d="M372.4,271.2h0a1.25,1.25,0,0,0-1.2.3h0a1.09,1.09,0,0,0,0,1.5h0a1.13,1.13,0,0,0,1.1.3h.1a1.08,1.08,0,0,0,.7-1.4A1,1,0,0,0,372.4,271.2Z" transform="translate(-297.09 -96.1)"/><path class="cls-6" d="M379.7,268.6a.93.93,0,0,0-1.2.3,1.45,1.45,0,0,0-.1,1.1.57.57,0,0,0,.7.4h0a1.21,1.21,0,0,0,1-.8A1,1,0,0,0,379.7,268.6Z" transform="translate(-297.09 -96.1)"/><path class="cls-6" d="M382.2,263.6a1.2,1.2,0,1,0,1.2,1.2h0A1.29,1.29,0,0,0,382.2,263.6Z" transform="translate(-297.09 -96.1)"/><path class="cls-6" d="M372.9,265.3h0a1.21,1.21,0,0,0-1.4.2h0a1.2,1.2,0,0,0,1.7,1.7.55.55,0,0,0,.3-.5A1.28,1.28,0,0,0,372.9,265.3Z" transform="translate(-297.09 -96.1)"/><path class="cls-6" d="M384.1,261.4h0a.53.53,0,0,0-.7.4v.1a.47.47,0,0,0,.5.5h.1c.3-.1.5-.3.4-.6S384.3,261.4,384.1,261.4Z" transform="translate(-297.09 -96.1)"/><path class="cls-6" d="M376.2,262.9h0a.79.79,0,0,0,1.3-.9l-.3-.3a1.06,1.06,0,0,0-1.2-.1.65.65,0,0,0-.2.9l.1.1C376,262.8,376.1,262.8,376.2,262.9Z" transform="translate(-297.09 -96.1)"/><path class="cls-5" d="M374.8,278.9c-.4,2.4,10.9,5.5,14.2,4s6.9-5,6.5-10.1-3.9-10.4-7-9.2S375.5,274.7,374.8,278.9Z" transform="translate(-297.09 -96.1)"/><path class="cls-6" d="M395.5,272.8a13.56,13.56,0,0,0-2.7-7.3c-2,7.6-10.8,11.2-18,13.6,0,2.4,11,5.3,14.2,3.9A10.65,10.65,0,0,0,395.5,272.8Z" transform="translate(-297.09 -96.1)"/><path class="cls-16" d="M378.5,277.9c5.2-1.2,11.3-2.7,13.7-8,.7-1.5-1.3-3.4-2.4-1.9a46.21,46.21,0,0,1-11.4,9.7c-.1,0-.1.1-.1.2Z" transform="translate(-297.09 -96.1)"/></g></svg>