<svg id="Layer_1" data-name="Layer 1" xmlns="http://www.w3.org/2000/svg" viewBox="0 0 3367.29 1735.83"><defs><style>.cls-1{opacity:0.2;}.cls-2{fill:#390276;}.cls-3{fill:#ffad40;}.cls-4{fill:#fff3e9;}.cls-5{opacity:0.7;}.cls-6{fill:#fff;}.cls-7{opacity:0.25;}.cls-8{fill:#000072;}.cls-9{fill:#b199c5;}</style></defs><g class="cls-1"><ellipse class="cls-2" cx="1753.04" cy="1678.83" rx="1614.25" ry="57"/></g><path class="cls-3" d="M1939.41,2590A391.59,391.59,0,0,1,1892,2612.3c-215.3,86.13-702.95,120.6-1023.75,84.52-7.79,80.58-33.18,143.24-73.72,190.48A61.15,61.15,0,0,1,748,2908.85H674.3a51.21,51.21,0,0,1-41.64-21c-34.9-48.55,12.25-78.55,37.38-116.55,28.56-43.3-26-78.76-26-78.76-110.74-77-122.83-141.89-122.83-209.38s-23-108.51-23-108.51c-54,9.87-104,9.71-147.81,1.14-110.58-21.49-181.71-96-180-195.1A215.66,215.66,0,0,1,173,2151.1c3.43-21.86,19.32-39.67,40.29-46.57l159-52.28.05-.05,2.55-.83c29.85-43.93,62.3-81.57,98.64-109.91,184.41-139.92,432.63-13.81,401.48,261.35,6.74,65,34.52,109.23,53.26,132.23a57.81,57.81,0,0,0,38.52,21.13q246.79,26.79,485.27,14.69l340.16,89.35Z" transform="translate(-155.5 -1192.34)"/><path class="cls-4" d="M350.49,2375.75c-121.33-23.57-195.15-111-177.4-224.69,3.43-21.86,19.32-39.67,40.29-46.57l159-52.28c-1.71,2.7-49.89,77.87,26.58,126.31C476.81,2227.84,548.87,2363.56,350.49,2375.75Z" transform="translate(-155.5 -1192.34)"/><g class="cls-5"><path class="cls-6" d="M1939.41,2590a366.43,366.43,0,0,1-41.79,20L1779.35,2505.6l-340.16-89.3q-238.53,12-485.27-14.74a57.81,57.81,0,0,1-38.52-21.13c-18.74-23-46.52-67.18-53.26-132.24,31.15-275.16-217.07-401.26-401.48-261.35-36.34,28.35-68.79,66-98.64,109.91l-2.55.83v.06l-159,52.28A60.57,60.57,0,0,0,171,2171c.37-6.54,1.14-13.18,2.18-19.93,3.43-21.86,19.32-39.67,40.29-46.57l159-52.28.05-.05,2.55-.83c29.85-43.93,62.3-81.57,98.64-109.91,184.41-139.92,432.63-13.81,401.48,261.35,6.74,65,34.52,109.23,53.26,132.23A57.81,57.81,0,0,0,967,2356.13q246.79,26.79,485.27,14.69l340.16,89.35Z" transform="translate(-155.5 -1192.34)"/></g><path class="cls-3" d="M3052.62,2835.3H2951.38c-49.62-6-49.32-69.44-4.76-112.48-27.34-26.87-48.49-61.34-61.69-105.55l111.88-34.54,112.49,135.76L3073,2843.09" transform="translate(-155.5 -1192.34)"/><path class="cls-3" d="M3164,2287q200-116.61,211.72-321.67c1.1-19.11,25.23-26.75,36.78-11.48,110.25,145.69,31.61,342.14-155,400" transform="translate(-155.5 -1192.34)"/><g class="cls-7"><path class="cls-2" d="M3257.48,2353.79,3164,2287c1.77-1,3.48-2,5.19-3.12L3216,2317.3c174.34-54,254.45-229.06,174.34-370.59a19.91,19.91,0,0,1,22.22,7.12C3522.76,2099.5,3444.13,2296,3257.48,2353.79Z" transform="translate(-155.5 -1192.34)"/></g><g class="cls-5"><path class="cls-6" d="M3446.36,2013.58c-3.64-5.71-7.58-11.37-11.79-16.92-11.57-15.27-35.66-7.63-36.81,11.47q-11.21,194.22-191.31,309.17L3164,2287q200.07-116.68,211.72-321.68c1.14-19.11,25.23-26.74,36.81-11.47A253.53,253.53,0,0,1,3446.36,2013.58Z" transform="translate(-155.5 -1192.34)"/></g><path class="cls-4" d="M867.65,2636.36s35.6-110.64,149.82-92.47,426.23,57.62,725.8-2l154.69,68c-318.71,99.45-662.51,116.8-1020.42,88Z" transform="translate(-155.5 -1192.34)"/><path class="cls-3" d="M958.18,2810.56c-3.89,32.76-15.26,63.81-42,77.25C848,2922.23,807.37,2871,807.37,2871q38.5-45.79,58.39-109.59v-.11a429.6,429.6,0,0,0,13.45-56.85h73.25S964.31,2759.58,958.18,2810.56Z" transform="translate(-155.5 -1192.34)"/><path class="cls-2" d="M748,2923.84H674.3a66.32,66.32,0,0,1-53.81-27.26c-33.73-46.88-4.73-81.79,18.65-109.85,6.45-7.75,13.12-15.76,18.38-23.74,19.5-29.56-17.39-55.12-21.66-57.94-119.63-83.17-129.61-155.23-129.61-221.93,0-44.38-10.6-76.73-16.76-91.79-50.36,8-98,7.72-141.88-.85-131.85-25.61-207.92-122.76-189.34-241.74,4.27-27.25,23.59-49.67,50.42-58.5l156.77-51.54c32.05-46.47,64.45-82.2,99-109.11,91.08-69.1,203.73-80,294.15-28.56,97.14,55.26,146.28,168,131.64,301.77,6.81,61.91,34.07,103.41,49.81,122.73a42.59,42.59,0,0,0,28.53,15.69c162.82,17.68,325.29,22.6,482.87,14.62a14.1,14.1,0,0,1,4.57.48l340.17,89.35a14.85,14.85,0,0,1,6.11,3.26l147.08,129.79a15,15,0,0,1-2.54,24.3c-185.58,104.76-728.7,145.19-1065.34,110.28-9.5,74.56-34.89,136.31-75.59,183.73A76.08,76.08,0,0,1,748,2923.84ZM498.31,2359.61a15,15,0,0,1,13.08,7.69c1,1.81,24.86,45.24,24.86,115.83,0,61.2,8.9,122.33,116.4,197.07,3,1.94,32.89,22.17,39.43,53.53,3.3,15.81.1,31.22-9.52,45.79-6.18,9.37-13.39,18-20.36,26.41-24.68,29.64-36.66,46.36-17.37,73.12a36.26,36.26,0,0,0,29.47,14.8H748a46.17,46.17,0,0,0,35.07-16.29c39.32-45.82,62.93-107.11,70.19-182.19a15,15,0,0,1,16.61-13.46c320.21,36,843.3,1.09,1043.22-95.15l-128-113-334.47-87.86c-158.45,7.89-321.72,2.88-485.32-14.88a72.41,72.41,0,0,1-48.56-26.57c-18-22-49.22-69.6-56.53-140.14a14.54,14.54,0,0,1,0-3.23c13.83-122.19-29.71-224.61-116.49-274-79.8-45.4-179.82-35.34-261,26.27-32.88,25.64-64.1,60.48-95.31,106.39a15,15,0,0,1-7.75,5.83l-1.65.53c-.3.12-.6.24-.91.34l-159,52.28c-16.07,5.29-27.63,18.57-30.15,34.64-16.16,103.48,48.78,185,165.44,207.65,43.49,8.52,91.34,8.11,142.26-1.17A14.56,14.56,0,0,1,498.31,2359.61Z" transform="translate(-155.5 -1192.34)"/><path class="cls-2" d="M870.36,2914.61c-36.28,0-63.07-19.66-74.69-34.29a15,15,0,0,1,23.5-18.6c1.32,1.62,34.37,41,90.31,12.78,47.28-23.94,36.48-128.61,28.28-166.92a15,15,0,0,1,29.33-6.28c1.4,6.54,33.44,160.77-44.14,199.93C904,2910.84,886.25,2914.61,870.36,2914.61Z" transform="translate(-155.5 -1192.34)"/><path class="cls-2" d="M853.32,2695a212.84,212.84,0,0,0,3-22.5c.7-7.76,1-15.58,1.16-23.44a308.72,308.72,0,0,0-3.1-47.16,251.36,251.36,0,0,0-11-46.38l-4-11.33-4.88-11-2.48-5.53-2.91-5.3-5.88-10.66,7.46,9.66,3.75,4.86,3.32,5.1,6.66,10.37,5.88,10.86a263.1,263.1,0,0,1,18.7,46,329,329,0,0,1,10.91,48.93c1.13,8.32,2.09,16.69,2.64,25.14.29,4.22.52,8.46.61,12.74s.16,8.4,0,13.28A15,15,0,0,1,867.58,2713h-.1a15,15,0,0,1-14.39-15.58v-.1a15.4,15.4,0,0,1,.24-2.14Z" transform="translate(-155.5 -1192.34)"/><path class="cls-2" d="M646.7,2035.75c5.5,12.55,7.08,26.62,7.17,40.37a199.32,199.32,0,0,1-4.46,41.25c-1.25,6.84-3.2,13.5-5.06,20.19L638,2157.07a264.41,264.41,0,0,0-8.89,38.71,238.46,238.46,0,0,0-2.71,39.23,179.27,179.27,0,0,0,4.23,38.29c5.5,24.65,17.55,47.21,36.59,60.53a78.68,78.68,0,0,0,15.12,8.47,75,75,0,0,0,8.19,3.12c2.82,1,5.14,1.28,7.69,2,10.19,1.57,21,.26,31.92-3.42,21.91-7.8,43.05-23.63,60.83-42.27a327.91,327.91,0,0,0,46.24-63,278.06,278.06,0,0,0,16.75-35c4.55-11.78,8.09-24.24,8.56-34.71v-.48a15,15,0,0,1,15.65-14.32h0a15,15,0,0,1,14.32,15.65h0v.5c-1.32,16.79-6.22,30.59-11.65,44a305.81,305.81,0,0,1-19,38.35,372.89,372.89,0,0,1-50.48,68.13,283.63,283.63,0,0,1-31.75,29.36c-11.57,9-24.33,17.11-39,22.63s-31.75,7.78-48.39,4.18c-4-1.19-8.39-2.18-11.87-3.72a105.16,105.16,0,0,1-10.6-4.8,107.81,107.81,0,0,1-19.61-12.76,111,111,0,0,1-16.43-16.5,123.29,123.29,0,0,1-12.32-19.43,142,142,0,0,1-13-42.44c-4.42-28.86-1.65-57.54,4.84-84.8a277.86,277.86,0,0,1,12.87-39.91l7.91-18.75c2.28-6.26,4.79-12.49,6.71-18.89a192.48,192.48,0,0,0,8.47-39.2,134.27,134.27,0,0,0,.64-20.15A76.89,76.89,0,0,0,646.7,2035.75Z" transform="translate(-155.5 -1192.34)"/><path class="cls-2" d="M490.44,2361.81a156.94,156.94,0,0,0,36.72-20.29c11.7-8.51,22.8-18.94,34.74-28-8.28,12.47-15.09,25.63-23.91,38.4a180.44,180.44,0,0,1-31.83,35.46l-.3.25a15.24,15.24,0,0,1-21.49-1.69h0a15.25,15.25,0,0,1,1.69-21.5A16,16,0,0,1,490.44,2361.81Z" transform="translate(-155.5 -1192.34)"/><path class="cls-2" d="M276.06,2334.3c12.73,3.43,25.72,5.46,38.61,5.08a83.56,83.56,0,0,0,37.16-9.68c11.61-6.15,21.92-15.38,30.46-26.35s15.46-23.51,21.26-36.61c-3.44,13.89-8.06,27.67-15,40.69a107.84,107.84,0,0,1-28.46,34.87,102.34,102.34,0,0,1-42.5,19.47c-15.46,3.24-31.27,3.52-46.64,2.17h-.12a15.05,15.05,0,0,1-13.69-16.32h0a15.08,15.08,0,0,1,16.32-13.69A17.69,17.69,0,0,1,276.06,2334.3Z" transform="translate(-155.5 -1192.34)"/><ellipse class="cls-8" cx="119.72" cy="1043.45" rx="10.22" ry="12.49"/><ellipse class="cls-8" cx="166.12" cy="1053.18" rx="10.22" ry="12.49"/><ellipse class="cls-8" cx="153.47" cy="998.67" rx="10.22" ry="12.49"/><path class="cls-3" d="M3272,2663.22c-2.8-12.36-3.17-26.37,3.22-38.83a82.91,82.91,0,0,0,4.57-11.58c19.31-56.7,59.49-265.19-115.78-325.83-36.65-12.67-75.95-15.47-114.42-10.08-55.3,7.74-160.06,26-270.8,64.28-185.19,64.06-422.24,31.12-422.24,31.12,2-1.56,3.94-3.12,5.86-4.67,485-387.31,433.87-819.1,219.09-1027.6-184-178.54-487.55-181.34-682.71,18.17-241.15-333.41-1148.25-83.06-694.8,742.42,268.25,440.68,999.56,707.5,1652.46,524.86Q2912.12,2610,2967,2590c54.84-20,29.85,91.53,98.64,128.5,0,0-76.48,44.91-27.31,106.64a120.57,120.57,0,0,0,9.14,10.17h138.88c55.13-3,98.59-22,101.81-95.94.88-20.4-3.28-40.65-11-59.55A104.43,104.43,0,0,1,3272,2663.22ZM1962.76,2286.61c-331.65-117.23-607-339.12-572.7-609.09,6.23-49,30.37-94.28,69.26-124.7,93.91-73.41,239.49-84.16,362.43,52.9,50.67,41.43,100.3,47.92,148.38,4.31,148.53-209.74,473.9-132.49,459.78,158.45-4.1,84.16-37.23,163.9-89.82,229.68C2235.5,2128.84,2107.31,2221.09,1962.76,2286.61Z" transform="translate(-155.5 -1192.34)"/><path class="cls-4" d="M2968.76,2582.7l-112.14,41.43-.21,1.35c-652.89,182.64-1384.2-84.18-1652.45-524.83-453.45-825.48,453.65-1075.83,694.8-742.42,195.16-199.51,498.72-196.71,682.71-18.17,214.78,208.5,265.87,640.29-219.09,1027.6-82.39-1.77-145.83-13.87-145.83-13.87,296-180.2,518.86-577.52,355.84-864.47-152.69-227.81-453.71-217.22-655.72-39.3a46.21,46.21,0,0,1-62.19-1.14c-86.81-81.56-184.15-114-184.15-114-294.57-102-587.57,181.18-427.57,596.1,41.43,107.37,107.36,203.41,189.65,283.94,328.84,321.73,869.72,466.26,1528.91,295.25Z" transform="translate(-155.5 -1192.34)"/><g class="cls-7"><path class="cls-2" d="M1970.15,1518.3c-48.08,43.62-97.71,37.13-148.38-4.3-122.94-137.07-268.52-126.32-362.43-52.91-38.89,30.43-63,75.7-69.26,124.71a357.45,357.45,0,0,0,0,91.27c6.34-48.86,30.43-94,69.21-124.29,93.91-73.41,239.49-84.16,362.43,52.9,50.67,41.43,100.3,47.92,148.38,4.31,137.11-193.6,424.89-142.67,457.28,95.11,1.2-9.34,2-18.84,2.5-28.34C2444.05,1385.85,2118.68,1308.6,1970.15,1518.3Zm991.3,1000.45c-20.19,35.35-69.77,40.59-106.53,50.82-652.91,182.65-1382.71-120-1651-560.65-77-140.17-114.74-263.74-123.2-370.74-10.7,126.06,23.1,280.25,123.2,462.43,268.29,440.69,999.6,707.51,1652.5,524.87,35.67-9.92,71.18-21.24,106.28-34-3.64-24.88-2.7-53.12-1.25-72.69Z" transform="translate(-155.5 -1192.34)"/></g><g class="cls-5"><path class="cls-6" d="M2581.47,1340.06c-184-178.54-487.55-181.34-682.71,18.17-197.18-272.56-839.39-155-819.4,348.06,17.28-466.38,628-569.38,819.4-304.81,195.16-199.52,498.72-196.71,682.71-18.17,89.77,87.17,150.93,213.27,156.27,358.85C2744.08,1578.36,2680,1435.74,2581.47,1340.06Z" transform="translate(-155.5 -1192.34)"/></g><g class="cls-5"><path class="cls-6" d="M3297.2,2517.7c-4.72-73.83-35.46-153.68-133.22-187.48-36.65-12.66-75.95-15.47-114.42-10.07-55.3,7.74-160.06,26-270.8,64.27-185.19,64.07-422.24,31.16-422.24,31.16-145.58-15.16-279.42-41.28-393.76-85.72-321.94-113.8-590.77-326.19-574.93-585.47,14.48,239.6,271.11,434.81,574.93,542.22,144.53-65.52,272.72-157.77,377.33-288.45,51.81-64.84,84.78-143.24,89.61-226a358.48,358.48,0,0,1,.21,39.61c-4.1,84.16-37.23,163.9-89.82,229.68-92.78,115.93-204.14,201.59-329,265.19l403.29,71.23h.11c81.82,5.56,235.54,7.84,364.25-36.65,110.74-38.26,215.5-56.54,270.8-64.28,38.47-5.39,77.77-2.59,114.42,10.08C3281.37,2327.58,3302.08,2434.47,3297.2,2517.7Z" transform="translate(-155.5 -1192.34)"/></g><path class="cls-2" d="M3186.31,2850.3H3047.43a15,15,0,0,1-10.61-4.4c-22.68-22.68-32.6-46.58-29.48-71s18.91-43.38,32.06-55.26c-45-33-70.77-85.28-81.23-110.52-169.08,59.86-350.43,89.9-534.33,89.9A1728.05,1728.05,0,0,1,1933,2627.3c-330.39-98-600.77-287.17-741.83-518.86l-.34-.58c-106-193-146-367.46-118.72-518.38,23.2-128.47,94.73-233.89,206.88-304.85,207.88-131.56,492.79-106.59,621.34,51,94.34-90.51,215.76-141.23,343.78-143.23,131.32-2,254.77,46.58,347.85,136.92,110.14,106.89,168.65,260.19,160.52,420.58-7.66,151.15-76.8,377.91-358.31,611.29,72.47,6.15,242,13.48,379.73-34.15,112.86-39,219.89-57.47,273.64-65,42.05-5.9,84-2.16,121.41,10.77,60.27,20.85,102.35,60,125.06,116.35,39.08,97,6.78,218.16-5.39,242-6.88,13.48-2.45,30.79,2.49,43,8.93,22,13,44.17,12,65.87-4.08,93.48-68.15,107.7-116,110.26Zm-132.45-30h132c60.34-3.33,84.81-26.23,87.22-81.59.76-17.37-2.55-35.29-9.85-53.28-10.45-25.74-10.94-49.21-1.41-67.87,10.43-20.46,39-131,4.29-217.18-19.32-48-55.34-81.32-107-99.21-32.92-11.39-70.07-14.64-107.44-9.41-52.68,7.37-157.54,25.43-268,63.63-184.37,63.73-414.24,33.91-428.82,31.91-130.87-11-268.3-41.11-396.34-86.25a10.55,10.55,0,0,1-1.46-.52c-33.57-11.87-66.49-24.77-98.48-38.64-165.63-71.81-297.63-164.7-381.72-268.61-81.43-100.61-115.62-207.47-101.63-317.62,6.91-54.45,33.5-102.25,74.87-134.61,52.65-41.17,116.89-60.94,180.81-55.63,72.54,6,142.09,43.85,201.22,109.42,47.31,38.27,87.65,39.92,126.77,5.18,75.2-105,202.08-149.11,316.27-109.69,111.2,38.38,176.24,145.27,169.74,278.94-4.13,85-36.32,167.37-93.08,238.29C2258.45,2124.22,2144,2215,2002.89,2284.32c111.63,36.79,230.61,62.18,349,72.61,292.52-233.13,363.08-459.41,370.64-608.53,7.69-151.76-47.51-296.66-151.45-397.53-182.19-176.81-479-168.78-661.55,17.89a14.95,14.95,0,0,1-22.83-1.7c-55.36-76.53-149.63-124.41-265.45-134.79-113.18-10.14-232,18.19-326.17,77.75-236.07,149.4-265.24,442.17-78.06,783.15,137.29,225.29,401.36,409.5,724.56,505.41,340.91,101.18,703.27,93.13,1020.32-22.67a15,15,0,0,1,19.41,9.44c.27.84,28.95,86.31,91.48,119.94a15,15,0,0,1,.5,26.14c-.29.17-32.67,19.75-36.11,47.36C3035.42,2792.11,3041.06,2806.06,3053.86,2820.3ZM1611.06,1514.47c-55.16,0-105.06,20.91-142.49,50.18-35.1,27.44-57.68,68.2-63.59,114.75-12.92,101.72,19.11,201,95.19,295,97.09,120,266.37,225.41,462.21,295.94,149.76-68.85,269.54-161,366-281.53,52.8-66,82.73-142.39,86.54-221,5.92-121.63-50-214.76-149.56-249.13-84.86-29.29-205.26-9.71-283,100a14.74,14.74,0,0,1-2.16,2.44c-51.34,46.58-107.86,45.29-168-3.82a14,14,0,0,1-1.67-1.6C1744.4,1541.93,1674.27,1514.47,1611.06,1514.47Z" transform="translate(-155.5 -1192.34)"/><path class="cls-2" d="M3052.62,2850.3H2951.38a15.53,15.53,0,0,1-1.8-.11c-23.22-2.8-40.55-16.35-47.54-37.17-9.1-27.08.5-61.85,24-90.05-25-27.87-43.67-61.91-55.47-101.41a15,15,0,0,1,10.07-18.67h0a15,15,0,0,1,18.66,10.08c12,40.29,31,72.72,57.84,99.14a15,15,0,0,1-.1,21.48c-24.8,24-32.13,53.29-26.56,69.88,3.22,9.58,10.57,15.24,21.87,16.83h100.27a15,15,0,0,1,0,30Z" transform="translate(-155.5 -1192.34)"/><path class="cls-2" d="M2952.5,2594a205.12,205.12,0,0,1-2.75-23.32q-.78-11.41-.55-22.82a211.83,211.83,0,0,1,5.57-45.14,135.19,135.19,0,0,1,17.38-41.71,107.37,107.37,0,0,1,14.17-17.29,102.48,102.48,0,0,1,17.44-13.38,100.82,100.82,0,0,0-14.58,15.83,102,102,0,0,0-10.4,18.37,124.33,124.33,0,0,0-9.16,40.5,192,192,0,0,0,2.07,41.41c1,6.84,2.41,13.63,4,20.31a181.25,181.25,0,0,0,5.7,19.23,15.06,15.06,0,1,1-28.2,10.57h0A16.12,16.12,0,0,1,2952.5,2594Z" transform="translate(-155.5 -1192.34)"/><path class="cls-2" d="M3257.47,2368.79a15,15,0,0,1-4.44-29.34h0c89.65-27.77,158.5-92,184.17-171.75,22.77-70.76,9.75-143.51-36.66-204.83a5,5,0,0,0-5.8-1.91,5.45,5.45,0,0,0-4,5.21c-8.17,141.44-81.9,253.74-219.13,333.76a15,15,0,0,1-20.52-5.39h0a15,15,0,0,1,5.41-20.51c128-74.64,196.74-178.8,204.29-309.58a35.42,35.42,0,0,1,25.28-32.18,35,35,0,0,1,38.45,12.51c51.71,68.34,66.76,152.94,41.29,232.11-28.67,89.08-104.87,160.57-203.85,191.23A14.85,14.85,0,0,1,3257.47,2368.79Z" transform="translate(-155.5 -1192.34)"/><g class="cls-7"><path class="cls-2" d="M1892,2612.3c-215.3,86.13-702.95,120.6-1023.75,84.52-7.79,80.58-33.18,143.24-73.72,190.48A61.15,61.15,0,0,1,748,2908.85H674.3a51.21,51.21,0,0,1-41.64-21c-34.9-48.55,12.25-78.55,37.38-116.55,28.56-43.3-26-78.76-26-78.76-110.74-77-122.83-141.89-122.83-209.38s-23-108.51-23-108.51c-54,9.87-104,9.71-147.81,1.14-110.58-21.49-181.71-96-180-195.1l34.47-8.62s67.49,211.56,395.87,61c0,0-21.29,66.09-55.55,99.47,0,0,43.45,19,38.26,83.12s11.31,152.24,90.95,188.58,89.09,148.23,39.77,197.86c79.75.46,120.4-92.93,132.18-255.85,0,0,62.51,92.62,181.09,100.41s625.65,43.64,520.47-201.85Z" transform="translate(-155.5 -1192.34)"/></g><g class="cls-7"><path class="cls-2" d="M958.18,2810.56c-3.89,32.76-15.26,63.81-42,77.25C848,2922.23,807.37,2871,807.37,2871q38.5-45.79,58.39-109.59v-.11S850.82,2878.67,958.18,2810.56Z" transform="translate(-155.5 -1192.34)"/></g><g class="cls-7"><path class="cls-2" d="M648.62,2100.65s-27.67,127.19,61.24,156.4,159.65-91.51,159.65-91.51,8.43,178-107.08,230.82-155-50.15-146-135.42,11.21-92.8,11.21-92.8" transform="translate(-155.5 -1192.34)"/></g><g class="cls-7"><path class="cls-2" d="M2898.31,2653.1s81,68.63,137.44,73.16c0,0,4.54-9.23,4.54-13.38s-77.59-113.83-77.59-113.83l-71,18.19" transform="translate(-155.5 -1192.34)"/></g><g class="cls-7"><path class="cls-2" d="M3277.16,2679.78c7.68,18.9,11.84,39.15,11,59.55-3.22,74-46.68,93-101.81,95.94h-80.63c72.42-23.83,70-94.07,63.6-130-34.42,14.8-75,19.58-116.66-3.32-110.36-60.48-78.49-236.65-78.49-236.65,15.73,222.88,239.7,242.2,321.16,67.13l-25.9,85.25,9-5.66s.47.26,1.3.78a82.91,82.91,0,0,1-4.57,11.58c-6.39,12.46-6,26.47-3.22,38.83A103.46,103.46,0,0,0,3277.16,2679.78Z" transform="translate(-155.5 -1192.34)"/></g><ellipse class="cls-8" cx="503.26" cy="2088.89" rx="36.71" ry="53.29" transform="translate(-192.6 -1183.05) rotate(-1.02)"/><path class="cls-6" d="M502.62,2048c6.21,3.14,8.26,13.29,4.56,22.66s-11.74,14.44-18,11.3-8.26-13.29-4.56-22.66S496.4,2044.84,502.62,2048Z" transform="translate(-155.5 -1192.34)"/><path class="cls-9" d="M519.66,2112.36c2.87,2.47,2.84,8-.06,12.31s-7.59,5.85-10.46,3.38-2.85-8,0-12.31S516.76,2109.9,519.66,2112.36Z" transform="translate(-155.5 -1192.34)"/></svg>