<?xml version="1.0" encoding="utf-8"?>
<!-- Generator: Adobe Illustrator 24.1.0, SVG Export Plug-In . SVG Version: 6.00 Build 0)  -->
<svg version="1.1" id="Capa_1" xmlns="http://www.w3.org/2000/svg" xmlns:xlink="http://www.w3.org/1999/xlink" x="0px" y="0px"
	 viewBox="0 0 500 500" style="enable-background:new 0 0 500 500;" xml:space="preserve">
<style type="text/css">
	.st0{fill:#D8CABC;}
	.st1{fill:#EFEFE4;}
	.st2{fill:#FA8A21;}
	.st3{fill:#FDE38D;}
	.st4{fill:#C4C1BB;}
	.st5{fill:#CC7229;}
	.st6{fill:#3A2320;}
</style>
<g id="Background">
	<circle class="st0" cx="249.2" cy="249.1" r="183.6"/>
</g>
<g id="Logo">
	<g id="Logo-2">
		<g id="Fill">
			<path class="st1" d="M259.9,243.2c0,0.1-0.1,0.1-0.1,0.2c-0.1,0.8-0.1,1.6,0.2,2.3c0.4,0.8,1.1,1.5,2,1.7c0.3,0,1,0,1.3-0.2v-0.1
				c0.3-0.6-0.6-1.8-1-2.3C262,244.4,260.4,242.6,259.9,243.2z"/>
			<path class="st1" d="M265.8,239.4c-0.2,0-0.4,0-0.5,0.1c-0.5,0.3-0.5,1.2-0.4,1.7c0.1,0.6,0.5,1.1,0.9,1.5
				c1.1,0.8,2.4,1.3,3.8,1.3c0.2,0,0.5,0,0.7-0.2l0,0c0.1-0.1,0.2-0.2,0.2-0.4c0.5-1.2,0.9-3.2-0.5-3.9
				C268.6,239.2,267.2,239.2,265.8,239.4z"/>
			<path class="st1" d="M274.6,214.9c0.9-0.4,1.6-1.1,2.1-1.9c0.7-1.1,0.3-2.5-0.7-3.1c-0.2-0.1-0.3-0.2-0.5-0.2
				c-3.5-1.2-7.3-1.7-11-1.4c-2.2,0-5,0-6.7,1.6c-1.2,1.1-1.7,2.8-1.2,4.3c0.2,0.7,0.6,1.3,1.1,1.8c1.8,1.6,4.7,1.2,6.9,1
				c2.5-0.2,5-0.6,7.4-1.2C272.9,215.5,273.8,215.2,274.6,214.9z"/>
			<path class="st1" d="M302.2,250.1c-2.4,0-6.1,0.9-6.4,3.8c-0.1,1.1,0.6,1.6,1.6,2c1.2,0.4,2.4,0.4,3.6,0.1
				c0.7-0.1,1.5-0.4,2.1-0.7c0.3-0.2,0.5-0.4,0.8-0.6c0.6-0.8,0.8-1.8,0.6-2.8C304.2,250.8,303.3,250.1,302.2,250.1z"/>
			<path class="st1" d="M315,193.6c-3.9-7.6-7.5-15.5-10.6-23.5c1.3,7.8,3.1,15.6,5.4,23.2c3.4,9.7,14.7,20.8,13.4,35.9l0,0
				c0,0.6-0.1,1.3-0.2,1.9c0,3.3-1.6,6.9-2.7,10c-1.7,4.6-3.7,9.2-6,13.5l-0.6,1.1c-3.1,6-11,10.1-18,12.3l-0.5,0.2
				c-2.2,0.7-4.4,1.2-6.6,1.6c-2.6,0.3-5.1,0.2-7.6-0.4l-4,13.7c1.8,5.3,4.5,10.2,8,14.5l0,0c2.6,3.2,6.5,5.5,10.3,7.6l0,0
				c2.4,1.5,5,2.4,7.8,2.7c8.3,1.3,14.6-5.9,19.5-11.6c10.7-12.9,12-30.7,10.3-46.7C330.4,230.1,324.3,211.1,315,193.6z
				 M302.5,292.7c-2.7,2.9-7.6-0.1-7.6-3.6c0-2,2.7-4.2,4.5-4.3c2.6-0.2,4.8,1.8,5,4.4c0,0,0,0,0,0.1
				C304.4,290.6,303.6,291.9,302.5,292.7z M319.3,288.5c-1.2,0.8-2.6,1-3.9,0.5c-3.9-0.5-4.4-6.3-1.5-8.3c1.6-1.1,5-0.3,6.1,1.1
				C321.7,283.8,321.4,286.8,319.3,288.5C319.4,288.5,319.3,288.5,319.3,288.5L319.3,288.5z M321.1,270.6c-2.7,2.9-7.6-0.1-7.6-3.6
				c0-2,2.7-4.2,4.5-4.3c2.6-0.2,4.8,1.8,5,4.4c0,0,0,0,0,0C323,268.5,322.3,269.8,321.1,270.6L321.1,270.6z"/>
			<path class="st1" d="M272.3,292.1c-4.7,0.6-9.3,1.7-13.8,3.3c-5,1.9-10.1,3.4-15.3,4.7c-12.2,3.1-17.3,2.7-21.5,1.8
				c0.6,0.8,1.4,1.5,2.2,2c1.9,1.2,3.7,2.4,5.7,3.6c1,0.6,2,1.1,3,1.7c2,1.1,4.1,2.1,6.3,3c10.8,4.4,22.5,6,34.1,4.6
				c1.9-0.2,3.8-0.6,5.7-1c1.9-0.4,3.6-1,5.4-1.4l0.3-0.1c0.7-0.2,1.4-0.4,2-0.7l5.9-2.3l-0.3-0.1
				C283.5,307.2,276.6,300.5,272.3,292.1z"/>
			<path class="st1" d="M246.2,106.4c-0.5-1.9-0.9-3.8-1.2-5.7c-0.2,0.2-0.4,0.5-0.6,0.7c-2.2-5.3-5.5-10.5-9.9-11.9
				c-0.6-0.4-1.3-0.7-1.9-0.9c-6.3-2.4-13.2-3-19.9-1.7c-9.5,1.4-18.2,5.8-27.1,9.4L181,98l-0.8,0.3l-0.3,0.1c-3.3,1.2-7.4,2.7-11,4
				c-1.6,0.4-3.1,1-4.6,1.6l0,0c-6.9,2.9-11.1,7.1-12.3,12.3c-1.6,6.8-5.2,17.1,0.2,17.3s18.3-7,20.8-8c1.1-0.8,1.9-1.9,2.4-3.1
				l0.2-0.1h-0.1c1.7-3.1,3.8-8,8.1-11.7c1.1-0.9,2.3-1.7,3.5-2.4c-2.7,2.4-3.8,5.1-6.8,11.3c-0.2,0.4-0.4,0.8-0.6,1.3l0.3-0.3
				c0.8-0.6,1.6-1.1,2.4-1.6c1-0.7,1.9-1.5,2.9-2.3c5.2-4.3,10.5-7.8,17.2-8.9c2.1-0.3,4.2-0.5,6.4-0.4c1.1,0,2.2,0,3.3,0.1
				c1-0.1,2,0,2.9,0.2c-4.1-3.2-9.2-4.8-14.4-4.5c4.4-1.3,8.9-1.9,13.5-1.7c5.3,0.4,10.2,2.9,13.6,7c4,4.6,5.5,10.4,5.8,16.4
				c0.1,2,0.1,4-0.1,6c-0.4,1.8-0.7,3.7-0.9,5.5c1.2-0.6,2.3-1.6,3-2.9c0.4-0.6,2-2.8,1.8-3.5c0.5,2.2,0.3,4.6-0.6,6.7
				c1.6-1,2.8-2.4,3.5-4.1c0.5,1.5,0.7,3.1,0.6,4.7c0.8-2.6,1.7-5.2,2.8-7.6c0.5-1.3,1-2.5,1.7-3.7c0.3-0.4,0.6-0.8,1-1.1
				c0.2-0.3,1.2-1,1.2-1.4c-0.9,6.4-1.7,13.1-4.8,18.8c2.3-1.4,4-3.7,4.4-6.4c2.1-8.1,4.3-16.6,3.5-24.9c-0.2-9-2.8-18.9-7.8-23.3
				l0,0l-0.3-0.2l-0.6-0.5l-0.3-0.2c-0.8-0.7-1.8-1.1-2.9-1.2c-1.3-0.3-2.7-0.5-4.1-0.4c0.4,1.1,1.2,1.9,2.3,2.3
				c2.5,1.7,4.5,3.9,6,6.4l-0.7,0.2l0.9,0.2c3.1,4.9,4.9,10.4,5.1,16.2c0,2.8-0.2,5.5-0.7,8.2c0-1.2-0.1-3.3-0.1-4.3
				C247.5,111.5,247,108.9,246.2,106.4z M240.5,123.3c0-0.1,0-0.2,0-0.3c0.1,0,0.1,0,0.2,0L240.5,123.3z"/>
			<path class="st1" d="M206.2,131.6c5.9-3.1,0.9-14.9-5.7-11.7C193.8,123,200,133.7,206.2,131.6z"/>
			<path class="st1" d="M297.8,207c-10.6-4.7-23.1-7.7-34.5-3.6c18.2,1.6,37.9,5.7,51.1,19.3C312.3,214.7,304.7,210.4,297.8,207z"/>
			<path class="st1" d="M314.3,162.9c2.1,7.4,10.2,11.9,17.5,12.5c6.1-0.7,12.8-3.2,15.8-8.9c3.4-6.3,6.1-13.3,4.6-20.6
				c-0.1,5.4-1.2,10.8-3.4,15.8c-4.1,10-17.6,13.6-26.8,8.7C318.8,168.7,316.8,165.5,314.3,162.9z"/>
			<path class="st1" d="M184.6,128.7c0.8,7.3,3.6,15,9.9,19.3c6.3,4.3,15.4,7.6,22.8,3.9c4.9-2.4,8.2-7.3,10.8-11.9
				c3.6-6.3,2.4-14.2-1.2-20.2c2.9,11-1.3,24.3-12.2,29.1c-7.3,3.9-15,0.4-20.8-4.2C188.9,140.7,186.1,134.7,184.6,128.7z"/>
			<path class="st1" d="M172.9,204.4c11.5-9.9,26.3-15.3,38.1-25.1c-1.8,0-3.7,0-5.5-0.3c-7.3-2.5-13.9-6.9-19-12.7
				c0.3,0.2,0.7,0.4,1,0.6c5.4,3,11.3,4.9,17.4,5.8c3.1,0.3,6.1,0.3,9.2,0.1c5-0.3,9.8-1.9,14-4.6c0.8-0.7,5.2-4.4,5-8.2
				s-0.8-11-5-12.2c-1.4,1.6-2.9,3-4.7,4.2c-3.8,2.5-8.2,3.8-12.7,3.9c-11.5,0.5-24.2-4.6-30.9-14.2c-1.3-2-2.5-4-3.5-6.1
				c-0.5-1.3-1.1-2.5-1.7-3.7c-8.9-0.1-18.5,3.9-23.8,11.2c-11,15.4-11.5,36.6-9.1,54.6c0.6,5,1.2,10.7,3.1,15.4
				c1.8,3.9,4.1,7.5,6.8,10.7c0.4,0.5,4.7,5,4.7,5.5c1-3.9,2.6-7.7,4.6-11.2c1.3-2.2,2.8-4.2,4.4-6.1
				C167.7,209.4,170.2,206.8,172.9,204.4z"/>
			<path class="st1" d="M253,289c3-1,6-2,8.9-3.1c2.8-1,5.7-2.3,7.5-4.7c1.2-1.8,1.9-3.9,2-6c0-0.5,0.6-6.4,0.7-6.3
				c-22.1-11.7-25.9-20.1-29.4-34.9c-1.2-4.9-1.7-9.9-1.3-14.9l0.1-0.3l0,0c0.3-3.9,1.4-7.6,3.3-11c1.4-2.1,3-4,4.9-5.7l0.2-0.1
				c2.9-2.6,6.3-4.4,10.1-5.4c14.4-3.5,29.6-0.3,42.9,5.5l0.5,0.3c4.4-0.1,3.8-3.9,1.6-10.9c-2-6.4-5.6-26.9-6.3-44.5
				c-0.5-5.7-0.2-11.3,0.7-16.9v-0.3c0-0.1,0-0.3,0-0.4c0-0.3,0.1-0.7,0.2-1c0.3-1.4,0.5-2.6,0.7-3.5v-0.1c0-0.1,0-0.1,0-0.2
				c0.7-3.2,1.6-6.4,2.5-9.6c2.3-7.7,3.7-15.6,4.3-23.6c0.7-8,0.1-16-1.8-23.7c0.5,0.9,1,1.8,1.6,2.6c0.4,0.9,0.7,1.9,0.9,2.9
				c0.6,2.3,1.1,4.6,1.5,6.9c0.8,4.6,1.2,9.2,1.3,13.8c0.1,2.9,0,5.8-0.3,8.6c-0.1,0.9-0.9,8.1-1.7,8.2l1.2-0.1
				c2.5-4.3,5.7-8.8,10.5-10.5c15.3-4.7,27.9,9.2,40.6,14.8c0.9,0.5,2,0.7,3,0.5c-0.2-1.2-0.5-2.3-0.9-3.4c-0.2-0.5-0.4-1.1-0.7-1.6
				c-4.3-4.7-9.1-8.8-14.3-12.3c4,1.3,7.9,3.1,11.5,5.3c-0.6-3-0.8-6-0.7-9c0.3-11.3-9.8-21.6-34.2-29c-5.1-1.6-10.1-3.4-14.9-5.5
				c-16.5-6.3-33.7-11.5-51.5-12.4c-5-0.3-10.1-1.3-15.1-0.4c4.2,1.7,8.2,4,11.8,6.7c8.2,7.1,12.9,17.5,15.9,27.8
				c-0.2,1.6-0.5,3.1-0.7,4.8c-2.7-8.7-5.2-18.1-11.9-24.7c-3-3-6.4-5.6-10.1-7.6c2.2,2.9,5.3,4.9,7.5,7.8
				c4.2,6.3,7.6,13.2,8.6,20.7c-1.3-3.7-2.9-7.3-4.8-10.7c-2.7-4.7-6.8-8.3-9.6-12.9c-1.7-2.5-4-4.4-6.8-5.5
				c-9.4-4.5-19.3-7.8-29.4-9.8c-7.8-1.8-12-9.6-15.5-9.7s-8,18.3-8,18.3c1.3,0.8,2.3,2.1,2.9,3.5c-0.1-0.1-0.2-0.1-0.4-0.2
				c0.2,0.5,0.4,1,0.7,1.5c0.1,1.7-0.4,3.5-1.6,4.8c-2,2.7-7.3,10.4-12.5,18.1c-0.5-0.3-1.1-0.2-2.1,0.5c0.1,0.8,0.4,1.3,0.8,1.4
				c-5.8,8.6-11.2,16.7-11.2,16.7c7.3-1.5,14.4-4.2,20.9-8c0,0,3-1.7,11.7-5.8c7.4-1.1,14.4-4.1,21.9-4.6c4.9-0.4,9.9-1.8,14.8-0.5
				c6.6,1.4,12.5,5.2,16.6,10.6c3,5.2,3.6,11.4,4.3,17.3c0.4,5.9-0.1,11.8-1.6,17.5c-0.6,2.1-1.3,4.2-2.1,6.3
				c-0.8,2.8-1.8,5.6-2.9,8.3c-1.5,3.3-3.7,6.2-6.6,8.5c4.1-0.4,8.4-1,11.9-3.2c4.6-3,6.9-8.4,9.3-13.4c4-8,7.6-15.2,8-24.3
				c0.3-7.2,0.5-14.4,0.5-21.6c1.7,1.9,1.9,4.7,2,7.3c0.3,8.8-0.5,17.6-2.3,26.2c-2,9.8-6.3,18.9-12.5,26.6c-2,2.1-4,4.1-6.2,6
				c-1.8,1.5-3.9,2.6-6.2,3.3c-2.4,0.9-4.7,2-6.9,3.3c2.2,0.4,4.2,1.4,5.7,3c-2.9,0-5.7,0.6-8.4,1.7c-1,0.5-2,1.2-2.9,2
				c-1.1,0.9-2.2,2-3.1,3.1c1.8-0.6,3.6-1.3,5.3-2.1c1.8-1,3.6-1.8,5.5-2.4c-0.6,0.2-1.4,1.2-1.8,1.6c-0.5,0.3-1.2,1-1.9,1.6
				c-1.3,1.1-2.7,2.1-4,3.1c-2.8,2-5.6,3.9-8.4,5.8c-5.8,3.9-11.7,7.6-17.3,11.7c-4.8,3.7-9.9,7.1-15.3,9.9
				c-7.8,3.8-14.9,8.8-21.2,14.9c-3.9,3.8-6.9,8.3-8.9,13.3c-1,2.5-1.4,5.2-1.4,7.8c0,0.9-0.1,2.2,0.6,2.8c1.1,1,2.3-0.1,2.9-1
				c2.1-2.9,3.8-6.1,6-9c7.2-9.5,17-18.1,29-20.7c-1.7,1.2-3.4,2.4-5.2,3.5c-1.7,1.2-3.9,1.9-5.7,3.1c-4,2.8-7.6,6-10.8,9.7
				c-7.5,11.3-6.8,18.5-6.8,18.5s-1.3-1.6-1.1-5.9c0-1,0.1-1.9,0.3-2.9c-0.8,1.1-1.5,2.4-2.1,3.6c-1,2.1-1.5,4.4-1.4,6.7
				c0,1.2,0.4,2.3,1,3.3c0.7,0.6,1.5,1.2,2.4,1.6c1.1,0.5,2.2,1.1,3.2,1.8c0.1-15.1,5.2-20.9,8.1-26.6h0.2c-0.2,0.8-0.4,1.7-0.6,2.5
				c0,0-4.8,14.7-2.4,27.9s9.4,30.6,22.7,39c6.9,4.3,16,3.9,23.8,3.1C236.2,293.5,244.7,291.7,253,289z M270.2,112.8
				c-0.3,0.3-0.9,0.8-1.2,1c0.7-5.8,0.6-11.9,2.8-17.4C271.7,101.9,271.2,107.4,270.2,112.8z M205.5,255.1c-2,2.4-7.1,1.4-7.6-1.9
				c-0.3-1.9,1.3-3.4,2.7-4.4C204.3,245.9,209,252.2,205.5,255.1L205.5,255.1z M205.8,239.1c-0.8-1.4-0.5-3.2,0.7-4.2
				c0.9-1.2,2.3-1.8,3.8-1.8c2.4,0.4,4.3,2.1,4.9,4.4c0.4,2.1-2.6,3.6-4.3,3.9C208.8,242,206.7,240.9,205.8,239.1L205.8,239.1z
				 M220.2,270c-2.4,2.9-8.7,2.8-9.8-1.3c-0.2-1-0.3-2.1-0.1-3.1c0.2-3.1,4.8-3.4,7-2.7C219.9,263.7,223.4,267.6,220.2,270
				L220.2,270z M224.3,252.9c-2.7,2.9-7.6-0.1-7.6-3.7c0-2,2.7-4.2,4.5-4.3c2.5-0.2,4.8,1.7,5,4.2c0,0.1,0,0.2,0,0.2
				C226.2,250.8,225.5,252.1,224.3,252.9L224.3,252.9z"/>
			<path class="st1" d="M148.5,71.6c1-5.6,2.7-11.1,5.1-16.3c3.9-7.6,7.6-15.5,12.1-22.8c1.7-2.8,3.7-5.5,5.8-8.1
				c1.6-1.8,3.9-5.3,6.4-5.8c1.2-0.2,2.4,0.3,3.1,1.3c1.9,2.5,0.4,7.8,0.1,10.7c-0.4,4-0.5,8-0.2,12c0.1,1.1,0.5,2.4,1.6,2.6
				c1.1,0.1,1.6-0.6,2.1-1.3c3.3-4.9,3.4-10.3,2.7-16c-0.7-6.4-1.5-14-7.1-18.1c-8.4-2.4-16.3,3.8-21.7,9.6
				C148.6,30,145.4,44.7,140.5,58c-0.6,1.6-1.2,3.2-2.1,4.7c-0.1,0.2-0.3,0.4-0.5,0.6c-0.5,0.2-1-0.1-1.2-0.5
				c-0.2-0.5-0.3-1-0.2-1.5c0.4-7-1.2-13.9-4.6-20.1c-3.4-6.2-9.3-10.5-16.2-12.1L115,29c-8.3-1.3-17.6,3.1-25.3,5.8
				c-9.2,3.1-18.5,6.4-27.8,9.3c-17.1,5.3-14.3,16.4-10.5,31.2c3.1,12.3,15.2,27.8,23.9,39.2c7,9.3,12,20.4,18.2,30.2
				c2.4,3.9,4.9,7.7,7.5,11.4c1.7,2.6,5.6,6.8,8.5,7.8c2.1,0.7,4.3,0.4,6.1-0.8c2.6-1.6,4-4.6,5.4-7.3c2.6-5.1,5-10.4,7.6-15.5
				c0.5-1,1-2,1.5-3c4.7-10.3,8.5-21.1,11.3-32.1C144.2,94.1,145.9,82.8,148.5,71.6z"/>
			<path class="st1" d="M381.9,93.8c4.1,9.5,8.5,21.2,8.5,21.2c-1.2-16-7.5-29.6-11.4-35.1C379.1,79.9,377.8,84.3,381.9,93.8z"/>
			<path class="st1" d="M359.4,123.5c-3.4-3-6.5-6.4-10.5-8.8c-1.3-0.7-2.6-1.4-3.9-1.9c-2.7-1.4-5.6-2.4-8.6-3
				c-2.3-0.3-4.6-0.3-6.8-0.1c-2.8,0.1-5.5,0.7-8.1,1.6c-1.9,0.9-3.7,2-5.2,3.4c-7.8,6.2-10,10-11.4,19.9c-0.3,2.8-0.4,5.6-0.3,8.4
				c0.6-1.1,1.3-2.1,2-3.1c1.8-2.4,4.2-4.2,7-5.3c-4.5,4-7.2,10.3-8.6,14.2c0.1,1.2,0.3,2.3,0.4,3.3c1.9-2.4,4.2-4.4,6.8-6.1
				c-2.5,3.2-4.5,6.7-6.1,10.4c0.3,1.9,0.6,3.1,0.6,3.1s11.9-26.6,32.1-27.5c6.5,0.2,12.5,5,17.2,11.3c0.8,1.2,1.6,2.3,2.3,3.5
				c0.1,0.2,0.3,0.4,0.4,0.6c0.7,1.2,1.4,2.4,2,3.6c1.8,3.7,2,6.6,1,7.8c-1.4,1.6-5.6-0.1-11.2,10.1c-5.4,9.8-19.2,12.6-30.3,10
				c-0.4-0.2-0.9-0.3-1.3-0.3l0.3,1c0.5,2,1.1,3.9,1.7,5.8c1.2-1.4,2.7-2.4,4.5-2.9c-1.5,2.1-2.6,4.5-3,7c0.8,1.9,1.7,3.7,2.6,5.6
				c2.4,5.2,4.5,10.5,6.6,15.8c0.4,1.1,0.8,2.2,1.3,3.3v0.1c0.7,2,1.6,5.3,2.5,9.1v0.3h0.1c2.1,9,4.4,20.3,4.4,20.3
				c5-6.7,9.4-13.8,13.1-21.3c4.4-9.9,8.2-22.5,8.3-28.8c0-1.8-0.3-4.1-1.9-5.1c-0.8-0.5-1.8-0.6-2.7-0.4
				c-5.3,0.7-10.4,2.7-15.8,3.3c1-0.3,1.9-0.7,2.7-1.3c0.9-0.5,1.8-0.9,2.7-1.4c1.8-1,3.5-2,5.2-3.1l0.8-0.5l0,0
				c4.5-2.9,11.4-7.3,12.5-12.3c1.1-4.9,3-14,0-20.9l0,0c-2.1-5.7-10.6-15.2-14.5-17.9c-2.2-1.5-4.7-2.7-7.3-3.4l0,0
				c-2.9-0.6-5.7-1.6-8.3-2.7c0.2,0,5.4-1.1,9.5,0.8c3.2,1.3,6.3,3,9,5.2c2.6,2.4,5,5,7.1,7.8c0.2,0.3,0.5,0.6,0.8,1l0,0
				c2.2,2.7,6.5,5.4,6.7-0.4c0-3.1-0.4-6.3-1.3-9.3C365.2,129,362.7,126.5,359.4,123.5z M336.8,130.5c-0.7,0-1.4,0-2.2,0.1
				c-4.6,0.4-9.1,1.4-13.4,2.8c-2.9,0.8-5.6,2.3-7.9,4.3c1.8-3.1,4.6-5.5,7.9-6.8c0.4-0.2,0.8-0.3,1.2-0.5c0.4-0.2,0.8-0.3,1.3-0.4
				C328,129.1,332.5,129.2,336.8,130.5z"/>
			<path class="st1" d="M345.4,149.6c0.6-0.5,1-1.2,1.2-1.9c0.3-0.9,0.3-1.9,0.2-2.9c-0.2-0.9-3.9-1-4.6-1.1c-0.7,0-3.6-0.3-3.7,1
				l0,0C338.3,147.4,343,151.4,345.4,149.6z"/>
			<path class="st1" d="M394.7,101.1c-1.9-8.7-5.2-17.1-9.8-24.7c-2.6-4.4-7.7-11.5-13.6-11.1c-2.8,0.3-5.1,2.1-6.1,4.7
				c-1.6,3.1-2.6,6.5-2.8,10c1.7-3.5,5.5-5.6,9.4-5.2c-1.2-1.3-2.9-2-4.7-1.8c1.2-0.2,2.1-1.1,3.3-1.3c2.2-0.5,4.5,0.1,6.1,1.6
				c4.1,3.4,6.6,8.3,8.7,13.1c2.5,5.5,4.5,11.2,6,17c1.3,6.1,2.2,12.4,2.8,18.6c1.2,8.9,1.7,17.9,1.6,26.9c0,1.6-0.2,3-0.4,4.5
				c0.9-3.7,1.5-7.4,1.7-11.2c0.2-3.7,0.7-7.3,0.7-11c0.1-7-0.3-14-1.3-20.9C395.9,107,395.4,104,394.7,101.1z"/>
			<path class="st1" d="M439.3,131.7c-1.8,1.6-3.4,3.5-5.7,3.8c-0.4,0.1-0.8,0-1.1-0.1c-0.4-0.2-0.8-0.6-1.1-1l-4.4-5.5
				c-1.1-1.8-2.9-3.2-4.9-3.8c-1.5-0.2-3,0-4.4,0.6c-4.6,1.6-11.2,4.1-13.6,8.7c-2,3.8-2.8,8.8-3.6,12.9c-1.8,9.5-2.6,19.1-2.2,28.7
				c0.8,26.6,9.4,32.2,12.8,29.5c3.4-2.7,15.5-20.3,20.8-32.5c5.4-12.2,14.7-19.9,18.6-30C452.9,136.8,446.2,125.7,439.3,131.7z"/>
			<path class="st1" d="M324.7,154.8c1.2-0.3,2.2-1,2.9-2c0.3-0.6,0.3-1.2,0-1.8c-1-2-3.3-1.4-4.2,0.4c-0.5,0.9-0.5,2,0,3
				C323.7,154.8,324.2,154.9,324.7,154.8z"/>
			<path class="st1" d="M156.9,240.5c-7.8,11.5-10.2,25.6-13.1,33.7c-2.8,8-18.4,35.6-16.2,65.1c2.2,29.6,19.8,57.1,29.3,66.5
				c9.4,9.4,20,11.5,32.6,21.6c12.6,10.1,29.8,26.4,31.8,37.1s5.5,0,5.5,0s3.1,12.9,0,23.5c10.5-15,23.1-28.3,37.4-39.7
				c22.6-17.4,52.1-45.8,52.1-45.8s13.7,0.6,22.5-19.3s8.8-51.6,6.9-62.5c-1.9-10.9-14-30-14-30s-9.6,17.8-23.5,21.2
				c-13.9,3.5-24.1,7.2-31.2,8.6c-7,1.4-31.1,2.8-43.9-5.2c-12.7-8-19.6-17.5-24.4-18.6s-20.9-12-25.1-23.6s-0.3-17.7-6.3-20
				C171.3,250.8,156.9,240.5,156.9,240.5z"/>
			<path class="st2" d="M157.9,236.2c1.4-13.2,12.5-33.9,35.3-43.5c13.6-5.7,26.1-13.7,37.1-23.6c0,0,4-9.1,7.6-12.2
				c3.6-3.1,15.4-4.9,20.8-10.2c5.4-5.3,11.5-16.4,13.8-27.3c1.9-9.7,2.7-19.5,2.4-29.3h-0.4c-1.8-3.1-3.3-6.4-4.4-9.7
				c-2.2-6.3-7.3-22.2-22.2-28.9s-27.5-9.4-32.4-11c-5-1.6-16.7-8.6-19.2-12.7s-9.1-21-16.6-21.2C172,6.3,94.3,28.4,83.7,32
				S49.8,43.5,45.1,51.6s3.4,29.9,6.5,37.1c3.1,7.2,31.3,47.4,34,60.4c2.6,13.1,9.1,29.5,25.1,22.7c15.9-6.8,20.6-20.6,23.2-15.7
				c2.6,5-4.4,33.2,3.7,51C142.5,217.9,149.4,227.8,157.9,236.2z"/>
			<path class="st3" d="M184.6,126.9c4.5,6,13.9,20.4,17.7,21c3.7,0.6,15.6-1.3,19.5-6.8c4-5.6,2.1-21.2,5.1-21.7
				c3-0.5,3.3,5.8,4.3,10c1,4.2-2.5,13.9-5.3,17.2c-2.8,3.4-7.1,10.1-14.9,9.1c-7.8-1-21.4-5.3-25.8-10.8
				C180.8,139.4,184.6,126.9,184.6,126.9z"/>
			<circle class="st1" cx="203.3" cy="125.6" r="7.8"/>
			<path class="st2" d="M306.6,70.9c-0.3-2.3,6.1,0.5,7.3,0c1.3-0.5-2.3-3.9,2.6-3.7c4.9,0.2,21.6,8.5,34.1,6.5
				c12.6-2,14.4-13.1,25.4-10.5c11,2.6,31,40,44.9,47.7s24.4,14.5,32.8,22.6s-6.4,29.7-12.1,36.6c-5.7,6.9-22.6,36.1-27.8,42.5
				c-5.2,6.3-17.3-11.1-17.3-11.1s-5.6-43.2-6.1-49.2c-0.5-6-5-17.5-10.4-14.9s-11.9,20-12.1,35.9c-0.3,16-10.6,49.3-16.7,59.7
				c-3.3,5.8-7.6,10.9-12.8,15c0,0-8-27.7-13-41.8c-5-14.2-19.1-36.2-22.5-50.6c-3.4-14.5,4.2-36.1,4.9-50.6
				c0.8-14.5,0.9-23.8,0.7-26.5C308.2,75.9,307.5,73.4,306.6,70.9z"/>
			<path class="st1" d="M322.6,149c-1.5,3.8-4,9.6,2.5,8.1c6.5-1.4,1.4-4.6,9.6-5.8s13.7,1.1,14.2-1.6c0.6-2.7,2.7-7.9-1.1-8.6
				c-3.8-0.7-13.1,0.2-14.1,1C332.6,142.9,322.6,149,322.6,149z"/>
			<path class="st3" d="M313.8,161.4c1.7,1.4,11.1,9.3,16.4,9.3c10.7,0.4,19.8-7.7,20.5-18.4c0.1-3.7,0.1-8,1.4-7.8
				c1.2,0.2,2.6,4.7,2.5,8.7c-0.2,4-5.6,15.3-7.8,17.5c-2.3,2.3-8.2,5.9-13.3,6.1c-5.2,0.1-12.1,1-15.1-2.9c-3-3.9-6-8.6-6-10
				C312.4,162.9,313,162,313.8,161.4z"/>
			<path class="st4" d="M151.4,253.2c13.5,2.5,22.2,22.6,29.4,33c7.2,10.4,23.9,64.8,72.5,65.8s46.3-37.9,46.3-37.9
				s-44.2,10.8-57.9,6s-26.6-20.3-26.6-20.3s-15.1-2.7-22.8-11.8c-7.7-9.2-13.3-34-13.3-34l-22.9-12.3L151.4,253.2z"/>
			<path class="st4" d="M233,300c12.4,4.4,38.2,9.4,50.4,4.6l-11.7-16.5L233,300z"/>
			<path class="st4" d="M179.5,256.2c10.4,17.1,21.4,31.9,41.8,31.9s38-3.1,40.2-10.5c2.3-7.3-27.2-25-31.3-46.8
				c0,0,3.6-19.3,28-29.3c0,0-11.5,41.5-3.9,47.6c7.6,6,25.3,11.5,22.7,17.3c-2.6,5.8-5.3,21.7-5.3,21.7s-33.9,12.9-46.2,12.1
				c-12.3-0.8-25.1-5.9-30.7-12.1s-13.4-15.7-13.6-20.9C181,263.5,180.4,259.8,179.5,256.2z"/>
			<path class="st4" d="M321.1,231.5c6.6,5.8,5.6,15.9,5.6,15.9s-13,15.1-22.3,21.5c-9.3,6.4-20.4,8-22.6,11.3s8.6,20.2,18.2,22.7
				c9.7,2.5,21.9-2.6,21.9-2.6s-5.8,11.3-16.7,10.7s-23-11.4-28.3-17.1s-2.4-19-1.1-24.3s8.3-9.2,16.5-8.6s6.1,4.1,14.3-3.5
				c8.3-7.6,9.8-18.4,11.6-23.4C320.2,229,321.1,231.5,321.1,231.5z"/>
			<path class="st5" d="M112.7,172.5c5.8-8.5-18.4-41.9-29.4-58.8S59.7,72.9,60.7,58.5c1.1-14.4,2.5-18.2,2.5-18.2
				s-17.7-4.1-19.6,11c-1.9,15.1,4.4,36.5,10.5,45c6,8.4,28.5,41.6,32.1,56C89.8,166.8,112.7,172.5,112.7,172.5z"/>
			<path class="st5" d="M179.5,141c6.3,11.9,12.1,19.2,23.8,21.6c7.5,1.3,15.2,0.6,22.3-2c0,0-12.3,17.9-39,5.8
				c0,0,17.9,9.8,20.7,10.4c-0.6-0.1-2.2,0.8-2.7,1c-3.1,1.1-6.3,2.3-9.5,3.4c-12.2,4.3-24.4,8.1-35.6,14.8c-2,1.2-3.9,2.4-6,3.5
				c-1.3,0.7-2.5,1.9-3.1,0c-0.3-1.1-0.4-2.2-0.2-3.3c0.1-1.8,0.5-3.5,1.2-5.2c0.3-0.8,0.7-1.6,1-2.4c0.2-0.5,0.6-1.8,1-2.1
				c0,0-4.8,3.4-5.9,5.9c0,0-7.6-15-4.5-37.6s-9.3,2.3-8.8,15.3c0.5,13,2.8,32.9,6.6,42c3.7,8,8.4,15.4,14.1,22
				c3.1,3.5,4.5-9.5,11.6-18.4c7-8.9,26.5-23.6,41.1-30.2c14.6-6.6,21.7-15.5,21.7-15.5s7.4-7.1,7.3-11.8
				c-0.1-4.8-4.1-12.1-7.8-12.3s-4.7,3.6-7.9,5.4c-3.2,1.8-9.1,4.1-14.5,3.3s-15.5-5.9-18.2-9.2C185.2,142.2,179.5,141,179.5,141z"
				/>
			<path class="st5" d="M326.1,205.8c8.2,9.9,19.6,22,33.1,10.3c0,0-8.9,22.6-20.9,32.9L326.1,205.8z"/>
			<path class="st5" d="M358.3,156.3c0.8,7.8-4.5,18.3-10.3,22.8c-5.7,4.5-20.2,2.1-27.2,14.5c0,0-2.9-9.1-3.1-13.9
				s-4.1-9.2,3.1-5.9c7.3,3.3,18.1,4.1,23.7,0c5.6-4.1,8.4-11.6,10.1-14.2C355.5,158.2,356.7,157,358.3,156.3z"/>
			<path class="st5" d="M447.5,130.4c3.4,11.2-4.9,19.4-12,30.2c-7.1,10.8-14.3,28.2-23.2,34.5c-8.9,6.3-15.9,3.1-15.9,3.1
				S407,215,409.2,217s11.6-13.9,15.4-21.6c7.1-12.8,15-25.2,23.7-37c5.7-7.1,10-18.8,7.1-23.8C453.8,131.9,450.7,130.2,447.5,130.4
				z"/>
		</g>
		<g id="Outline">
			<path class="st6" d="M294.9,347.8c-3,2.8-5.5,6.3-8.8,9c-3.7,3.1-7.6,6-11.5,8.9c-1.9,1.5-3.9,2.9-5.8,4.4
				c-0.8,0.6-1.6,1.3-2.3,2c-0.4,0.5-1.1,1.6-1.8,1.7c4.8-0.8,9.3-2.8,13.1-5.7C285,362.9,291.5,356.1,294.9,347.8z"/>
			<path class="st6" d="M455.7,127.1c-7.1-5.9-15.4-10.1-23-15.3c-12.9-8.3-23.6-19.6-32.7-31.8c-2.1-2.9-4.3-5.6-6.8-8.1l0,0
				c-2.8-3.6-6.3-6.5-10.4-8.4c4.6,1.1,9.2,2.7,13.6,4.2c-1.2-5.2-6.6-7.5-11-9.4c-7.2-2.9-15.2-3.2-22.6-0.8
				c-0.5-3.6-3.7-7.1-7.6-6.5c-8.4,1.1-14.2,12-23.4,8.8c-16.3-7.1-32.4-14.8-49.9-18.4c-23-5.4-46.8-4.4-70.3-4.7
				c-3.7-5-8.2-9.4-12.2-14.1c-4.4-7.5-8.1-17-17.2-19.9c-9.1-2.1-18.2,1.6-26.7,4.5c-12.2,4.6-24.6,8.5-37.2,11.7
				c-17.8,4.7-35.4,9.9-53.1,14.9c-7.6,2.4-15.7,4.6-21.8,9.8c-4.6,4.1-4.7,10.8-4.7,16.5c0.2,17.6,8.9,33.5,17.8,48.2
				c6.3,10.4,14.3,20,17.7,31.8c3.2,10.8,1.5,22.8,6.5,33.1c3.5,7.5,12.2,12.4,20.4,10.5c10.5-1.6,18.1-9.7,25.1-17
				c-1.8,11.3-0.1,22.8,3.2,33.6c4.3,14.6,12.8,27.5,21.9,39.4c-4,8.5-7.3,17.2-10,26.2c-2.9,9.2-8.7,17.1-12.4,26
				c-5,12.2-8.9,25.2-8.6,38.5c-0.6,21.3,5.4,42.2,17.2,59.8c11.8,17,23.5,34,37.2,49.6c7.1,8.1,14.2,16.5,22.8,23.2
				c-3.3-9-8.6-18-15.9-28.4c-3.7-4.8-7.3-9.8-10.9-14.8c14.7,11.1,30.7,21.5,41.3,36.9c6.3,9.1,8,20.4,9.5,31.1
				c3.9-14.7,9.8-28.7,14.1-43.2c-5.4,2.5-8.1,8-11.7,12.4c-3.3-15.3-2.3-31.6-9.2-46c-5.8-13-15.7-25.4-29.7-29.8
				c16.8,10,27.5,28.4,29.6,47.6c0.7,5.2,0,10.5,0,15.7c-0.6-0.6-1.2-1.2-1.8-1.8c-10-10.5-21.7-18.9-32.9-28.1
				c-9.2-7.3-19.3-13.4-27.6-21.8c-11.3-11.9-17.2-27.9-19.9-43.9c-2.7-14.3-3.1-29.3,1.1-43.3c2.4-8,5.3-15.9,8.7-23.6
				c0.2,12.4,3.4,24.3,6,36.3c0.5,1.8,0.8,3.9,2.3,5.3c-4.4-17.9-3.5-54,2.4-67.7l0,0c1.2-3.2,3.1-6.1,5.4-8.7l1.7,0.4
				c4.8,3.7,9.9,6.8,15.4,9.4c2.5,9.3,13,40.9,39.9,46.4c7.6,10.7,18.7,18.3,31.4,21.4c-2.1,0.6-4.3,1-6.5,1.1
				c-7.5,0.2-13.2,0.5-13.2,0.5c9.3,1.6,18.9,1.6,28.2,0c1,0.1,2,0.2,3,0.2c4,0.2,8,0,12-0.5c-8,8-18.4,13.2-29.7,14.8
				c28.3-0.8,32.5-7.2,41.8-17.6c5.1-1.6,9.9-4,14.3-7.2c-1.7,7.7-7.6,18.8-12.6,24.8c0,0,13.2-4.9,26.5-28.2
				c2.7-0.6,5.4-1.5,7.8-2.9c4.4,3.5,5.6,11.4,5.6,11.4c1.4-4.8,1.1-10-1-14.6c0.7-0.6,1.4-1.3,2-2c7.6,8.2,9.6,23,9.6,23
				c0.3-10.1-1.7-20.1-6.1-27.7c0.7-1.1,1.3-2.3,1.8-3.5c3.7,5,6.2,10.7,7.5,16.7c0,0,0,0.1,0,0.2c3.3,12.3,3,25.5,1.4,38.1
				c-1.3,10.6-4.7,20.9-9.9,30.3c-2.2,4.5-5.3,8.5-9.1,11.8c7.5-16.4,13.6-34.2,12.2-52.5c-2.9,4.5-2.4,10.3-3.9,15.4
				c-0.2,0.9-0.4,1.8-0.6,2.8c-2,6.4-3.9,13.3-6.6,20.3c-1.3,3-2.6,6.1-3.9,9c-4,8.2-9.3,15.8-15.8,22.3c-2.4,2.3-4.9,4.5-7.4,6.7
				c-2.5,2.2-4.4,3.7-5.6,4.7c-13.2,11-27.2,21.1-39.5,33.1c-10.6,10.6-21.2,21.9-26.8,36.1c-0.6,1.4-1,2.9-1.2,4.4
				c22.7-30.8,39.6-39.3,55.4-51.8l0.4-0.3c5.8-4.7,11.6-9.3,17.4-13.9c6.9-5.4,13.4-11.3,20.5-16.5c-4.9,10.5-12.8,19.3-19.3,28.8
				c-2.1,3.1-4.7,6-6,9.5c11.4-11.5,32.6-33.7,46-53.7c6.5-10.7,11.4-22.2,14.6-34.2c4.4-19.1,1.7-39.3-5.9-57.3
				c-2.6-7.3-6.9-13.7-8.9-21.2c1.7-5.6,3.1-11.2,4.2-17c0.4-2.4,0.6-4.9,0.6-7.4c0.1-2.1-0.3-6.9,1-8.6c5.4-7.1,11.3-14,15.6-21.9
				c6.8-12.5,11.6-26.1,14-40.2c2.1-11.5,1.4-23.3,3.1-34.9c2.3-4.2,6.9-6.7,11-8.9c2.9,16.6,2.5,33.5,5.3,50.1
				c1.7,8,4.6,15.7,8.7,22.8c1.8,3.1,3.8,6.3,6.9,8.3c5.9,0,8.1-6.5,10.9-10.6c6.7-10.5,10.8-22.4,18-32.6
				c9.5-13.6,18.8-27.8,23.5-43.9C460,136.2,460,130.4,455.7,127.1z M128.5,140.4c-2.6,5.2-4.9,10.4-7.6,15.5
				c-1.4,2.7-2.7,5.6-5.4,7.3c-1.8,1.2-4.1,1.5-6.1,0.8c-2.9-1.1-6.8-5.3-8.5-7.8c-2.5-3.8-5-7.6-7.5-11.4
				c-6.3-9.8-11.2-20.9-18.2-30.2c-8.7-11.4-20.7-26.9-23.9-39.2c-3.9-14.8-6.6-25.9,10.5-31.2c9.4-2.9,18.6-6.1,27.8-9.3
				c7.7-2.6,17-7.1,25.3-5.8l0.7,0.1c6.9,1.5,12.8,5.9,16.2,12.1c3.3,6.1,4.9,13,4.5,19.9c-0.1,0.5,0,1,0.2,1.5
				c0.2,0.5,0.7,0.7,1.2,0.5c0.2-0.1,0.4-0.4,0.5-0.6c0.8-1.5,1.5-3.1,2.1-4.7c4.9-13.3,8.1-28,17.9-38.7c5.4-5.9,13.3-12,21.7-9.6
				c5.6,4.2,6.4,11.7,7.1,18.1c0.6,5.7,0.6,11.1-2.7,16c-0.5,0.7-1.2,1.5-2.1,1.3c-0.9-0.1-1.5-1.5-1.6-2.6c-0.3-4-0.2-8,0.2-12
				c0.3-2.9,1.8-8.1-0.1-10.7c-0.7-1-1.9-1.5-3.1-1.3c-2.5,0.5-4.9,4-6.4,5.8c-2.1,2.6-4.1,5.3-5.8,8.1c-4.6,7.3-8.2,15.2-12.1,22.8
				c-2.4,5.2-4.1,10.7-5.1,16.3c-2.6,11.3-4.3,22.5-7.3,33.7c-2.8,11-6.6,21.7-11.3,32.1C129.5,138.4,129,139.4,128.5,140.4z
				 M247.9,118.7c0.5-2.7,0.7-5.5,0.7-8.2c-0.1-3-0.6-5.9-1.6-8.7c-1.3-4.2-3.4-8-6.3-11.3c-1-1.2-2.2-2.2-3.5-3
				c-1.1-0.4-1.9-1.2-2.3-2.3c0,0,2.3,0,2.5,0.1c2.1,0.2,4.2,1.1,5.8,2.5c1.6,1.6,3,3.5,3.9,5.6c1.6,3.6,2.7,7.5,3.2,11.4
				c0.3,2.1,0.3,4.1,0.5,6.2c0.8,8.3-1.4,16.8-3.5,24.9c-0.5,2.7-2.1,5-4.4,6.4c0,0,0.1-0.2,0.1-0.2c0-0.1,0.1-0.1,0.1-0.2l0.2-0.4
				l0.4-0.8c0.3-0.5,0.5-1.1,0.7-1.7c0.5-1.2,0.9-2.5,1.2-3.8c0.3-1.3,0.6-2.6,0.9-3.9c0.3-1.3,0.5-2.6,0.7-4l0.3-2
				c0.1-0.7,0.2-1.4,0.3-2.1l-0.9,0.9l-0.3,0.3c-0.1,0.2-0.3,0.3-0.4,0.5c-0.2,0.4-0.5,0.7-0.7,1c-0.7,1.1-1.2,2.4-1.7,3.6
				c-1.1,2.5-2,5-2.8,7.6c0.1-1.6-0.1-3.2-0.6-4.7c-0.7,1.7-2,3.1-3.5,4.1c0.9-2.1,1.1-4.4,0.6-6.7c0.2,0.7-1.4,2.9-1.8,3.5
				c-0.7,1.2-1.7,2.2-3,2.9c0.2-1.9,0.5-3.7,0.9-5.5c0.2-2,0.2-4,0.1-6c-0.3-6-1.8-11.8-5.8-16.4c-3.4-4.1-8.3-6.6-13.6-7
				c-4.6-0.2-9.1,0.4-13.5,1.7c5.2-0.3,10.3,1.3,14.4,4.5c-1-0.2-1.9-0.3-2.9-0.2c-1.1,0-2.2-0.1-3.3-0.1c-2.1,0-4.3,0.1-6.4,0.4
				c-7.7,1.2-13.8,6.3-19.8,10.8c-1,0.6-1.9,1.2-2.8,1.9l-0.3,0.3c0.2-0.4,0.4-0.8,0.6-1.3c3-6.2,4.1-8.9,6.8-11.3
				c-1.3,0.7-2.4,1.5-3.5,2.4c-2.6,2.4-4.8,5.2-6.4,8.4c-0.6,1.1-1.1,2.2-1.7,3.2l0,0l-0.4,0.6c-0.4,1.1-1.2,2-2.1,2.6
				c-2.5,1-15.4,8.3-20.8,8c-5.4-0.3-1.9-10.5-0.3-17.3c1.2-5.2,5.3-9.4,12.3-12.3l0,0c8.4-2.8,16.7-5.9,25-9.2
				c7.6-3.1,15.2-6.6,23.4-7.8c6.1-1.1,12.3-0.7,18.2,1c6.8,2.2,10.7,7,13.4,13.5c0.2-0.2,0.4-0.5,0.6-0.7c0.3,1.9,0.7,3.8,1.2,5.7
				c0.9,2.6,1.4,5.2,1.6,8C247.7,115.4,247.8,117.5,247.9,118.7L247.9,118.7z M214.7,148.9c10.8-4.8,15-18.2,12.2-29.1
				c3.7,6,4.9,13.9,1.2,20.2c-2.7,4.6-5.9,9.4-10.8,11.9c-7.4,3.7-16.4,0.4-22.8-3.9c-6.4-4.3-9.1-12-9.9-19.3c1.6,6,4.3,12,9.3,16
				C199.6,149.3,207.4,152.9,214.7,148.9z M200.6,119.8c6.6-3.1,11.6,8.6,5.7,11.7c-6.4,2.1-12.3-8.4-5.9-11.7H200.6z M156.4,229.5
				c0.1-0.5-4.3-5-4.7-5.5c-2.7-3.3-5-6.9-6.8-10.7c-1.8-4.7-2.4-10.4-3.1-15.4c-2.4-18-1.8-39.3,9.1-54.6
				c5.2-7.3,14.9-11.3,23.8-11.2c0.7,1.2,1.3,2.4,1.7,3.7c1,2.1,2.2,4.2,3.5,6.1c6.6,9.6,19.4,14.7,30.9,14.2
				c4.5-0.1,8.9-1.5,12.7-3.9c1.8-1.2,3.3-2.6,4.7-4.2c2.6,0.8,3.7,3.7,4.2,6.1c0.3,1.4,0.5,2.8,0.6,4.2c0.3,1.7,0.1,3.5-0.6,5.1
				c-1,2-2.5,3.7-4.3,5c-5.3,4.2-12.6,5.1-19.2,4.8c-7.5-0.4-14.8-2.5-21.4-6.1c-0.4-0.2-0.7-0.4-1-0.6c0.4,0.3,0.8,0.9,1.2,1.3
				c0.4,0.4,0.9,0.9,1.3,1.3c0.9,0.9,1.8,1.7,2.8,2.5c3.4,2.9,7.2,5.2,11.3,6.8c1.2,0.5,2.5,0.8,3.8,1c1.3,0.2,2.7,0,4,0.1
				c-11.8,9.7-26.5,15.1-38.1,25.1c-2.7,2.4-5.3,5-7.6,7.8c-1.7,1.9-3.2,3.9-4.4,6.1c-2,3.5-3.6,7.2-4.6,11.2L156.4,229.5z
				 M203.8,291.2c-13.3-8.3-20.4-25.7-22.7-39c-2.3-13.2,2.3-28,2.3-27.9c0.2-0.8,0.4-1.7,0.6-2.5h-0.2c-2.9,5.7-7.9,11.6-8.1,26.6
				c-1-0.7-2.1-1.3-3.2-1.8c-0.9-0.4-1.7-0.9-2.4-1.6c-0.6-1-0.9-2.1-1-3.3c-0.1-2.3,0.3-4.6,1.4-6.7c0.6-1.3,1.3-2.5,2.1-3.6
				c-0.1,0.9-0.2,1.9-0.3,2.9c-0.2,4.4,1.1,5.9,1.1,5.9s-0.8-7.2,6.8-18.5c3.2-3.7,6.8-6.9,10.8-9.7c1.8-1.2,3.9-2,5.7-3.1
				c1.8-1.2,3.5-2.3,5.2-3.5c-12,2.5-21.8,11.1-29,20.7c-2.2,2.9-3.9,6.1-6,9c-0.6,0.9-1.8,2-2.9,1c-0.7-0.6-0.6-2-0.6-2.8
				c-0.1-2.7,0.4-5.3,1.4-7.8c2-5,5-9.5,8.9-13.3c6.2-6,13.4-11,21.2-14.9c5.4-2.8,10.5-6.1,15.3-9.9c5.6-4.1,11.5-7.8,17.3-11.7
				c2.8-1.9,5.7-3.8,8.4-5.8c1.4-1,2.7-2,4-3.1c0.6-0.5,1.3-1,1.9-1.6c0.6-0.5,1.3-1.5,1.8-1.6c-1.9,0.6-3.7,1.5-5.5,2.4
				c-1.7,0.8-3.5,1.5-5.3,2.1c0.9-1.1,2-2.2,3.1-3.1c0.9-0.8,1.9-1.5,2.9-2c2.7-1.1,5.5-1.7,8.4-1.7c-1.5-1.6-3.6-2.7-5.8-3
				c2.2-1.4,4.6-2.6,7.1-3.6c2.2-0.7,4.3-1.8,6.2-3.3c2.2-1.9,4.2-3.9,6.2-6c6.3-7.7,10.6-16.9,12.5-26.6c1.8-8.6,2.5-17.4,2.3-26.2
				c0-2.6-0.2-5.4-2-7.3c0,7.2-0.2,14.4-0.5,21.6c-0.4,9.2-4,16.3-8,24.3c-2.4,4.9-4.7,10.4-9.3,13.4c-3.5,2.3-7.8,2.8-11.9,3.2
				c2.8-2.3,5.1-5.2,6.6-8.5c1.2-2.7,2.1-5.4,2.9-8.3c0.8-2,1.5-4.1,2.1-6.3c1.4-5.7,1.9-11.7,1.6-17.5c-0.7-5.9-1.3-12.1-4.3-17.3
				c-4.1-5.4-10-9.2-16.6-10.6c-3.3-0.7-6.7-0.7-9.9-0.2c-3.1,0.4-6.4,0.8-9.6,1.3c-6.6,1.2-13.1,2.9-19.4,5.1
				c-2.9,1.2-5.6,2.6-8.3,4.1c-5.5,3.1-11.4,5.6-17.5,7.5c-1.5,0.4-3,0.7-4.5,1c0.3,0,0.9-1.4,1.1-1.6l2.9-4.4
				c5.7-8.5,11.5-17.1,17.3-25.5c1.7-2.4,4-4.7,4.8-7.6c0.7-2.2,0.1-4.6-1.6-6.2c-0.4-0.4-0.8-0.7-1.3-1c0,0,4.5-18.4,8-18.3
				c3.5,0.1,7.7,7.8,15.5,9.7c10.2,2.1,20.1,5.4,29.6,9.8c2.8,1.1,5.1,3,6.8,5.5c2.8,4.7,6.9,8.3,9.6,12.9c1.9,3.4,3.6,7,4.8,10.7
				c-1-7.6-4.4-14.5-8.6-20.7c-2.2-2.9-5.3-4.9-7.5-7.8c3.7,2,7.1,4.6,10.1,7.6c6.7,6.6,9.2,16,11.9,24.7c0.3-1.6,0.5-3.1,0.7-4.8
				c-2.9-10.3-7.7-20.6-15.9-27.8c-3.6-2.8-7.6-5-11.8-6.7c5-0.9,10.1,0.1,15.1,0.4c13.7,0.7,27.1,4.2,40,8.5
				c12.7,4.2,25.8,8.3,38.1,13.6c10.2,4.4,22.9,12.1,22.5,24.8c-0.2,3,0.1,6,0.7,9c-3.6-2.2-7.5-4-11.5-5.3
				c5.3,3.5,10.1,7.6,14.3,12.3c0.2,0.5,0.5,1,0.7,1.6c0.4,1.1,0.7,2.3,0.9,3.4c-1,0.2-2.1,0.1-3-0.5c-12.8-5.6-25.4-19.6-40.6-14.8
				c-4.9,1.7-8,6.3-10.5,10.5l-1.2,0.1c0.8,0,1.6-7.3,1.7-8.2c0.3-2.9,0.4-5.7,0.3-8.6c-0.1-4.6-0.5-9.3-1.3-13.8
				c-0.4-2.3-0.9-4.7-1.5-6.9c-0.2-1-0.5-1.9-0.9-2.9c-0.6-0.8-1.1-1.7-1.6-2.6c1.9,7.8,2.5,15.8,1.8,23.7c-0.6,8-2.1,15.9-4.3,23.6
				c-1.9,6.5-3.3,13.2-4,20c-0.5,6.8-0.5,13.6,0.2,20.4c0.7,11.5,2.5,23,5.2,34.2c0.2,0.7,0.4,1.3,0.6,2c2.1,6.9,2.8,10.8-1.6,10.9
				l-0.5-0.3c-13.3-5.8-28.5-9-42.9-5.5c-3.7,1-7.2,2.8-10.1,5.4l-0.2,0.1c-1.9,1.7-3.5,3.6-4.9,5.7c-1.9,3.4-3,7.1-3.3,11l0,0
				l-0.1,0.3c-0.4,5,0.1,10.1,1.3,14.9c3.5,14.8,7.3,23.2,29.4,34.9c0,0-0.7,5.9-0.7,6.3c-0.1,2.2-0.8,4.2-2,6
				c-1.8,2.4-4.7,3.6-7.5,4.7c-2.8,1.1-5.9,2.1-8.9,3.1c-8.3,2.8-16.9,4.6-25.5,5.4C219.7,295.1,210.6,295.5,203.8,291.2z
				 M263.4,203.5c11.3-4.1,23.8-1.2,34.5,3.6c6.9,3.3,14.6,7.7,16.7,15.7c-13.4-13.6-33.1-17.8-51.3-19.3L263.4,203.5z M303.9,254.7
				c-0.2,0.2-0.5,0.5-0.8,0.6c-0.7,0.3-1.4,0.6-2.1,0.7c-1.2,0.3-2.4,0.2-3.6-0.1c-1-0.4-1.7-0.9-1.6-2c0.3-2.9,4-3.8,6.4-3.8
				c1.1,0,2,0.7,2.1,1.8C304.6,252.9,304.4,253.9,303.9,254.7L303.9,254.7z M264.6,216.9c-2.2,0.2-5.1,0.6-6.9-1
				c-0.5-0.5-0.9-1.1-1.1-1.8c-0.4-1.5,0-3.2,1.2-4.3c1.7-1.6,4.5-1.6,6.7-1.6c3.7-0.3,7.4,0.2,11,1.4c1.2,0.4,1.8,1.7,1.5,2.9
				c-0.1,0.2-0.1,0.3-0.2,0.5c-0.5,0.8-1.2,1.5-2.1,1.9c-0.9,0.4-1.8,0.7-2.7,0.9C269.5,216.4,267,216.7,264.6,216.9L264.6,216.9z
				 M270.6,243.5c-0.1,0.1-0.1,0.3-0.2,0.4l0,0c-0.2,0.1-0.4,0.2-0.7,0.2c-1.4,0-2.7-0.5-3.8-1.3c-0.5-0.4-0.9-0.9-1-1.5
				c-0.1-0.5-0.1-1.4,0.4-1.7c0.2-0.1,0.4-0.1,0.5-0.1c1.4-0.3,2.8-0.2,4.2,0.1C271.4,240.2,271,242.2,270.6,243.5L270.6,243.5z
				 M263.3,247.1L263.3,247.1c-0.2,0.4-0.9,0.4-1.3,0.3c-0.9-0.2-1.6-0.9-2-1.7c-0.3-0.7-0.3-1.5-0.2-2.3c0-0.1,0-0.1,0.1-0.2
				c0.5-0.6,2.2,1.2,2.5,1.6C262.7,245.1,263.5,246.5,263.3,247.1z M286.4,313.5c-0.7,0.3-1.3,0.5-2,0.7l-0.3,0.1
				c-1.8,0.4-3.6,1-5.4,1.4c-1.8,0.4-3.8,0.8-5.7,1c-11.6,1.4-23.3-0.1-34.1-4.6c-2.1-0.9-4.2-1.9-6.3-3c-1-0.5-2-1.1-3-1.7
				c-2-1.1-3.8-2.4-5.7-3.6c-0.8-0.5-1.6-1.2-2.2-2c4.2,0.9,9.4,1.4,21.5-1.8c5.2-1.3,10.3-2.8,15.3-4.7c4.5-1.6,9.1-2.7,13.8-3.3
				c4.3,8.4,11.2,15.1,19.7,19l0.3,0.1L286.4,313.5z M322.7,296.5c-4.9,5.7-11.1,12.8-19.5,11.6c-2.8-0.3-5.5-1.2-7.8-2.7l0,0
				c-3.8-2.1-7.8-4.4-10.3-7.6l0,0c-3.5-4.3-6.2-9.2-8-14.5l4-13.7c2.5,0.5,5.1,0.7,7.6,0.4c2.2-0.4,4.4-0.9,6.6-1.6l0.5-0.2
				c7-2.3,14.8-6.3,18-12.3l0.6-1.1c2.3-4.4,4.4-8.9,6-13.5c1.1-3.1,2.7-6.7,2.7-10c0-0.6,0.1-1.3,0.2-1.9l0,0
				c1.3-15.1-10-26.3-13.4-35.9c-2.3-7.6-4.1-15.4-5.4-23.2c3.1,8,6.6,15.9,10.6,23.5c9.3,17.6,15.4,36.6,18,56.3
				C334.7,265.9,333.4,283.6,322.7,296.5L322.7,296.5z M348.9,161.7c2.2-5,3.3-10.3,3.4-15.8c1.6,7.2-1.2,14.3-4.6,20.6
				c-2.4,3.9-6.2,6.7-10.6,7.8c-0.5,0.2-1,0.3-1.5,0.4c-3.4,0.8-7,0.5-10.2-0.9c-3.7-1.3-6.9-3.8-9.2-7c-0.4-0.6-0.8-1.3-1.1-2
				c-0.2-0.3-0.3-0.7-0.4-1c-0.1-0.3-0.2-0.9-0.3-1.1c2.5,2.6,4.4,5.9,7.8,7.6C331.3,175.3,344.8,171.6,348.9,161.7L348.9,161.7z
				 M323.4,151.4c0.9-1.7,3.3-2.4,4.2-0.4c0.3,0.6,0.3,1.2,0,1.8c-0.7,1-1.7,1.7-2.9,2c-0.5,0.1-1,0-1.4-0.4
				C322.9,153.5,322.9,152.3,323.4,151.4L323.4,151.4z M338.4,144.8L338.4,144.8c0.1-1.4,2.9-1.1,3.7-1c0.9,0,4.4,0.2,4.6,1.1
				c0.2,1,0.1,1.9-0.2,2.9c-0.2,0.8-0.6,1.4-1.2,1.9C343,151.4,338.3,147.4,338.4,144.8L338.4,144.8z M361.2,143L361.2,143
				c-0.3-0.3-0.5-0.6-0.8-1c-2.1-2.8-4.5-5.5-7.1-7.8c-2.7-2.2-5.7-3.9-9-5.2c-4.1-1.9-9.3-0.8-9.5-0.8c2.7,1.2,5.5,2.1,8.3,2.7l0,0
				c2.6,0.7,5.1,1.8,7.3,3.4c3.9,2.7,12.4,12.2,14.5,17.9l0,0c3,6.8,1.1,16,0,20.9s-8,9.4-12.5,12.3l0,0l-0.8,0.5
				c-1.7,1.1-3.4,2.2-5.2,3.1c-0.9,0.5-1.8,1-2.7,1.4c-0.8,0.6-1.7,1-2.7,1.3c5.3-0.5,10.4-2.6,15.8-3.3c0.9-0.2,1.9,0,2.7,0.4
				c1.6,1,1.9,3.4,1.9,5.1c-0.1,6.3-3.9,18.9-8.3,28.8c-3.7,7.5-8,14.6-13.1,21.3c0,0-2.2-11.2-4.4-20.3h-0.1v-0.3
				c-0.9-3.8-1.8-7.1-2.5-9.1v-0.1c-0.5-1.1-0.9-2.2-1.3-3.3c-2.1-5.3-4.2-10.6-6.6-15.8c-0.9-1.9-1.8-3.7-2.6-5.6
				c0.4-2.6,1.4-5.1,3-7.2c-1.7,0.5-3.3,1.5-4.5,2.9c-0.6-1.9-1.2-3.9-1.7-5.8l-0.3-1c0.4,0,0.9,0.1,1.3,0.3
				c11.1,2.6,24.9-0.2,30.3-10c5.6-10.2,9.9-8.5,11.2-10.1c1-1.2,0.8-4.1-1-7.8c-0.6-1.2-1.3-2.4-2-3.6c-0.1-0.2-0.3-0.4-0.4-0.6
				c-0.8-1.1-1.6-2.3-2.3-3.5c-4.7-6.3-10.7-11.2-17.2-11.3c-20.2,0.9-32.1,27.5-32.1,27.5s-0.3-1.2-0.6-3.1
				c1.6-3.7,3.6-7.2,6.1-10.4c-2.6,1.7-4.8,3.7-6.8,6.1c-0.1-1-0.3-2.1-0.4-3.3c1.3-3.9,4.1-10.2,8.6-14.2c-2.8,1.1-5.2,2.9-7,5.3
				c-0.7,1-1.4,2-2,3.1c-0.2-2.8-0.1-5.6,0.3-8.4c1.4-9.9,3.6-13.7,11.4-19.9c1.6-1.4,3.3-2.6,5.2-3.4c2.6-0.9,5.3-1.4,8.1-1.6
				c2.3-0.2,4.6-0.2,6.8,0.1c3,0.6,5.9,1.6,8.6,3c1.3,0.6,2.6,1.2,3.9,1.9c4,2.3,7.1,5.8,10.5,8.8s5.9,5.5,7.2,9.8
				c0.9,3,1.4,6.1,1.3,9.3C367.7,148.5,363.4,145.8,361.2,143L361.2,143z M381.9,93.8c-4.1-9.5-2.9-14-2.9-14
				c3.9,5.6,10.2,19.1,11.4,35.1C390.5,115,386,103.4,381.9,93.8z M396.9,142c-0.2,3.8-0.8,7.5-1.7,11.2c0.2-1.6,0.3-3,0.4-4.5
				c0.1-9-0.4-18-1.6-26.9c-0.5-6.3-1.5-12.5-2.8-18.6c-1.5-5.9-3.5-11.6-6-17c-2.1-4.8-4.7-9.6-8.7-13.1c-1.7-1.5-4-2.1-6.1-1.6
				c-1.2,0.2-2.1,1.1-3.3,1.3c1.8-0.1,3.5,0.6,4.7,1.8c-3.9-0.4-7.7,1.7-9.4,5.2c0.2-3.5,1.2-6.9,2.8-10c1-2.6,3.4-4.4,6.1-4.7
				c5.9-0.4,11,6.7,13.6,11.1c4.6,7.7,7.9,16,9.8,24.7c0.7,3,1.2,6,1.6,8.9c1,6.9,1.4,13.9,1.3,20.9
				C397.6,134.7,397.2,138.3,396.9,142z M450.5,143.2c-3.9,10.1-13.2,17.8-18.6,30c-5.4,12.2-17.4,29.8-20.8,32.5
				c-3.4,2.7-12-2.8-12.8-29.5c-0.3-9.6,0.4-19.3,2.2-28.7c0.8-4.1,1.6-9.1,3.6-12.9c2.4-4.6,9-7.1,13.6-8.7
				c1.4-0.6,2.9-0.8,4.4-0.6c2,0.7,3.8,2,4.9,3.8l4.4,5.5c0.3,0.4,0.7,0.8,1.1,1c0.4,0.1,0.8,0.2,1.1,0.1c2.3-0.3,4-2.3,5.7-3.8
				C446.2,125.7,452.9,136.8,450.5,143.2L450.5,143.2z"/>
			<path class="st6" d="M270.2,112.8c1-5.4,1.5-10.9,1.6-16.4c-2.2,5.5-2.1,11.6-2.8,17.4C269.2,113.4,269.9,112.9,270.2,112.8z"/>
			<path class="st6" d="M215.1,237.5c-0.6-2.3-2.5-4.1-4.9-4.4c-1.5-0.1-2.9,0.6-3.8,1.8c-1.2,1.1-1.5,2.8-0.7,4.2
				c0.9,1.9,3,2.9,5,2.4C212.5,241.1,215.5,239.7,215.1,237.5z"/>
			<path class="st6" d="M221.3,244.9c-1.8,0.1-4.5,2.4-4.5,4.3c0,3.5,4.9,6.5,7.6,3.7c1.2-0.8,1.9-2.1,1.9-3.5
				c-0.1-2.5-2.2-4.5-4.7-4.5C221.4,244.9,221.4,244.9,221.3,244.9z"/>
			<path class="st6" d="M318.1,262.7c-1.8,0.1-4.5,2.4-4.5,4.3c0,3.5,4.9,6.5,7.6,3.6c1.2-0.8,1.9-2.1,1.9-3.5
				C323,264.6,320.8,262.5,318.1,262.7C318.2,262.7,318.2,262.7,318.1,262.7z"/>
			<path class="st6" d="M299.4,284.7c-1.8,0.1-4.4,2.4-4.5,4.3c0,3.5,4.9,6.5,7.6,3.6c1.2-0.8,1.9-2.1,1.9-3.5
				C304.3,286.6,302.1,284.6,299.4,284.7C299.5,284.7,299.5,284.7,299.4,284.7z"/>
			<path class="st6" d="M313.9,280.7c-2.9,2-2.4,7.8,1.5,8.3c1.3,0.5,2.8,0.3,3.9-0.5c2-1.6,2.4-4.6,0.7-6.6c0,0,0,0,0,0
				C318.9,280.4,315.5,279.6,313.9,280.7z"/>
			<path class="st6" d="M200.6,248.8c-1.4,1-3,2.5-2.7,4.4c0.5,3.3,5.5,4.3,7.6,1.9C209,252.2,204.3,245.9,200.6,248.8z"/>
			<path class="st6" d="M217.2,262.8c-2.1-0.7-6.8-0.4-7,2.7c-0.1,1-0.1,2.1,0.1,3.1c1.1,4.1,7.4,4.2,9.8,1.3
				C223.4,267.6,219.9,263.7,217.2,262.8z"/>
			<path class="st6" d="M190.5,338.4c3.6,6.2,8.1,11.8,13.3,16.7c4.9,4.4,10.9,7.3,17.4,8.3c-0.6-0.1-1.6-1.3-2.1-1.6
				c-0.7-0.6-1.5-1.1-2.2-1.6c-1.5-1.2-3-2.6-4.3-4c-3.7-3.8-6.9-8-9.6-12.5c-3.4-5.7-6.2-11.6-8.4-17.8c-1.9-5-3.2-10.3-4.1-15.6
				c-0.5,8.1-0.4,16.5,2.6,24c-1.9-2.8-3.4-5.8-4.7-8.9c-1.4-3.1-2.9-6.2-3.9-9.4c-2-5.9-4.4-11.8-5.5-18c-0.3-2.4-0.8-4.8-1.4-7.2
				c-0.5,4-0.4,8,0.3,12c0.2,1.7,0.4,3.3,0.7,5c2.1,10.6,5.9,20.7,11.4,30L190.5,338.4z"/>
			<path class="st6" d="M256.9,397.4c-0.7-4.6-0.3-9.5-2.6-13.6c1.2,11.2,0.1,22.4-0.9,33.5C257.2,411.6,257.7,404.2,256.9,397.4z"
				/>
			<path class="st6" d="M252.1,434.4c-4.1,6.3-9.2,11.5-14.1,17c-3.3,3.7-5.7,8.7-4.4,13.8c3.8-1.8,6.1-5.5,9.1-8.2
				c3.4-3.5,7.4-6.5,10.2-10.5c2.1-4.8,3.3-10,3.6-15.2C254.7,431.7,253.1,432.8,252.1,434.4z"/>
			<path class="st6" d="M251.9,331c-13.7,4.3-29.9,2.5-37.6-3.7c5,5.8,12.3,9.2,19.9,9.3C247.3,336.8,251.9,331,251.9,331z"/>
			<path class="st6" d="M146.3,360.8c0,0,7.2,18,16.9,28.5c9.8,10.6,31.3,19.4,42.1,35.9c-2.3-6.3-5.6-12.2-9.8-17.5
				c-6.5-7.6-14.2-10.4-24.4-18.3S146.3,360.8,146.3,360.8z"/>
			<path class="st6" d="M323.6,130.1c-0.4,0.1-0.8,0.2-1.3,0.4c-0.4,0.1-0.8,0.3-1.2,0.5c-3.3,1.3-6.1,3.7-7.9,6.8
				c2.3-2,5-3.5,7.9-4.3c4.3-1.5,8.8-2.4,13.4-2.8c0.8,0,1.6-0.1,2.2-0.1C332.5,129.2,328,129.1,323.6,130.1z"/>
		</g>
	</g>
</g>
</svg>
