<svg id="Layer_2" data-name="Layer 2" xmlns="http://www.w3.org/2000/svg" viewBox="0 0 662.74 346.8"><defs><style>.cls-1{fill:#8c614c;}.cls-2{fill:#68473a;}.cls-3{fill:#ef6a87;}.cls-4{fill:#ce5d7b;}.cls-5{fill:#fff;opacity:0.47;isolation:isolate;}.cls-6{fill:#aa735e;}</style></defs><path class="cls-1" d="M1711.81,910c10.26-9,23.49-13.84,36.55-17.89,4.3-10.86-.34-24.86,7.27-33.71,2.82-3.27,6.87-5.17,10.83-6.87A224.81,224.81,0,0,1,1815.27,837q2.14-9.35,4.28-18.69l63.87-10.12c2.83-.45,5.85-.87,8.47.28,4.5,2,5.9,7.53,8.61,11.63,7.19,10.9,23.34,10.87,35.72,6.7s24.39-11.27,37.41-10.43c13.92.91,25.45,10.67,35.87,19.94,10.73,9.56,22.51,23.42,16.6,36.51,11.49.75,23.26,1.56,33.76,6.28s19.64,14.23,20.53,25.71l30.51,7a344.59,344.59,0,0,1,11.4,64.54c-38.49-.62-79.23-.67-112.34,19-17,10.09-30.82,24.76-47,36.1s-36.72,19.39-55.64,13.62c-26-7.91-40.15-38.78-66.44-45.49s-52.06,13.41-79.1,13.4c-21.22,0-41.79-13.79-49.87-33.41C1701.76,954.86,1687,931.8,1711.81,910Z" transform="translate(-1573.54 -807.68)"/><path class="cls-2" d="M2110.9,911.73l-30.51-7c-.89-11.48-10-21-20.53-25.71s-22.27-5.53-33.76-6.28c5.91-13.09-5.87-27-16.6-36.51-10.42-9.27-22-19-35.87-19.94-13-.84-25,6.27-37.41,10.43a32.09,32.09,0,0,1-3.55,1c3.47,2.69,6.79,5.6,10,8.46,10.74,9.56,22.52,23.42,16.6,36.51,11.49.75,23.27,1.56,33.77,6.28s19.64,14.23,20.53,25.71l30.5,7a345.42,345.42,0,0,1,11.41,64.54c-38.49-.62-79.23-.67-112.34,19-17,10.09-30.82,24.76-47,36.1-2.07,1.44-4.21,2.84-6.41,4.16a56.16,56.16,0,0,0,17.58,9.46c18.92,5.77,39.44-2.28,55.64-13.62s30-26,47-36.1c33.11-19.62,73.85-19.57,112.34-19A345,345,0,0,0,2110.9,911.73Z" transform="translate(-1573.54 -807.68)"/><path class="cls-2" d="M1774,999.45c-13.7-3.49-27.3.33-41,4.77a53.83,53.83,0,0,0,28.74,8.63c9.69,0,19.24-2.58,28.7-5.58A50.51,50.51,0,0,0,1774,999.45Z" transform="translate(-1573.54 -807.68)"/><path class="cls-3" d="M2202.9,1111.6l-54.52-152.66A31.52,31.52,0,0,0,2118.71,938H1691.1a31.49,31.49,0,0,0-29.66,20.91l-54.53,152.66h-33.37v42.91h662.74V1111.6Z" transform="translate(-1573.54 -807.68)"/><path class="cls-4" d="M2202.9,1111.6l-54.52-152.66A31.52,31.52,0,0,0,2118.71,938H2065a31.5,31.5,0,0,1,29.66,20.91l54.52,152.66h33.38v42.91h53.69V1111.6Z" transform="translate(-1573.54 -807.68)"/><polygon class="cls-4" points="575.68 303.92 219.73 303.92 587.85 269.59 575.68 303.92"/><path class="cls-5" d="M1679.79,973.72c2,2.67,6.61,3.22,10.59,3.48a930.71,930.71,0,0,0,124.19-.49c5.25-.37,10.76-.86,15-3.23s6.75-7.28,3.85-10.7c-2.64-3.11-8.13-3.63-12.91-3.86l-25.93-1.21-34.84-1.63c-19-.89-37.84-1.49-56.83-.29C1693.07,956.41,1670.23,961.18,1679.79,973.72Z" transform="translate(-1573.54 -807.68)"/><path class="cls-5" d="M1854.31,960.79c-3.54,1.24-3.46,6.83-.63,9.28s7,2.59,10.71,2.45c3.33-.12,6.79-.39,9.69-2s5.05-5.06,4.21-8.29c-1.33-5.09-8.27-5.94-13.4-4.76A42.43,42.43,0,0,0,1853.4,962Z" transform="translate(-1573.54 -807.68)"/><path class="cls-5" d="M1587.32,1129a4,4,0,0,0-.92,2.56,4.12,4.12,0,0,0,1.93,2.67c5.23,3.93,11.93,5.5,18.48,5.67s13-1,19.51-2a443.42,443.42,0,0,1,123.38-1.54c11.88,1.52,23.8,3.52,35.77,3,4.63-.2,10.24-1.55,11.53-6,1-3.29-1-6.74-3.47-9.15-5.83-5.78-14.31-8.22-22.51-8.5s-16.34,1.36-24.45,2.64c-44.25,7-89.13,3.41-133.68,3.26C1603.6,1121.62,1593.38,1120.2,1587.32,1129Z" transform="translate(-1573.54 -807.68)"/><path class="cls-6" d="M1790.81,866.46a7.72,7.72,0,0,0-3.3,3c-1,2-.13,4.53,1.21,6.35,4,5.49,11.42,6.89,18,8.55a102.59,102.59,0,0,1,18,6.34c3.83,1.76,7.76,3.8,12,3.72,6.9-.15,12.87-7.13,11.85-14-.62-4.15-3.4-7.74-6.82-10.17a39.25,39.25,0,0,0-11.47-5.06C1816.56,861.13,1804,858.82,1790.81,866.46Z" transform="translate(-1573.54 -807.68)"/><path class="cls-6" d="M1735.61,913.18c-2.11,1.52-4.31,3.32-4.88,5.86-.88,4,2.9,7.74,6.9,8.48s8-.62,11.95-1.78a132.84,132.84,0,0,1,44.49-5.41c3.07.15,6.7.16,8.5-2.33a6.47,6.47,0,0,0,1.07-3.06c.93-7.67-5.91-14.24-13.1-17.07C1771.47,890.35,1750.83,902.2,1735.61,913.18Z" transform="translate(-1573.54 -807.68)"/><path class="cls-6" d="M1852.59,903.54a24.61,24.61,0,0,0-2.55,7l-2.7,10.62c-.29,1.13-.52,2.48.3,3.31a3.45,3.45,0,0,0,2.18.75,317.19,317.19,0,0,0,37.75,1.35,6.52,6.52,0,0,0,3.36-.69,6.59,6.59,0,0,0,2.28-3.39c1.56-3.87,3.14-7.84,3.3-12C1897.25,891.12,1861,890,1852.59,903.54Z" transform="translate(-1573.54 -807.68)"/><path class="cls-6" d="M1839.26,826.54a76.36,76.36,0,0,1,39.91,3.25c3.52,1.28,7.64,2.77,10.79.74,3-1.92,3.45-6.47,1.57-9.48s-5.5-4.58-9-4.93-7.08.34-10.58.93c-11.5,1.93-23,1.05-34.42,2.39C1827.41,820.63,1827.25,828.79,1839.26,826.54Z" transform="translate(-1573.54 -807.68)"/><path class="cls-6" d="M1871.81,853.13c-2.27,4.8-2.25,10.32-2.18,15.63,0,3.83.39,8.25,3.51,10.49,2.79,2,6.67,1.35,9.89.14,3-1.13,6.07-2.94,7.12-6,.73-2.08.36-4.36.57-6.55.49-5.06,4.12-9.42,8.56-11.91s9.58-3.35,14.65-3.78a20.92,20.92,0,0,0,6.6-1.2c14-6-11-16.88-18.12-15.69C1892.06,836,1876.52,843.17,1871.81,853.13Z" transform="translate(-1573.54 -807.68)"/></svg>