<svg id="Layer_1" data-name="Layer 1" xmlns="http://www.w3.org/2000/svg" viewBox="0 0 2225.7 2883.33"><defs><style>.cls-1{opacity:0.2;}.cls-2{fill:#000072;}.cls-3{fill:#fcc06a;}.cls-4{opacity:0.35;}.cls-5{fill:#fff;}.cls-6{opacity:0.3;}.cls-7{fill:#e8c797;}.cls-8{fill:#6b184e;}.cls-9{fill:#ef5050;}.cls-10{fill:#686779;}.cls-11{fill:#343c47;}.cls-12,.cls-14{fill:none;}.cls-12{stroke:#6b184e;stroke-linecap:round;stroke-miterlimit:10;stroke-width:39.54px;}.cls-13{fill:#a16044;}.cls-15{opacity:0.7;}.cls-16{fill:#91867e;}.cls-17{fill:#ff889c;}.cls-18{opacity:0.5;}.cls-19{fill:#ff1552;}.cls-20{fill:#d8255c;}.cls-21{fill:#fc327f;}</style></defs><g class="cls-1"><ellipse class="cls-2" cx="1112.83" cy="2798.9" rx="1098.7" ry="84.43"/></g><path class="cls-3" d="M1107.21,3761.59c-66.14,58.51-79.13,205.51,39.86,290.65,76.74,54.91,147.11,52.53,205.9-7,95.25-96.4,45.45-172.83-28.32-231.63S1169.76,3706.3,1107.21,3761.59Z" transform="translate(-806.6 -1789.41)"/><g class="cls-4"><path class="cls-5" d="M1394.14,3988.76c4.54-53-33-98.06-80.39-135.86-73.74-58.8-154.88-107.33-217.43-52-15.41,13.59-27.92,32-36.54,53.31,6.09-37.8,23.19-71.16,47.41-92.57,62.59-55.28,143.69-6.75,217.47,52C1383.37,3860.44,1426.89,3918.44,1394.14,3988.76Z" transform="translate(-806.6 -1789.41)"/></g><g class="cls-6"><path class="cls-2" d="M1147.05,4052.23c76.77,54.91,147.15,52.54,205.94-7,64.52-65.27,62.49-121.42,31.49-169.12-153.1-50.79-123.81,54.76-193.59,71.25-65.38,15.45-95.91-97-114.82-144.36C1040.86,3873.2,1050.49,3983.1,1147.05,4052.23Z" transform="translate(-806.6 -1789.41)"/></g><path class="cls-2" d="M1252.55,4111.16c-37.5,0-77-14.25-117-42.84-59.47-42.56-94.17-103.76-97.7-172.34-3-58.69,18.54-115.87,56.26-149.21h0c84.59-74.76,195.49,13.65,242.85,51.4,56.48,45,85.26,89.33,88,135.47,2.48,41.87-17,84.1-57.93,125.52C1332.82,4093.8,1293.92,4111.16,1252.55,4111.16ZM1120.31,3776.4c-28.91,25.55-45.37,70.6-43,117.55,2.9,56.3,31.74,106.8,81.23,142.21,69.21,49.52,128.2,48,180.33-4.79,32.7-33.1,48.37-65.2,46.59-95.39-2-34.3-26-69.26-73.18-106.89-92.74-73.92-150.16-89.68-192-52.69Z" transform="translate(-806.6 -1789.41)"/><path class="cls-7" d="M1231.62,4503.88c-8.49-624.52,220.9-1249,220.9-1249h899.26s229.39,624.52,220.91,1249Z" transform="translate(-806.6 -1789.41)"/><path class="cls-8" d="M2572.7,4523.65h-.28a19.75,19.75,0,0,1-19.5-20c7.67-564.73-182.84-1136.42-215.11-1229H1466.5c-32.25,92.56-222.78,664.47-215.11,1229a19.76,19.76,0,0,1-19.51,20h-.27a19.76,19.76,0,0,1-19.76-19.5c-8.44-621,219.81-1249.85,222.11-1256.13l4.76-13h926.86l4.76,13c2.31,6.28,230.55,635.14,222.12,1256.13A19.77,19.77,0,0,1,2572.7,4523.65Z" transform="translate(-806.6 -1789.41)"/><path class="cls-9" d="M1463.68,3207.83q1.2-18,3.77-33.59C1466.28,3192.1,1464.05,3205.66,1463.68,3207.83Z" transform="translate(-806.6 -1789.41)"/><g class="cls-6"><path class="cls-8" d="M1502.3,3187.58a166.68,166.68,0,0,1-2.61,17.78c-.86-3.52-1.76-6.93-2.79-10.34a5.7,5.7,0,0,1,3.69-7.17A5.51,5.51,0,0,1,1502.3,3187.58Z" transform="translate(-806.6 -1789.41)"/></g><g class="cls-6"><path class="cls-8" d="M2352.19,3194.34c-3.64-4.26-5.57-6.76-5.57-6.76a5.67,5.67,0,0,1,5.67,5.69A5.46,5.46,0,0,1,2352.19,3194.34Z" transform="translate(-806.6 -1789.41)"/></g><polygon class="cls-10" points="1111.48 721.79 1111.48 721.85 1111.36 721.79 1111.48 721.79"/><polygon class="cls-10" points="1111.36 721.79 1111.25 721.85 1111.25 721.79 1111.36 721.79"/><path class="cls-5" d="M1899.49,2946.64c26.64,75.74,154.64,143.59,189.67-18Z" transform="translate(-806.6 -1789.41)"/><path class="cls-5" d="M1899.49,2935.43c.71,81-142.08,141.34-163.85-16.41Z" transform="translate(-806.6 -1789.41)"/><path class="cls-11" d="M1720.13,2925.89c17.5,65.24,58.45,113.23,123.65,61.73,15.41-12.81,28.06-29.85,34.52-47.54l18.78-51.34,18.54,51.34c17.91,50.28,91.35,100.37,132.52,44.67,13.5-17.1,21.34-37.52,28.3-58.29a10.48,10.48,0,0,1,13-7.08l.41.13a10.45,10.45,0,0,1,6.94,11.37c-3.49,24.9-9.66,49.54-23.65,71.44-54.13,85.76-167.07,30.67-194.85-49.11h37.31c-9.6,26.47-26.63,47.89-47.47,64.63-46.91,38.57-113.53,40.2-148.27-14.91-14.42-21.87-21.12-46.5-25.42-71.47a13.13,13.13,0,0,1,10.57-15.27h0a13.17,13.17,0,0,1,15.09,9.7Z" transform="translate(-806.6 -1789.41)"/><path class="cls-11" d="M1899.26,2815c6.78,50.08,12.21,100.13,17.47,150.36l-39.54.46q3-37.53,5.64-75.1c1.72-25,3.35-50.13,4.52-75.11l11.91-.61Z" transform="translate(-806.6 -1789.41)"/><path class="cls-11" d="M2053.52,2785.1c.5,52.31-70,95.4-157.48,96.23s-158.79-40.89-159.29-93.2,70.45-49.32,157.92-50.15S2053,2732.83,2053.52,2785.1Z" transform="translate(-806.6 -1789.41)"/><g class="cls-6"><path class="cls-5" d="M1959.37,2776.33c.13,13.7-25.95,25-58.25,25.36s-58.59-10.55-58.72-24.25,26.06-13,58.36-13.29S1959.23,2762.63,1959.37,2776.33Z" transform="translate(-806.6 -1789.41)"/></g><g class="cls-6"><path class="cls-5" d="M2803.87,2874.36c-.17-9.49-.46-19.15-.8-28.87-.28-7.44-.57-15-.91-22.61-11.13-243.73-68.51-544.85-241.91-712.11-55.06-53.18-120.51-93.35-188.34-123.57-13.13-5.91-26.37-11.42-39.6-16.59-207.61-81-422.93-77.1-422.93-77.1s-268.17,4.77-490.43,126.41c-55.16,30.23-107.55,67.61-152.26,114-162.55,168.57-211.18,459.75-216,700-.12-4.83-.17-9.72-.23-14.66-3.18-250.72,38.18-582.24,216.18-766.83,44.71-46.36,97.1-83.74,152.26-114C1641.21,1816.75,1909.37,1812,1909.37,1812s215.32-3.86,422.93,77.1c13.23,5.17,26.47,10.68,39.6,16.59,67.83,30.22,133.28,70.39,188.34,123.57,173.4,167.26,230.78,468.38,241.91,712.11.34,7.62.63,15.17.91,22.62C2804.37,2802.71,2804.55,2839.76,2803.87,2874.36Z" transform="translate(-806.6 -1789.41)"/></g><path class="cls-3" d="M2377.75,3382.46s391.13-127.36,417.62-364.12c24.88-222.12,16.27-746.45-235.16-989.09C2327.37,1804.49,1909.37,1812,1909.37,1812s-418,7.47-642.65,240.4c-242.6,251.48-232.59,775.8-199.67,996.87,41.79,280.64,448.5,348.64,448.5,348.64h0a1702.07,1702.07,0,0,0,828.52-6.68Z" transform="translate(-806.6 -1789.41)"/><g class="cls-6"><path class="cls-5" d="M2804.46,2865c-3.69-252.49-55.67-592.81-244.24-774.78-232.85-224.76-650.85-217.32-650.85-217.32s-417.93,7.5-642.69,240.44c-164.88,170.9-213,467.93-216.64,710-3.8-251.17,37.67-585.41,216.64-771,224.8-232.9,642.69-240.4,642.69-240.4s417.92-7.44,650.81,217.32C2764.37,2226.35,2808.44,2609.16,2804.46,2865Z" transform="translate(-806.6 -1789.41)"/></g><g class="cls-6"><path class="cls-2" d="M2795.37,3018.34c-26.47,236.69-417.64,364.13-417.64,364.13l-33.64,8.75a1702.67,1702.67,0,0,1-828.52,6.64s-406.68-68-448.5-348.61c-11.25-75.56-19.83-186.52-16.48-310,2.16,79.14,8.64,148.91,16.48,201.46,41.82,280.61,448.5,348.62,448.5,348.62a1702.83,1702.83,0,0,0,828.52-6.65l33.64-8.75s391.17-127.43,417.64-364.12c4-36.36,7.22-80.74,8.58-130.68C2806.51,2873.58,2802.19,2957.38,2795.37,3018.34Z" transform="translate(-806.6 -1789.41)"/></g><path class="cls-2" d="M1674,3434.1c-56.45,3.61-111.68-6.14-166.53-17.54-150.25-31.85-312.43-97.39-405.14-226.27a325,325,0,0,1-53-123.58c-10.62-62.13-15.38-125-18.37-187.64-8.39-256.57,15.68-546.17,159.46-766.29,59.63-90.22,147.92-159.45,243.86-207.23,148-72.89,312-108.5,476.21-116.14,154.15,2.21,309,29,452,88.1,98.72,41.34,192.22,102.7,259.41,187.31,187.26,241.13,217.37,617.71,198,913-2.38,27.18-4.11,54.42-11.5,81-39.45,134-163.59,218.43-280.15,280.42-44.3,22.66-89.77,43.17-136.9,59.18-54.22,15.67-110,25.85-166.34,29.32-11.86.45-14.29-16.32-3.27-19.5,49.8-14.33,99.53-28.54,148.6-43.52,10.57-3.41,24.49-9.36,34.86-13.21,143.23-57.82,351.57-169.42,370.32-338.63,26.19-290.08-2.81-685.34-187.38-920.92-63.24-79-149.79-135-242.74-173.8-137-56.25-286.63-81.71-434.47-83.55-156.69,7.56-315.52,41.08-456.79,110.47-144.78,71-239.25,176.21-297.79,326.17-90.85,236.91-100.13,509.7-71,759.85,9.88,102,73.55,182.38,157.53,237.91,78.77,52.35,170.41,86.48,262.8,106.82,57,11.46,113.65,24,170.08,38.6,11,2.58,9.43,19-1.7,19.7Z" transform="translate(-806.6 -1789.41)"/><g class="cls-6"><path class="cls-2" d="M2803.07,2764c-45.17-35.46-123.76-187.89-174.27-326.8-124.19-341.29-299.85-527.24-286.67-528.78,9.89-1.19,19.78-2.1,29.78-2.72,67.83,30.22,133.28,70.39,188.34,123.57,173.4,167.26,230.78,468.38,241.91,712.11C2802.5,2749,2802.79,2756.52,2803.07,2764Z" transform="translate(-806.6 -1789.41)"/></g><path class="cls-12" d="M1507.76,2991.26" transform="translate(-806.6 -1789.41)"/><path class="cls-2" d="M2327.54,2317.63c-34.41-4.41-68.55-13.12-103.1-14.8-45.89-1.6-91.32,9.06-130.66,32-10.1,5.88-29.15,17.39-39.38,23.53-38.68,23.37-83.61,35.34-128.67,36.56-38,.34-76.08-7-110.91-22.47-25.47-11.86-46.2-25.47-70.28-36.69-37.3-17.48-79.29-24.25-120.4-21.14-34.37,3.1-68.11,13.11-102.27,18.82a7.84,7.84,0,0,1-9.19-6.22v0a7.87,7.87,0,0,1,5.14-8.9c34.43-11.32,66.53-24.6,102.93-31.21,45.92-7.45,94.65-2.3,138.14,15.55,23.81,9.93,48.78,24.87,71.34,34.48a237.82,237.82,0,0,0,189.28-2.71c30.81-14.3,62.67-36.9,96.45-46.84,53.11-17.57,111.76-15.26,163.76,2.27q25.41,7.4,50.7,15.34c7.11,2.36,5.22,13.5-2.87,12.47Z" transform="translate(-806.6 -1789.41)"/><path class="cls-2" d="M2215.3,2216.27c-24.67-2.35-50.65-8.46-74.87-9a179.75,179.75,0,0,0-69.12,12.46c-17.62,6.91-35.19,19.08-51.67,28.89-53.27,32.42-122.08,36.37-178.88,10.64-24.31-11.25-42.63-25.07-66.89-33.66-34.19-12.08-69.84-12.24-105.45-4.13-12.63,2.35-25.27,4.66-38,6.65a7.88,7.88,0,0,1-4-15.15c12-4.66,24.12-9,36.23-13.26,37.72-15,81.57-18.69,121.52-7.27,25,6.23,49.67,21.7,72.08,31.43a169.55,169.55,0,0,0,100.8,8.82c30.61-5.59,55-23.81,83.61-36.94a189.06,189.06,0,0,1,102-13.9c26.9,4.38,50.28,13.7,75.56,21.94,7,2.51,4.8,13.32-2.87,12.47Z" transform="translate(-806.6 -1789.41)"/><ellipse class="cls-13" cx="1567.38" cy="2628.33" rx="201.72" ry="207.81" transform="translate(-853.14 -1761.09) rotate(-1.02)"/><ellipse class="cls-14" cx="1584.35" cy="2628.33" rx="201.72" ry="207.81" transform="translate(-853.14 -1760.79) rotate(-1.02)"/><ellipse class="cls-13" cx="2254.8" cy="2616.1" rx="201.72" ry="207.81" transform="translate(-852.81 -1748.86) rotate(-1.02)"/><ellipse class="cls-14" cx="2271.76" cy="2616.09" rx="201.72" ry="207.81" transform="translate(-852.81 -1748.55) rotate(-1.02)"/><path class="cls-12" d="M1929.76,2955" transform="translate(-806.6 -1789.41)"/><path class="cls-12" d="M1930.37,2985.74" transform="translate(-806.6 -1789.41)"/><path class="cls-13" d="M2178.21,3297.45c150-33.36,282.68-122.56,365.7-251.83a445.42,445.42,0,0,0,26-46c76.39-157.58-31.63-308.15-166.59-278-101.7,22.74-149.34,88.66-268.16,36-87.57-38.83-162.21-51.75-218.28-50.74s-130.2,16.57-216.4,58.5c-116.79,56.88-166.76-7.3-269.2-26.38-136-25.35-238.52,129-156.56,283.73a451.62,451.62,0,0,0,26.75,43.76c90,131,231.23,217.39,387.9,244.24,69,11.83,150.83,20.5,238.64,18.93C2016.14,3328.15,2104.37,3313.88,2178.21,3297.45Z" transform="translate(-806.6 -1789.41)"/><path class="cls-14" d="M2186.7,3297.45c150-33.35,282.67-122.56,365.67-251.83a445.42,445.42,0,0,0,26-46c76.39-157.58-31.63-308.15-166.59-278-101.7,22.74-149.34,88.66-268.16,36-87.57-38.83-162.21-51.75-218.28-50.74s-130.2,16.57-216.4,58.5c-116.79,56.88-166.76-7.3-269.2-26.38-136-25.35-238.52,129-156.56,283.73a451.62,451.62,0,0,0,26.75,43.76c90,131,231.23,217.39,387.9,244.24,69,11.83,150.83,20.5,238.64,18.93C2024.62,3328.15,2112.87,3313.88,2186.7,3297.45Z" transform="translate(-806.6 -1789.41)"/><g class="cls-6"><path class="cls-2" d="M1206.52,2487c-42.81,141.41-112.94,294.23-156,332.24-3.15-250.75,38.19-582.26,216.21-766.85,44.69-46.34,97.07-83.75,152.26-114,14.89-.19,29.68.21,44.4,1.09C1476.71,1940.3,1311.67,2139.28,1206.52,2487Z" transform="translate(-806.6 -1789.41)"/></g><path class="cls-13" d="M1148.84,2363.3c-51.55,145.65-54.94,308.14-120.75,285.3S815.75,2320.1,827,2210.26c13.57-132.91,339-332.89,619.61-302.47,11.36,1.23,15.43,15.81,6.66,23.13C1438.65,1943.1,1252.63,2070.1,1148.84,2363.3Z" transform="translate(-806.6 -1789.41)"/><g class="cls-15"><path class="cls-5" d="M834.19,2283a148.64,148.64,0,0,1,.45-20.24c13-127.5,312.82-316.63,584.94-305.09,18.13-15.25,30.35-24,33.66-26.76,8.78-7.34,4.72-21.9-6.65-23.12-280.67-30.45-606.06,169.57-619.65,302.44C825,2229.4,827.83,2254.48,834.19,2283Z" transform="translate(-806.6 -1789.41)"/></g><g class="cls-6"><path class="cls-2" d="M1028.1,2648.59c65.78,22.84,69.17-139.62,120.73-285.27,103.79-293.29,289.81-420.21,304.41-432.39,8.51-7.16,4.92-21.13-5.75-23-81.68,54.8-193,149.65-289.71,304.09-85,135.76-101.19,281.83-164.91,258.75-47.69-17.27-141.41-175.66-126.69-341.68-22.74,28.12-36.64,55.81-39.24,81.11C815.73,2320.1,962.27,2625.75,1028.1,2648.59Z" transform="translate(-806.6 -1789.41)"/></g><path class="cls-2" d="M1040,2670.51a56.19,56.19,0,0,1-18.34-3.23c-54.15-18.79-121.52-155.43-140.88-196.87-39.76-85.08-79.92-198.63-73.44-262.16,4.84-47.34,43.11-102.24,107.77-154.58,121.13-98.06,333.12-187.26,533.66-165.54a32.54,32.54,0,0,1,27.6,23,33,33,0,0,1-10.4,35c-1.09.91-3,2.39-5.7,4.44-127.51,97.32-231.47,246.25-292.74,419.35h0c-16.62,47-28.3,96.45-38.61,140.11-18.64,79-32.11,136-65.88,154.6A47.48,47.48,0,0,1,1040,2670.51Zm348-746c-171.57,0-348,79-448,160-55.59,45-89.6,91.6-93.3,127.86-4.68,45.74,22.77,140.5,69.91,241.4,49,104.89,97.39,169.09,118,176.25,5.77,2,8.12.72,9.37,0,18.37-10.1,32.64-70.56,46.45-129,10.53-44.63,22.48-95.23,39.81-144.21h0c62.4-176.3,167.73-328.83,297.26-430.8-13.08-1-26.31-1.5-39.52-1.5Z" transform="translate(-806.6 -1789.41)"/><path class="cls-13" d="M2690,2363.3c51.56,145.65,55,308.14,120.76,285.3s212.34-328.54,201.12-438.34c-13.58-132.91-339-332.89-619.62-302.47-11.36,1.23-15.43,15.81-6.66,23.13C2400.2,1943.1,2586.23,2070.1,2690,2363.3Z" transform="translate(-806.6 -1789.41)"/><g class="cls-15"><path class="cls-5" d="M3004.67,2283a148.64,148.64,0,0,0-.46-20.24c-13-127.5-312.82-316.63-584.94-305.09-18.13-15.25-30.34-24-33.66-26.76-8.77-7.34-4.71-21.9,6.65-23.12,280.67-30.45,606.07,169.57,619.65,302.44C3013.87,2229.4,3011,2254.48,3004.67,2283Z" transform="translate(-806.6 -1789.41)"/></g><g class="cls-6"><path class="cls-2" d="M2810.75,2648.59C2745,2671.43,2741.58,2509,2690,2363.32c-103.79-293.29-289.81-420.21-304.42-432.39-8.5-7.16-4.92-21.13,5.75-23,81.69,54.8,193,149.65,289.72,304.09,85,135.76,101.19,281.83,164.9,258.75,47.7-17.27,141.41-175.66,126.7-341.68,22.73,28.12,36.63,55.81,39.23,81.11C3023.12,2320.1,2876.59,2625.75,2810.75,2648.59Z" transform="translate(-806.6 -1789.41)"/></g><path class="cls-2" d="M2798.91,2670.51a47.44,47.44,0,0,1-23-5.91C2742.14,2646,2728.67,2589,2710,2510c-10.31-43.67-22-93.16-38.62-140.12h0c-61.26-173.1-165.23-322-292.73-419.35-2.69-2-4.62-3.53-5.71-4.44a33,33,0,0,1-10.39-35,32.54,32.54,0,0,1,27.6-23c200.54-21.73,412.52,67.48,533.65,165.54,64.66,52.34,102.93,107.24,107.77,154.58,6.49,63.53-33.68,177.08-73.43,262.16-19.36,41.44-86.74,178.08-140.88,196.87A55.89,55.89,0,0,1,2798.91,2670.51Zm-90.26-313.81c17.34,49,29.28,99.58,39.82,144.22,13.8,58.47,28.08,118.93,46.45,129,1.26.69,3.61,2,9.36,0,20.64-7.16,69-71.36,118-176.25,47.15-100.9,74.59-195.66,69.92-241.4-3.7-36.26-37.71-82.86-93.31-127.86-107.72-87.2-304.09-172.11-487.52-158.51,129.53,102,234.87,254.5,297.26,430.8Z" transform="translate(-806.6 -1789.41)"/><path class="cls-16" d="M2287.68,2913.42s45.43,126.92-77.73,159.34c-103,27.1-170.92-43.18-281.12-113.26-107.62,74-173,146.63-276.88,123.23-124.25-28-83.38-156.46-83.38-156.46Z" transform="translate(-806.6 -1789.41)"/><path class="cls-2" d="M2189.48,3017s-95.66,109.44-190.34,149.95c-20.72,8.87-51.54,17.17-82.35,17.17s-61.62-8.3-82.35-17.17C1739.76,3126.44,1644.1,3017,1644.1,3017Z" transform="translate(-806.6 -1789.41)"/><path class="cls-2" d="M2204.37,3030c-37.95,42.54-78.21,80.58-124.15,114.31-46.55,34.64-103.55,62.46-163.42,62.4-90.37.89-167.12-56.44-231.42-113.25a844.86,844.86,0,0,1-60.43-59.72,25.45,25.45,0,0,1,1.75-35.95l.06-.05a25.46,25.46,0,0,1,36,1.83c.19.2.37.41.55.62,17,19.4,36.32,38.88,55.44,56.67,75.92,69.78,163.61,133.49,269.79,90.74,47.35-19.7,90.49-53.2,129.24-87.6,19.91-17.88,39.53-37.06,57.19-56.45,17.82-18.56,46.07,6.34,29.43,26.4Z" transform="translate(-806.6 -1789.41)"/><path class="cls-17" d="M2031.09,3110.78c-6.22,27.23-16.09,54.2-31.38,76.39-42.63,61.85-132.24,61.85-174.87,0-14.66-21.23-24.32-46.93-30.58-72.89-12.37-51.39-11.68-104.16-10.62-127.15.37-7.59.8-11.94.8-11.94l128.31-62.64,127.41,62.64s.27,2.6.53,7.33C2041.86,3001.89,2043.56,3056.73,2031.09,3110.78Z" transform="translate(-806.6 -1789.41)"/><g class="cls-6"><path class="cls-5" d="M2031.09,3110.78c-6.22,27.23-16.09,54.2-31.38,76.39-42.63,61.85-132.24,61.85-174.87,0-14.66-21.23-24.32-46.93-30.58-72.89-12.37-51.39-11.68-104.16-10.62-127.15,0-.53,0-1.06.11-1.59,1.11,23.31,4,50.86,10.51,78,6.26,26,15.92,51.65,30.58,72.89,42.63,61.85,132.24,61.85,174.87,0,15.29-22.19,25.16-49.16,31.38-76.39,6-25.91,8.7-52,9.76-74.33C2042,3007.36,2042.92,3059.44,2031.09,3110.78Z" transform="translate(-806.6 -1789.41)"/></g><path class="cls-2" d="M1905.77,3108.74l-9.6-164.64a20.13,20.13,0,1,1,40.2-2.27,21.49,21.49,0,0,1,0,2.27l-9.6,164.63c-1,13-20,13.06-21,0Z" transform="translate(-806.6 -1789.41)"/><path class="cls-2" d="M1912.29,3253.34h0c-41.85,0-79.66-20-103.72-54.94-56.56-82-44.37-219.28-43.82-225.09a19.77,19.77,0,0,1,39.37,3.71c-.12,1.27-11.34,128.81,37,198.94,16.57,24,42.51,37.83,71.16,37.83s54.59-13.78,71.17-37.83c48.48-70.33,37.13-197.66,37-198.94a19.77,19.77,0,0,1,17.83-21.54h0a19.79,19.79,0,0,1,21.54,17.83c.55,5.81,12.73,143.06-43.82,225.09C1992,3233.31,1954.15,3253.34,1912.29,3253.34Z" transform="translate(-806.6 -1789.41)"/><g class="cls-6"><path class="cls-2" d="M2031.09,3110.78c-36.58-17.68-74.65-43.75-120.52-73-44.27,30.42-80.9,57.55-116.31,76.45-12.37-51.39-11.68-104.16-10.62-127.15l257-4.61C2041.86,3001.89,2043.56,3056.73,2031.09,3110.78Z" transform="translate(-806.6 -1789.41)"/></g><path class="cls-2" d="M2087,2810.1c.82,45.58-74.68,99.9-169,101.59s-171.68-49.9-172.49-95.49,75.33-63,169.63-64.71S2086.18,2764.49,2087,2810.1Z" transform="translate(-806.6 -1789.41)"/><g class="cls-15"><path class="cls-5" d="M1991.37,2792.16c.2,11.36-33.36,25.16-75,25.9s-75.73-11.84-75.94-23.2,33.53-16,75.22-16.71S1991.2,2780.8,1991.37,2792.16Z" transform="translate(-806.6 -1789.41)"/></g><path class="cls-13" d="M2275,2913.42s45.43,126.92-77.74,159.34c-103,27.1-170.92-43.18-281.11-113.26-107.62,74-173,146.63-276.89,123.23-124.24-28-83.37-156.46-83.37-156.46Z" transform="translate(-806.6 -1789.41)"/><g class="cls-6"><path class="cls-2" d="M2197.2,3072.74c-103,27.09-170.88-43.15-281.11-113.24-107.61,74-173,146.61-276.86,123.23-104.5-23.53-92.24-118.09-85.66-147.6,8.2,31.78,30.89,63.66,85.66,76,88.28,19.87,163.62-39.54,245.92-100.34l63-1.63c84.48,57.78,161.54,115,249.08,92,51.26-13.5,73.36-43.4,81.61-73.65C2286.48,2961.38,2295.23,3047,2197.2,3072.74Z" transform="translate(-806.6 -1789.41)"/></g><path class="cls-2" d="M2282.37,2910.76c29.82,73.26,8.18,150.49-71,177.32-9.39,3.54-20.43,5.91-30.15,8.17a230.31,230.31,0,0,1-40.63,2.89c-90.3-4.78-164.88-74.8-237.82-118.79l27.26-.49c-34.76,23.83-68.3,50.09-105,75-50.53,34.75-110,62.47-173.6,50.46-45.37-6.94-91.27-32.7-107-78.17-8.34-22.65-9.09-46.89-5.68-70.16a169.53,169.53,0,0,1,8.58-33.39,8.81,8.81,0,0,1,11.37-5.13h0a8.88,8.88,0,0,1,5.44,10.48c-12.63,73.67,13.29,129.14,92.87,136.4,52.18,6.32,96.49-18.59,140.78-50,34.59-24.74,68.71-51.83,104.2-76.25l13.5-9.43,13.76,8.94c53.62,33.36,103,75.79,159.41,103,22.22,10.19,44.93,16.5,68.75,16.53,5.87,0,11.83-.73,17.73-1,7.88-1.48,17-2.69,24.75-4.86,65.47-15.82,80.81-76.77,67.5-136.25-2.7-9.47,11-14.37,14.89-5.33Z" transform="translate(-806.6 -1789.41)"/><path class="cls-2" d="M1923.91,2828.91l23.69,121.19c6.3,39.31-50,50.38-59,11.54-3.64.56,17.61-128.67,17.35-132.25,1.45-10.08,16.11-10.37,18-.45Z" transform="translate(-806.6 -1789.41)"/><path class="cls-3" d="M2706.49,4493.63H1160.64s-188.43-55.9-129.06-298.86c39.59-162,136.28-227.77,230.49-227.18,90.12.44,178,61.54,211.67,156.89,0,0,222,76.67,459.85,76.67s459.85-76.67,459.85-76.67c29.17-82.55,98.93-139.38,175.58-153.48,104.55-19.28,221.9,40.88,266.58,223.77C2895,4437.73,2706.49,4493.63,2706.49,4493.63Z" transform="translate(-806.6 -1789.41)"/><g class="cls-18"><path class="cls-5" d="M2846.06,4309.35a405.82,405.82,0,0,0-10.43-62.13c-76.82-314.18-368-266.28-440.23-75.58v-52.45c72.27-190.65,363.41-238.55,440.23,75.58C2846.37,4238.86,2849,4276.78,2846.06,4309.35Z" transform="translate(-806.6 -1789.41)"/></g><path class="cls-2" d="M2706.5,4513.4H1160.66a19.79,19.79,0,0,1-5.62-.81c-2.06-.61-205.78-64.26-142.68-322.5C1048,4044.17,1136.85,3953.68,1250,3948c105.51-5.25,205.21,64.6,242.37,169.88a19.78,19.78,0,0,1-37.29,13.19c-31.38-88.92-114.89-148-203.11-143.55-96.13,4.8-169.46,82-201.2,212-51,208.61,91.24,266.78,113,274.38h1539.6c21.59-7.51,164.06-65.61,113.05-274.38-31.74-129.9-105.08-207.15-201.2-212-88.22-4.45-171.75,54.61-203.14,143.55a19.78,19.78,0,0,1-37.29-13.23c37.16-105.29,136.8-175.17,242.38-169.88,113.14,5.65,202,96.14,237.64,242.06,63.1,258.24-140.62,321.89-142.69,322.5A19.83,19.83,0,0,1,2706.5,4513.4Z" transform="translate(-806.6 -1789.41)"/><path class="cls-3" d="M2949.37,4263.38c-40.38,291.94-296.53,291.94-386.6,291.94h-1293c-90,0-346.21,0-386.54-291.94-2.87-20.81-4.45-45.37-2.33-69.74,2.47-29.47,10.33-58.63,27.68-80.23,28.62-35.64,62.29-30.89,62.29-30.89s21.1-44.2,57.63-55.07c63.27-18.73,95.55,20.91,95.55,20.91s35.2-26.94,78.6-17.94c72.76,15.17,117.94,101,130.89,221.89H2499.08c12.9-120.91,58.13-206.72,130.89-221.89,43.35-9,78.55,17.94,78.55,17.94s32.32-39.64,95.6-20.91c36.48,10.87,57.58,55.07,57.58,55.07s33.71-4.75,62.33,30.89c18.69,23.28,26.35,55.31,28.18,87.1A329.66,329.66,0,0,1,2949.37,4263.38Z" transform="translate(-806.6 -1789.41)"/><ellipse class="cls-5" cx="1104.81" cy="4338.25" rx="93.75" ry="107.93" transform="translate(-1044.81 -1721.68) rotate(-3.17)"/><ellipse class="cls-5" cx="975.1" cy="4234.96" rx="35.76" ry="41.73" transform="translate(-1400.66 -1607.04) rotate(-8.2)"/><ellipse class="cls-5" cx="1068.89" cy="4158.07" rx="35.76" ry="41.73" transform="translate(-1388.73 -1594.44) rotate(-8.2)"/><ellipse class="cls-5" cx="1185.42" cy="4175.88" rx="35.76" ry="41.73" transform="translate(-1390.08 -1577.64) rotate(-8.2)"/><ellipse class="cls-5" cx="2722.15" cy="4338.17" rx="107.93" ry="93.75" transform="translate(-2566.51 5026.85) rotate(-86.83)"/><ellipse class="cls-5" cx="2851.97" cy="4234.93" rx="41.73" ry="35.76" transform="translate(-2553.03 4664.31) rotate(-81.8)"/><ellipse class="cls-5" cx="2758.17" cy="4158.04" rx="41.73" ry="35.76" transform="translate(-2557.35 4505.55) rotate(-81.8)"/><ellipse class="cls-5" cx="2641.66" cy="4175.85" rx="41.73" ry="35.76" transform="translate(-2674.87 4405.49) rotate(-81.8)"/><path class="cls-2" d="M2489.21,4251.26c-.6-41.71,5.27-84,19.82-124.85,7.51-20.33,17.38-40.3,30.91-58.58a153.66,153.66,0,0,1,52.62-45.73c5.27-2.87,11.1-4.78,16.65-7.11,5.8-1.74,11.61-3.28,17.56-4.65a113.72,113.72,0,0,1,37.18-.64,132.83,132.83,0,0,1,50.45,18.8l2,1.26,1,.66c.37.32,1.25.69-1.54-.84a17.42,17.42,0,0,0-19.31,2.74c-1.84,1.8,0,0-.16.13a89.34,89.34,0,0,1,7.37-6.65c19.83-16,45.32-23.69,69.7-23a140.74,140.74,0,0,1,35.24,5.5c12.84,3.54,24.33,10.54,33.75,18.27a140,140,0,0,1,24.08,26.1,163.2,163.2,0,0,1,9.42,14.58l2.16,3.92c-.1-.18,1,1.81-.09-.13a17.2,17.2,0,0,0-10.69-7.91c-1.35-.65-6.65-.45-4.86-.49a70.5,70.5,0,0,1,10.58.28,90.53,90.53,0,0,1,36.89,12.18,109.68,109.68,0,0,1,28.13,24.36,135.48,135.48,0,0,1,18.75,30.77,185.52,185.52,0,0,1,10.34,32.87c4.64,22.09,5.79,44.06,5,65.66-.34,10.82-1.31,21.53-2.61,32.2s-3.36,21-5,31.48c-2.3,10.4-4.4,20.84-7.19,31.15-3,10.26-5.67,20.63-9.57,30.68-14.14,40.49-36,79.27-65.7,111.4-29.4,32.48-66.71,57.19-106.31,74.15S2694,4566.32,2652,4571c-21,2.33-42,3.54-62.84,3.88s-41.08.13-61.5.19H1304.8c-20.42-.06-40.59.14-61.5-.19s-41.86-1.55-62.84-3.88c-41.93-4.68-84-14.15-123.75-31.18s-76.91-41.67-106.31-74.15c-29.74-32.13-51.56-70.91-65.7-111.4-3.9-10-6.54-20.42-9.57-30.68-2.79-10.31-4.89-20.75-7.19-31.15-1.66-10.5-3.66-20.83-5-31.48s-2.27-21.38-2.61-32.2c-.75-21.6.4-43.57,5-65.66a185.62,185.62,0,0,1,10.34-32.88,135.48,135.48,0,0,1,18.75-30.77,109.71,109.71,0,0,1,28.15-24.35,90.47,90.47,0,0,1,36.94-12.23,70.5,70.5,0,0,1,10.58-.28c1.79,0-3.51-.16-4.86.49a17.2,17.2,0,0,0-10.69,7.91c-1.08,1.94,0,0-.09.13l2.16-3.92a165.46,165.46,0,0,1,9.42-14.58,140,140,0,0,1,24.08-26.1c9.42-7.73,20.91-14.73,33.76-18.27a140.59,140.59,0,0,1,35.23-5.5c24.38-.65,49.87,7,69.7,23a89.34,89.34,0,0,1,7.37,6.65c-.17-.16,1.68,1.67-.16-.13a17.42,17.42,0,0,0-19.31-2.74c-2.79,1.53-1.91,1.16-1.54.84l1-.66,2-1.26a132.83,132.83,0,0,1,50.45-18.8,113.72,113.72,0,0,1,37.18.63c6,1.37,11.76,2.91,17.56,4.65,5.57,2.31,11.37,4.27,16.65,7.13,21.46,11.11,39.18,27.5,52.56,45.78s23.3,38.29,30.81,58.61c14.49,40.85,20.34,83.1,20,124.78a9.93,9.93,0,0,1-19.56,2.37l-.06-.27c-5-19.61-9.42-39.06-15.31-57.92a475.88,475.88,0,0,0-20.09-54.76c-8-17.35-17.27-33.77-28.41-48s-24-26.18-38.79-33.88c-1.75-1.19-3.77-1.73-5.65-2.6l-5.7-2.49c-3.93-1.21-8-2.38-11.9-3.45a70.37,70.37,0,0,0-23.65-.87,87.6,87.6,0,0,0-23.89,6.83,89.66,89.66,0,0,0-11.13,5.79l-1.26.79-.6.39a21.81,21.81,0,0,1-3.16,1.86,22.13,22.13,0,0,1-24.65-3.47l-1.51-1.47a52.14,52.14,0,0,0-4-3.58c-12-9.61-27.83-14.72-44.15-14.27a100.84,100.84,0,0,0-25,4c-6.89,1.85-13.22,5.66-19.54,10.76a101.2,101.2,0,0,0-17.21,18.77,124,124,0,0,0-7.17,11.08l-1.53,2.78-1,1.81a22.24,22.24,0,0,1-13.69,10.08c-2,.81-7.91.6-6.75.6a31.79,31.79,0,0,0-4.68.16,50.92,50.92,0,0,0-20.62,6.93,70.33,70.33,0,0,0-17.79,15.55,96.44,96.44,0,0,0-12.92,21.3,147.14,147.14,0,0,0-7.92,25.37c-3.76,17.84-4.87,36.86-4.19,56,.29,9.56,1.17,19.16,2.33,28.72s3.11,19.26,4.61,28.89c2.13,9.49,4,19.07,6.57,28.42,2.76,9.27,5.12,18.7,8.63,27.66,12.7,36.37,31.83,70.08,57.52,97.84,25.39,28.07,57.6,49.48,92.79,64.59s73.57,23.89,112.57,28.23c19.53,2.17,39.24,3.32,59.17,3.64s40.45.13,60.78.18H2527.71c20.33,0,40.93.14,60.78-.18s39.64-1.47,59.17-3.64c39-4.34,77.3-13.1,112.57-28.23S2827.63,4467,2853,4439c25.69-27.76,44.82-61.47,57.52-97.84,3.51-9,5.87-18.39,8.63-27.66,2.54-9.35,4.45-18.93,6.57-28.42,1.5-9.63,3.39-19.33,4.61-28.89s2-19.16,2.33-28.72c.68-19.11-.43-38.13-4.19-56a146.61,146.61,0,0,0-7.92-25.32,96.44,96.44,0,0,0-12.92-21.3,70.33,70.33,0,0,0-17.79-15.55,50.92,50.92,0,0,0-20.62-6.93,31.79,31.79,0,0,0-4.68-.16c1.16,0-4.78.21-6.75-.6a22.24,22.24,0,0,1-13.69-10.08l-1-1.81-1.53-2.78a124,124,0,0,0-7.17-11.08,101.2,101.2,0,0,0-17.21-18.77c-6.32-5.1-12.65-8.91-19.54-10.76a100.84,100.84,0,0,0-25-4c-16.32-.45-32.12,4.66-44.14,14.27a50.32,50.32,0,0,0-4,3.58l-1.51,1.47a22.13,22.13,0,0,1-24.65,3.47,23.8,23.8,0,0,1-3.16-1.86l-.6-.39-1.24-.72a89.66,89.66,0,0,0-11.13-5.79,87.6,87.6,0,0,0-23.89-6.83,69.87,69.87,0,0,0-23.65.86c-3.93,1.08-8,2.25-11.9,3.45-3.75,1.8-7.68,3.1-11.34,5.11-14.84,7.67-27.59,19.8-38.75,33.91s-20.31,30.65-28.3,48a498.65,498.65,0,0,0-20,54.67c-5.9,18.85-10.39,38.28-15.5,57.88l-.07.26a9.94,9.94,0,0,1-12.11,7.14h0A10,10,0,0,1,2489.21,4251.26Z" transform="translate(-806.6 -1789.41)"/><g class="cls-6"><path class="cls-2" d="M880.77,4195c.58,8,1.41,15.8,2.42,23.09,40.33,292,296.53,292,386.54,292H2562.79c90.07,0,346.22,0,386.6-291.94.53-3.88,1-7.93,1.43-12.06-18.74,73.5-72.76,205.78-219.32,208.92-173.45,3.75-226.05-98.86-277.4-110.18-14.7-3.25-33.3-3.68-55.14-2.27-26.57,1.72-41.43-29.92-23.36-49.48l.69-.75c41.13-44.49,79.64-91.1,112.9-138.9,32.53-46.66,60-94.46,79.83-142.41-76.65,14.07-146.41,70.9-175.58,153.45,0,0-133.51,46.12-304.34,66.78-30.35,3.71-61.94,6.58-94.12,8.26-20.26,1-40.78,1.63-61.39,1.63-32.62,0-64.95-1.43-96.44-3.91-34.5-2.76-68-6.72-99.75-11.46-150.91-22.35-263.66-61.3-263.66-61.3-33.67-95.38-121.55-156.45-211.67-156.89,19.78,48.59,47.41,97,80.18,144.29,33.51,48.34,72.46,95.5,113.94,140.43l.56.61c18,19.54,3.25,51.07-23.3,49.48-20.87-1.24-38.71-.73-52.89,2.41-51.36,11.32-104,113.93-277.41,110.18-155.26-3.32-206.67-151.56-222.29-221.35a311.49,311.49,0,0,0,1.33,61.89A312,312,0,0,1,880.77,4195Z" transform="translate(-806.6 -1789.41)"/></g><path class="cls-19" d="M2653.15,3673.77c0,5.39-.14,10.83-.39,16.26h0c-4.7,101.49-52.74,206-122.29,305.93-152.1,218.67-407.1,414.69-535.43,505.67a136.12,136.12,0,0,1-157.51,0c-128.61-91.2-384.58-287.95-536.6-507.25-66.29-95.6-112.81-195.45-120.47-292.73-.69-9.34-1.08-18.63-1.08-27.88,0-232.52,188.52-421.05,421.05-421.05a419.94,419.94,0,0,1,315.86,142.61c77.16-87.49,190-142.61,315.81-142.61C2464.67,3252.72,2653.15,3441.25,2653.15,3673.77Z" transform="translate(-806.6 -1789.41)"/><g class="cls-4"><path class="cls-5" d="M1345.87,3447.44c75.14-49.37,238.8-127.43,429.91-37.1,10.09,4.76,6.27,20-4.87,19.46-80.33-4.14-250.2-6-416.88,36C1342.86,3468.63,1336.24,3453.77,1345.87,3447.44Z" transform="translate(-806.6 -1789.41)"/></g><g class="cls-18"><path class="cls-5" d="M2649.79,3620c-47.75-183.59-214.68-319.12-413.24-319.12-127.58,0-233.65,80.4-272.62,173.14-78.25-88.73-240.37-173.14-368-173.14-198.52,0-365.44,135.53-413.24,319.12,26.44-207.16,203.35-367.32,417.69-367.32a419.94,419.94,0,0,1,315.86,142.61c77.16-87.49,190-142.61,315.81-142.61C2446.48,3252.72,2623.37,3412.88,2649.79,3620Z" transform="translate(-806.6 -1789.41)"/></g><path class="cls-20" d="M1183.87,3687.1q1-3.81,2.07-7.5c.3,1.64.58,3.29.9,4.94,1.28,6.62,2.77,13.2,4.4,19.87.79,3.11,1.58,6.18,2.42,9.29.84,3.26,1.73,6.48,2.72,9.74s1.88,6.53,2.92,9.74,2.07,6.52,3.16,9.74c.79,2.47,1.63,5,2.52,7.46s1.68,4.79,2.57,7.17a611.31,611.31,0,0,0,24.67,57.88c1.13,2.37,2.32,4.75,3.51,7.12,6.13,12.36,12.75,24.71,19.72,37,1.83,3.27,3.71,6.48,5.58,9.69s3.76,6.38,5.69,9.59,3.9,6.43,5.88,9.64,4,6.38,6,9.54c7.12,11.22,14.58,22.44,22.3,33.56,140,201.81,367.89,384.53,503.57,483.46a189.82,189.82,0,0,0,223.63,0c135.3-98.66,362.34-280.66,502.32-481.84,1.53-2.17,3.06-4.35,4.55-6.57s3.11-4.5,4.59-6.77c2.77-4,5.49-8.16,8.16-12.26,2.07-3.16,4.15-6.38,6.18-9.59q12.22-19.12,23.18-38.46c1.73-3.06,3.46-6.13,5.14-9.24,2.23-4,4.4-7.91,6.48-11.91,3.06-5.84,6.08-11.67,8.94-17.55,1.59-3.16,3.12-6.33,4.65-9.49.3-.55.54-1.09.84-1.73q6.52-13.8,12.31-27.68c1.38-3.22,2.67-6.48,3.95-9.74,5.14-13,9.79-26,13.84-39,2.08-6.68,4-13.3,5.79-20q5.34-20.25,8.76-40.37c1.08,3.4,2.17,6.78,3.15,10.35.64,2.23,1.24,4.45,1.78,6.73h0c-.54-2.28-1.14-4.5-1.78-6.73-21.9-79.58-69-117-69-117s-21.66,36.38-162.78,46.86c-130.35,9.64-158.33,138.41-153.53,210.53,4.35,65.94,17.69,130.3,80.17,161.93-263,151.26-594.06,151.61-857.37.89,64-31.29,77.55-96.24,82-162.82,4.8-72.12-23.18-200.89-153.48-210.53-141.12-10.48-162.82-46.86-162.82-46.86s-48.75,38.64-70.25,120.92c-1.18,4.59-2.32,9.34-3.36,14.23h0C1181.55,3696.46,1182.69,3691.71,1183.87,3687.1Z" transform="translate(-806.6 -1789.41)"/><path class="cls-21" d="M1183.87,3687.1c-1.18,4.6-2.32,9.34-3.36,14.23q-.88-10.82-1-21.65C1181,3682.18,1182.44,3684.65,1183.87,3687.1Z" transform="translate(-806.6 -1789.41)"/><path class="cls-21" d="M2653.05,3679.7c0,3.41-.14,6.83-.34,10.24-.54-2.28-1.14-4.5-1.78-6.73C2651.67,3682,2652.37,3680.89,2653.05,3679.7Z" transform="translate(-806.6 -1789.41)"/><path class="cls-2" d="M1916.28,4527.74a236.73,236.73,0,0,1-141-46.79c-229.92-170.05-615.65-501-615.65-807.16,0-243.09,197.76-440.85,440.85-440.85a441,441,0,0,1,284,103.63,49.34,49.34,0,0,0,63.75,0,441.07,441.07,0,0,1,284-103.63c243.06,0,440.8,197.76,440.8,440.85,0,306.12-385.7,637.11-615.61,807.16A236.72,236.72,0,0,1,1916.28,4527.74ZM1600.45,3272.48c-221.28,0-401.3,180-401.3,401.31,0,126.76,73.86,273.78,219.53,437,124.44,139.39,275.38,261,380.09,338.4,70.28,52,164.73,52,235,0,104.71-77.44,255.64-199,380.06-338.4,145.67-163.18,219.53-310.2,219.53-437,0-221.28-180-401.31-401.26-401.31a401.48,401.48,0,0,0-258.47,94.33,88.8,88.8,0,0,1-114.73,0A401.48,401.48,0,0,0,1600.45,3272.48Z" transform="translate(-806.6 -1789.41)"/><path class="cls-21" d="M2619.37,3835c5.14-13,9.79-26,13.84-39C2629.23,3809,2624.58,3822,2619.37,3835Z" transform="translate(-806.6 -1789.41)"/><path class="cls-21" d="M2639,3776a448,448,0,0,0,9.78-46.41A419.55,419.55,0,0,1,2639,3776Z" transform="translate(-806.6 -1789.41)"/><path class="cls-21" d="M2652.76,3690h0q-.6,13-2.18,26.25c1-8.85,1.73-17.64,2.13-26.39C2652.76,3690,2652.76,3690,2652.76,3690Z" transform="translate(-806.6 -1789.41)"/><path class="cls-2" d="M1928.92,3363c2.53,3.47,4.33,6.22,6.32,9.28s3.77,6,5.63,9c3.61,6,7.11,12,10.4,18.15,6.62,12.2,12.8,24.55,18.33,37.17s10.72,25.32,15.18,38.29c4.64,12.88,8.47,26,12.06,39.19a11.33,11.33,0,0,1-7.94,13.92h0a11.33,11.33,0,0,1-13.39-6.42l-.12-.29c-5.18-11.94-10.51-23.75-16.59-35.2-5.89-11.51-12.43-22.68-19.22-33.61s-14.11-21.51-21.71-31.76c-3.8-5.13-7.74-10.12-11.72-15-2-2.41-4-4.86-6.06-7.17s-4.23-4.78-5.9-6.46a22.73,22.73,0,1,1,32.29-32,22.36,22.36,0,0,1,2.15,2.52Z" transform="translate(-806.6 -1789.41)"/><path class="cls-3" d="M2617,3502.81s-21.66,36.4-162.79,46.87c-130.31,9.66-158.3,138.4-153.52,210.51,6.72,101.91,34.89,200,232.82,179.53,102.34-10.61,169-126.86,163.23-251.43C2690.89,3561.51,2617,3502.81,2617,3502.81Z" transform="translate(-806.6 -1789.41)"/><g class="cls-18"><path class="cls-5" d="M2697.05,3705.36c-.15-1.08-.31-2.15-.47-3.22-12.08-79.58-88.55-132.38-167.52-116.76-20.6,4.08-45.79,7.57-76.55,9.85-98.36,7.31-139.54,81.11-152.34,148.78.2-73.6,33-185.36,154-194.31,141.13-10.48,162.78-46.91,162.78-46.91s73.9,58.72,79.73,185.51C2697,3694,2697.1,3699.67,2697.05,3705.36Z" transform="translate(-806.6 -1789.41)"/></g><g class="cls-6"><path class="cls-2" d="M2695.52,3734.37c-10.29,105.88-72.52,196.1-162,205.34-198,20.51-226.15-77.61-232.86-179.53-2.47-37.42,3.86-90.16,28.82-133.52a239.31,239.31,0,0,0,0,31c6.72,101.88,34.9,200,232.82,179.53C2620.48,3831.1,2667.14,3790.87,2695.52,3734.37Z" transform="translate(-806.6 -1789.41)"/></g><path class="cls-2" d="M2483.69,3962.25c-61.5,0-107.84-13.74-140.83-41.57-48-40.45-58.23-103.16-61.94-159.17-5-75.32,24.49-220.62,171.79-231.55,113.81-8.44,143.55-33.93,147.55-37.93,2.44-5.28,6.64-8.13,12.4-9.61,6-1.53,11.75,1,16.6,4.91,3.3,2.62,81,65.83,87.19,200,6.49,141.34-73,260.82-180.94,272A504,504,0,0,1,2483.69,3962.25Zm132.54-432.68c-21.46,14.24-66.8,32.87-160.6,39.83-145.42,10.78-135.74,182.2-135.25,189.49,3.32,50.12,11.43,100.75,48,131.57,33,27.86,86.37,37.54,163.08,29.59,87.12-9,151.05-110.43,145.52-230.85C2673,3602.53,2635.7,3550.86,2616.23,3529.57Z" transform="translate(-806.6 -1789.41)"/><path class="cls-2" d="M2304.12,3662a258.42,258.42,0,0,1,96.86-10.33,201.1,201.1,0,0,1,32.13,5.58,9.88,9.88,0,0,1-3.8,19.37c-38.36-6.67-78.89-.67-115,13.24-19.11,7.11-29.43-20.92-10.2-27.86Z" transform="translate(-806.6 -1789.41)"/><path class="cls-2" d="M2308,3789.55c39.69,14.14,84.19,18.72,125.51,9.18a9.88,9.88,0,0,1,11.69,7.63h0a9.91,9.91,0,0,1-6.9,11.51c-11.34,3.3-22.88,6.28-34.6,7.63a263.88,263.88,0,0,1-105.63-8c-19.43-6.65-9.41-35,9.93-27.94Z" transform="translate(-806.6 -1789.41)"/><path class="cls-3" d="M1216.53,3502.81s21.67,36.4,162.79,46.87c130.32,9.66,158.31,138.4,153.53,210.51-6.75,101.91-34.89,200-232.82,179.53-102.34-10.61-169-126.86-163.24-251.43C1142.61,3561.51,1216.53,3502.81,1216.53,3502.81Z" transform="translate(-806.6 -1789.41)"/><g class="cls-18"><path class="cls-5" d="M1136.45,3705.36c.15-1.08.31-2.15.47-3.22,12.07-79.58,88.55-132.38,167.51-116.76,20.61,4.08,45.8,7.57,76.55,9.85,98.37,7.31,139.54,81.11,152.35,148.78-.2-73.6-33-185.36-154-194.31-141.13-10.48-162.78-46.91-162.78-46.91s-73.89,58.72-79.73,185.51C1136.55,3694,1136.37,3699.67,1136.45,3705.36Z" transform="translate(-806.6 -1789.41)"/></g><g class="cls-6"><path class="cls-2" d="M1138,3734.37c10.28,105.88,72.51,196.1,162,205.34,197.92,20.51,226.1-77.61,232.82-179.53,2.47-37.42-3.85-90.16-28.82-133.52a235.79,235.79,0,0,1,0,31c-6.72,101.88-34.89,200-232.82,179.53C1213,3831.1,1166.37,3790.87,1138,3734.37Z" transform="translate(-806.6 -1789.41)"/></g><path class="cls-2" d="M1349.8,3962.25a503.75,503.75,0,0,1-51.81-2.86c-108-11.19-187.43-130.67-181-272,6.16-134.22,83.89-197.43,87.2-200,4.84-3.86,10.6-6.44,16.59-4.91,5.76,1.48,10,4.33,12.4,9.61,4,4,33.75,29.49,147.56,37.93,147.3,10.93,176.78,156.23,171.79,231.55-3.71,56-14,118.72-61.94,159.17C1457.64,3948.51,1411.29,3962.25,1349.8,3962.25Zm-132.54-432.68c-19.47,21.3-56.74,73-60.71,159.63-5.53,120.42,58.39,221.82,145.52,230.85,76.69,8,130-1.72,163.07-29.59,36.55-30.82,44.66-81.45,48-131.57.48-7.29,10.17-178.71-135.26-189.49C1284.06,3562.44,1238.73,3543.81,1217.26,3529.57Zm16.27-36.87Z" transform="translate(-806.6 -1789.41)"/><path class="cls-2" d="M1518.93,3689.8c-36-13.82-76.44-19.79-114.71-13.15-12.39,1.67-15.92-16.15-3.84-19.36,36.87-9.55,75.81-8,112.74.36,5.4,1.26,10.37,2.51,16.25,4.39,19.35,7,8.77,35.25-10.44,27.76Z" transform="translate(-806.6 -1789.41)"/><path class="cls-2" d="M1535.48,3817.49a263.88,263.88,0,0,1-105.63,8c-11.73-1.35-23.27-4.33-34.6-7.63a9.88,9.88,0,0,1,4.75-19.16c41.32,9.55,85.84,5,125.55-9.17,19.27-7.1,29.41,21.26,9.93,27.94Z" transform="translate(-806.6 -1789.41)"/><ellipse class="cls-2" cx="1597.22" cy="2646.6" rx="161.04" ry="109.49" transform="translate(-1987.72 2212.33) rotate(-84.89)"/><ellipse class="cls-5" cx="1631.8" cy="2608.59" rx="50.46" ry="30.18" transform="translate(-1918.36 2212.15) rotate(-84.89)"/><g class="cls-4"><ellipse class="cls-5" cx="1542.91" cy="2716.19" rx="14.15" ry="30.64" transform="translate(-1418.27 -1335.09) rotate(-14.01)"/></g><ellipse class="cls-2" cx="2233.1" cy="2646.6" rx="109.49" ry="161.04" transform="translate(-1033.45 -1579.99) rotate(-5.11)"/><ellipse class="cls-5" cx="2198.51" cy="2608.58" rx="30.18" ry="50.46" transform="translate(-1030.2 -1583.22) rotate(-5.11)"/><g class="cls-4"><ellipse class="cls-5" cx="2287.43" cy="2716.17" rx="30.64" ry="14.15" transform="translate(-1708.32 2488.59) rotate(-75.99)"/></g></svg>